<?xml version="1.0" encoding="utf-8"?>
<!-- Generator: Adobe Illustrator 19.2.0, SVG Export Plug-In . SVG Version: 6.00 Build 0)  -->
<svg version="1.1" id="Layer_1" xmlns="http://www.w3.org/2000/svg" xmlns:xlink="http://www.w3.org/1999/xlink" x="0px" y="0px"
	 viewBox="0 0 548.7 100" style="enable-background:new 0 0 548.7 100;" xml:space="preserve">
<style type="text/css">
	.st0{fill:#3E83F8;}
	.st1{fill:#2A3E53;}
	.st2{fill:#293C4F;}
	.st3{fill:#4C4C4C;}
</style>
<path class="st0" d="M401.4,26.3c-10.9,0-19.8,10.2-19.8,22.7s8.9,22.7,19.8,22.7s19.8-10.2,19.8-22.7S412.4,26.3,401.4,26.3z
	 M401.4,64.9c-7.8,0-14.1-7.2-14.1-15.9c0-8.8,6.3-15.9,14.1-15.9s14.1,7.2,14.1,15.9C415.5,57.8,409.2,64.9,401.4,64.9z"/>
<path class="st1" d="M228,26.4v45.4h19.6v-6.5h-11.5V26.4H228z M258.3,65.3h17.5v6.5h-25.6V50.4h-2v-6.3h2V26.4h25.3l0.3,6.6h-17.5
	v11.1h16.2v6.3h-16.2L258.3,65.3z"/>
<path class="st0" d="M345.1,72V26.7h7.5v17.9h19.9V26.7h6.6V72h-6.6V51.5h-19.9V72H345.1z M466,72V32.7h-11.6v-6h31.7v6h-12.6V72
	H466z"/>
<path class="st1" d="M212.1,26.5c7.1,1.4,13.3,11.1,6.6,19.9c15.8,15.9-0.6,25.2-4.3,25.2h-20.9V26.5
	C193.5,26.5,209.2,25.9,212.1,26.5 M212.8,42.4c3.7-5.1-0.8-8.8-3.3-8.8h-8.2v17C204.6,44.8,209.6,46.8,212.8,42.4 M201.9,64.7
	c0,0,10.7,0.1,12.3,0s7.5-4.8-1.3-13.3C199.8,53.8,201.9,64.7,201.9,64.7 M293.5,26.4c2,0,3.8,0.3,5.4,0.9s2.9,1.5,3.9,2.6
	c1.1,1.1,1.9,2.4,2.4,3.8s0.8,3,0.8,4.6c0,0.3,0,0.6,0,0.9c0,0.3,0,0.5,0,0.6h-7v-0.7c0-0.8-0.1-1.7-0.3-2.5c-0.2-0.8-0.5-1.6-1-2.2
	c-0.5-0.6-1.1-1.2-1.9-1.6c-0.8-0.4-1.7-0.6-2.9-0.6s-2.2,0.2-3,0.6c-0.8,0.4-1.4,0.9-1.8,1.5s-0.7,1.2-0.9,1.9
	c-0.2,0.7-0.2,1.3-0.2,1.9c0,1.2,0.3,2.2,0.9,2.9c0.6,0.8,1.3,1.4,2.2,2c0.9,0.5,2,1,3.2,1.4s2.4,0.8,3.7,1.3c1.2,0.5,2.5,1,3.7,1.6
	s2.3,1.4,3.2,2.3c0.9,1,1.7,2.1,2.2,3.5c0.6,1.4,0.9,3.1,0.9,5.1c0,2.3-0.4,4.3-1.1,6c-0.7,1.7-1.7,3.1-2.9,4.2s-2.7,1.9-4.4,2.4
	c-1.7,0.5-3.5,0.8-5.5,0.8c-2.5,0-4.7-0.4-6.4-1.1c-1.8-0.7-3.2-1.7-4.4-2.9c-1.1-1.2-1.9-2.6-2.5-4.1c-0.5-1.5-0.8-3.1-0.8-4.7
	c0-0.6,0-1,0-1.3s0-0.5,0-0.5h7.2v0.8c0,1.4,0.2,2.5,0.5,3.5c0.4,1,0.9,1.8,1.5,2.4s1.4,1.1,2.3,1.4c0.9,0.3,1.8,0.4,2.8,0.4
	c0.9,0,1.7-0.1,2.5-0.4s1.5-0.7,2.1-1.2c0.6-0.6,1.1-1.2,1.4-2s0.5-1.7,0.5-2.8c0-1.4-0.3-2.5-0.9-3.4s-1.3-1.6-2.2-2.2
	c-0.9-0.6-2-1.1-3.2-1.6c-1.2-0.4-2.4-0.9-3.7-1.3c-1.3-0.5-2.5-1-3.7-1.6s-2.2-1.3-3.2-2.2c-0.9-0.9-1.7-2-2.2-3.3
	c-0.6-1.3-0.8-3-0.8-4.9s0.3-3.7,1-5.2c0.6-1.5,1.5-2.8,2.7-3.9s2.6-1.9,4.3-2.5C289.5,26.7,291.4,26.4,293.5,26.4 M324,26.4
	c2,0,3.8,0.3,5.4,0.9s2.9,1.5,3.9,2.6c1.1,1.1,1.9,2.4,2.4,3.8s0.8,3,0.8,4.6c0,0.3,0,0.6,0,0.9c0,0.3,0,0.5,0,0.6h-7v-0.7
	c0-0.8-0.1-1.7-0.3-2.5c-0.2-0.8-0.5-1.6-1-2.2c-0.5-0.6-1.1-1.2-1.9-1.6c-0.8-0.4-1.7-0.6-2.9-0.6s-2.2,0.2-3,0.6
	c-0.8,0.4-1.4,0.9-1.8,1.5s-0.7,1.2-0.9,1.9c-0.2,0.7-0.2,1.3-0.2,1.9c0,1.2,0.3,2.2,0.9,2.9c0.6,0.8,1.3,1.4,2.2,2
	c0.9,0.5,2,1,3.2,1.4s2.4,0.8,3.7,1.3c1.2,0.5,2.5,1,3.7,1.6s2.3,1.4,3.2,2.3c0.9,1,1.7,2.1,2.2,3.5c0.6,1.4,0.9,3.1,0.9,5.1
	c0,2.3-0.4,4.3-1.1,6c-0.7,1.7-1.7,3.1-2.9,4.2s-2.7,1.9-4.4,2.4c-1.7,0.5-3.5,0.8-5.5,0.8c-2.5,0-4.7-0.4-6.4-1.1
	c-1.8-0.7-3.2-1.7-4.4-2.9c-1.1-1.2-1.9-2.6-2.5-4.1c-0.5-1.5-0.8-3.1-0.8-4.7c0-0.6,0-1,0-1.3s0-0.5,0-0.5h7.2v0.8
	c0,1.4,0.2,2.5,0.5,3.5c0.4,1,0.9,1.8,1.5,2.4s1.4,1.1,2.3,1.4c0.9,0.3,1.8,0.4,2.8,0.4c0.9,0,1.7-0.1,2.5-0.4s1.5-0.7,2.1-1.2
	c0.6-0.6,1.1-1.2,1.4-2s0.5-1.7,0.5-2.8c0-1.4-0.3-2.5-0.9-3.4s-1.3-1.6-2.2-2.2c-0.9-0.6-2-1.1-3.2-1.6c-1.2-0.4-2.4-0.9-3.7-1.3
	c-1.3-0.5-2.5-1-3.7-1.6s-2.2-1.3-3.2-2.2c-0.9-0.9-1.7-2-2.2-3.3c-0.6-1.3-0.8-3-0.8-4.9s0.3-3.7,1-5.2c0.6-1.5,1.5-2.8,2.7-3.9
	s2.6-1.9,4.3-2.5C320.1,26.7,321.9,26.4,324,26.4"/>
<path class="st0" d="M438.4,26.4c2,0,3.8,0.3,5.4,0.9s2.9,1.5,3.9,2.6c1.1,1.1,1.9,2.4,2.4,3.8s0.8,3,0.8,4.6c0,0.3,0,0.6,0,0.9
	c0,0.3,0,0.5,0,0.6h-7v-0.7c0-0.8-0.1-1.7-0.3-2.5c-0.2-0.8-0.5-1.6-1-2.2c-0.5-0.6-1.1-1.2-1.9-1.6c-0.8-0.4-1.7-0.6-2.9-0.6
	s-2.2,0.2-3,0.6c-0.8,0.4-1.4,0.9-1.8,1.5s-0.7,1.2-0.9,1.9c-0.2,0.7-0.2,1.3-0.2,1.9c0,1.2,0.3,2.2,0.9,2.9c0.6,0.8,1.3,1.4,2.2,2
	c0.9,0.5,2,1,3.2,1.4s2.4,0.8,3.7,1.3c1.2,0.5,2.5,1,3.7,1.6s2.3,1.4,3.2,2.3c0.9,1,1.7,2.1,2.2,3.5c0.6,1.4,0.9,3.1,0.9,5.1
	c0,2.3-0.4,4.3-1.1,6s-1.7,3.1-2.9,4.2s-2.7,1.9-4.4,2.4c-1.7,0.5-3.5,0.8-5.5,0.8c-2.5,0-4.7-0.4-6.4-1.1c-1.8-0.7-3.2-1.7-4.4-2.9
	c-1.1-1.2-1.9-2.6-2.5-4.1c-0.5-1.5-0.8-3.1-0.8-4.7c0-0.6,0-1,0-1.3s0-0.5,0-0.5h7.2v0.8c0,1.4,0.2,2.5,0.5,3.5
	c0.4,1,0.9,1.8,1.5,2.4s1.4,1.1,2.3,1.4c0.9,0.3,1.8,0.4,2.8,0.4c0.9,0,1.7-0.1,2.5-0.4s1.5-0.7,2.1-1.2c0.6-0.6,1.1-1.2,1.4-2
	s0.5-1.7,0.5-2.8c0-1.4-0.3-2.5-0.9-3.4s-1.3-1.6-2.2-2.2c-0.9-0.6-2-1.1-3.2-1.6c-1.2-0.4-2.4-0.9-3.7-1.3c-1.3-0.5-2.5-1-3.7-1.6
	s-2.2-1.3-3.2-2.2c-0.9-0.9-1.7-2-2.2-3.3c-0.6-1.3-0.8-3-0.8-4.9s0.3-3.7,1-5.2c0.6-1.5,1.5-2.8,2.7-3.9s2.6-1.9,4.3-2.5
	C434.5,26.7,436.3,26.4,438.4,26.4"/>
<path class="st2" d="M136.7,76.7c0,3.6-2.9,6.5-6.5,6.5s-6.5-2.9-6.5-6.5s2.9-6.5,6.5-6.5C133.8,70.2,136.7,73.1,136.7,76.7"/>
<path class="st0" d="M153.8,43.6c0,3.6-2.9,6.5-6.5,6.5s-6.5-2.9-6.5-6.5s2.9-6.5,6.5-6.5S153.8,40,153.8,43.6 M153.8,76.7
	c0,3.6-2.9,6.5-6.5,6.5s-6.5-2.9-6.5-6.5s2.9-6.5,6.5-6.5S153.8,73.1,153.8,76.7"/>
<path class="st2" d="M153.8,93.3c0,3.6-2.9,6.5-6.5,6.5s-6.5-2.9-6.5-6.5s2.9-6.5,6.5-6.5S153.8,89.7,153.8,93.3 M153.8,59.9
	c0,3.6-2.9,6.5-6.5,6.5s-6.5-2.9-6.5-6.5s2.9-6.5,6.5-6.5S153.8,56.3,153.8,59.9"/>
<path class="st0" d="M170.8,27.7c0,3.6-2.9,6.5-6.5,6.5s-6.5-2.9-6.5-6.5s2.9-6.5,6.5-6.5S170.8,24.1,170.8,27.7"/>
<path class="st2" d="M170.8,43.6c0,3.6-2.9,6.5-6.5,6.5s-6.5-2.9-6.5-6.5s2.9-6.5,6.5-6.5S170.8,40,170.8,43.6 M170.8,76.7
	c0,3.6-2.9,6.5-6.5,6.5s-6.5-2.9-6.5-6.5s2.9-6.5,6.5-6.5S170.8,73.1,170.8,76.7"/>
<path class="st0" d="M170.8,59.9c0,3.6-2.9,6.5-6.5,6.5s-6.5-2.9-6.5-6.5s2.9-6.5,6.5-6.5S170.8,56.3,170.8,59.9 M170.8,93.3
	c0,3.6-2.9,6.5-6.5,6.5s-6.5-2.9-6.5-6.5s2.9-6.5,6.5-6.5S170.8,89.7,170.8,93.3"/>
<path class="st0" d="M158.8,17.2c0.3-0.1,0.7-0.1,1-0.2c-7-9.6-19.1-16.7-31.9-16.7c-21.1,0-38.3,17.1-38.3,38.3
	c0,2.6,0.3,5.1,0.7,7.5c2.1-1.1,4.3-2,6.8-2.9c-0.2-1.5-0.3-3-0.3-4.6c0-17.2,13.9-31.1,31.1-31.1c10.3,0,20.2,5.8,25.9,13.6
	C154.7,19,156.6,17.5,158.8,17.2z"/>
<path class="st0" d="M134.9,93.3c0-1.3,0.4-2.6,1.1-3.6H89.9c-11.1,0-20.1-9-20.1-20.1s9-20.1,20.1-20.1c3,0,5.8,0.6,8.3,1.8
	c4.1,2.1,7.3-4.4,3.2-6.4c-3.5-1.6-7.4-2.6-11.5-2.6c-15.1,0-27.3,12.2-27.3,27.3s12.2,27.3,27.3,27.3H136
	C135.3,95.8,134.9,94.6,134.9,93.3z"/>
<path class="st3" d="M205.8,85.9c0-4.4,2.9-7.6,7.3-7.6s7.3,3.3,7.3,7.6c0,2.2-0.8,4.1-2,5.5l1.4,1.5l-1.3,1.1l-1.4-1.5
	c-1.1,0.7-2.5,1.1-4,1.1C208.7,93.5,205.8,90.2,205.8,85.9z M215.9,91.1l-2.1-2.3l1.3-1.1l2.1,2.3c0.9-1.1,1.4-2.5,1.4-4.1
	c0-3.5-2.1-6-5.4-6c-3.3,0-5.4,2.5-5.4,6c0,3.4,2.1,6,5.4,6C214.2,91.9,215.1,91.6,215.9,91.1z M231.5,93.3v-1.5
	c-0.8,0.9-2.2,1.8-3.8,1.8c-2.2,0-3.4-1.1-3.4-3.4v-7.6h1.7v7c0,1.9,1,2.4,2.4,2.4c1.3,0,2.5-0.8,3.2-1.6v-7.9h1.7v10.7L231.5,93.3
	L231.5,93.3z M244.2,93.3V92c-0.9,1-2.1,1.5-3.5,1.5c-1.8,0-3.7-1.2-3.7-3.5c0-2.4,1.9-3.5,3.7-3.5c1.5,0,2.7,0.5,3.5,1.5v-2
	c0-1.4-1.2-2.3-2.7-2.3c-1.3,0-2.3,0.5-3.3,1.5l-0.8-1.2c1.2-1.2,2.5-1.8,4.3-1.8c2.3,0,4.1,1,4.1,3.6v7.4L244.2,93.3L244.2,93.3z
	 M244.2,91v-2c-0.6-0.9-1.8-1.3-2.9-1.3c-1.6,0-2.6,1-2.6,2.3c0,1.4,1.1,2.3,2.6,2.3C242.4,92.3,243.5,91.9,244.2,91z M250.2,93.3
	V78.5h1.7v14.8C251.9,93.3,250.2,93.3,250.2,93.3z M255.9,79.9c0-0.6,0.5-1.1,1.1-1.1c0.6,0,1.1,0.5,1.1,1.1S257.6,81,257,81
	S255.9,80.5,255.9,79.9L255.9,79.9z M256.1,93.3V82.6h1.7v10.7H256.1z M262.5,91v-7h-1.8v-1.5h1.8v-2.9h1.7v2.9h2.2V84h-2.2v6.6
	c0,0.8,0.4,1.4,1.1,1.4c0.5,0,0.9-0.2,1.1-0.4l0.5,1.2c-0.4,0.4-1,0.7-2,0.7C263.3,93.5,262.5,92.6,262.5,91L262.5,91z M269.3,95.9
	c0.2,0.1,0.6,0.2,0.9,0.2c0.7,0,1.2-0.2,1.6-1.1l0.7-1.6L268,82.6h1.8l3.6,8.8l3.5-8.8h1.8l-5.4,12.9c-0.6,1.6-1.7,2.1-3.1,2.2
	c-0.4,0-0.9-0.1-1.2-0.2L269.3,95.9L269.3,95.9z M297.5,93.3l-2.8-8.6l-2.8,8.6h-1.7l-3.4-10.7h1.7l2.6,8.5l2.8-8.5h1.4l2.8,8.5
	l2.6-8.5h1.7L299,93.3C299,93.3,297.5,93.3,297.5,93.3z M305.2,79.9c0-0.6,0.5-1.1,1.1-1.1s1.1,0.5,1.1,1.1s-0.5,1.1-1.1,1.1
	S305.2,80.5,305.2,79.9z M305.5,93.3V82.6h1.7v10.7H305.5z M311.8,91v-7H310v-1.5h1.8v-2.9h1.7v2.9h2.2V84h-2.2v6.6
	c0,0.8,0.4,1.4,1.1,1.4c0.5,0,0.9-0.2,1.1-0.4l0.5,1.2c-0.4,0.4-1,0.7-2,0.7C312.6,93.5,311.8,92.6,311.8,91L311.8,91z M326.2,93.3
	v-7c0-1.9-1-2.4-2.4-2.4c-1.3,0-2.5,0.8-3.2,1.7v7.8H319V78.5h1.7v5.6c0.8-0.9,2.2-1.8,3.8-1.8c2.2,0,3.4,1.1,3.4,3.4v7.6H326.2z
	 M349.5,93.3l-1.3-3.3h-7.4l-1.3,3.3h-2.1l5.9-14.8h2.3l6,14.8H349.5z M344.5,80.4l-3.1,8h6.3L344.5,80.4L344.5,80.4z M354.7,93.3
	V84H353v-1.5h1.8v-0.8c0-2.2,1.2-3.5,3.1-3.5c0.8,0,1.6,0.2,2.3,0.8l-0.7,1.1c-0.4-0.3-0.8-0.5-1.3-0.5c-1.1,0-1.7,0.8-1.7,2.1v0.8
	h2.2V84h-2.2v9.2L354.7,93.3L354.7,93.3z M361,93.3V84h-1.8v-1.5h1.8v-0.8c0-2.2,1.2-3.5,3.1-3.5c0.8,0,1.6,0.2,2.3,0.8l-0.7,1.1
	c-0.4-0.3-0.8-0.5-1.3-0.5c-1.1,0-1.7,0.8-1.7,2.1v0.8h2.2V84h-2.2v9.2L361,93.3L361,93.3z M367.2,87.9c0-3.1,2-5.6,5.3-5.6
	s5.3,2.5,5.3,5.6s-2,5.6-5.3,5.6S367.2,91,367.2,87.9z M376.1,87.9c0-2.2-1.3-4.1-3.5-4.1c-2.3,0-3.6,1.9-3.6,4.1s1.3,4.1,3.6,4.1
	C374.8,92,376.1,90.1,376.1,87.9z M381.5,93.3V82.6h1.7v1.7c0.9-1.1,2.1-2,3.6-2V84c-0.2,0-0.4-0.1-0.7-0.1c-1,0-2.4,0.8-2.9,1.7
	v7.6L381.5,93.3L381.5,93.3z M397.6,93.3v-1.6c-0.8,1.1-2.1,1.9-3.6,1.9c-2.8,0-4.8-2.1-4.8-5.6c0-3.4,1.9-5.6,4.8-5.6
	c1.4,0,2.7,0.7,3.6,1.9v-5.7h1.7v14.8h-1.7V93.3z M397.6,90.4v-4.9c-0.6-0.9-1.9-1.7-3.2-1.7c-2.1,0-3.4,1.8-3.4,4.1
	c0,2.4,1.3,4.1,3.4,4.1C395.7,92,397,91.3,397.6,90.4z M410.2,93.3V92c-0.9,1-2.1,1.5-3.5,1.5c-1.8,0-3.7-1.2-3.7-3.5
	c0-2.4,1.9-3.5,3.7-3.5c1.5,0,2.7,0.5,3.5,1.5v-2c0-1.4-1.2-2.3-2.7-2.3c-1.3,0-2.3,0.5-3.3,1.5l-0.8-1.2c1.2-1.2,2.5-1.8,4.3-1.8
	c2.3,0,4.1,1,4.1,3.6v7.4L410.2,93.3L410.2,93.3z M410.2,91v-2c-0.6-0.9-1.8-1.3-2.9-1.3c-1.6,0-2.6,1-2.6,2.3
	c0,1.4,1.1,2.3,2.6,2.3C408.5,92.3,409.6,91.9,410.2,91z M416.2,93.3V78.5h1.7v5.7c0.9-1.2,2.1-1.9,3.6-1.9c2.8,0,4.8,2.2,4.8,5.6
	c0,3.5-2,5.6-4.8,5.6c-1.5,0-2.8-0.8-3.6-1.9v1.6h-1.7V93.3z M421.1,92c2.2,0,3.5-1.8,3.5-4.1c0-2.4-1.3-4.1-3.5-4.1
	c-1.3,0-2.6,0.8-3.2,1.7v4.9C418.5,91.3,419.8,92,421.1,92z M429.7,79.9c0-0.6,0.5-1.1,1.1-1.1s1.1,0.5,1.1,1.1s-0.5,1.1-1.1,1.1
	S429.7,80.5,429.7,79.9z M430,93.3V82.6h1.7v10.7H430L430,93.3z M435.9,93.3V78.5h1.7v14.8C437.6,93.3,435.9,93.3,435.9,93.3z
	 M441.6,79.9c0-0.6,0.5-1.1,1.1-1.1s1.1,0.5,1.1,1.1s-0.5,1.1-1.1,1.1S441.6,80.5,441.6,79.9z M441.9,93.3V82.6h1.7v10.7H441.9z
	 M448.2,91v-7h-1.8v-1.5h1.8v-2.9h1.7v2.9h2.2V84h-2.2v6.6c0,0.8,0.4,1.4,1.1,1.4c0.5,0,0.9-0.2,1.1-0.4l0.5,1.2
	c-0.4,0.4-1,0.7-2,0.7C449,93.5,448.2,92.6,448.2,91L448.2,91z M455.1,95.9c0.2,0.1,0.6,0.2,0.9,0.2c0.7,0,1.2-0.2,1.6-1.1l0.7-1.6
	l-4.5-10.8h1.8l3.6,8.8l3.5-8.8h1.8l-5.4,12.9c-0.6,1.6-1.7,2.1-3.1,2.2c-0.4,0-0.9-0.1-1.2-0.2L455.1,95.9L455.1,95.9z"/>
<path class="st0" d="M187,43.6c0,3.6-2.9,6.5-6.5,6.5s-6.5-2.9-6.5-6.5s2.9-6.5,6.5-6.5S187,40,187,43.6 M187,76.7
	c0,3.6-2.9,6.5-6.5,6.5s-6.5-2.9-6.5-6.5s2.9-6.5,6.5-6.5S187,73.1,187,76.7"/>
<path class="st2" d="M187,59.9c0,3.6-2.9,6.5-6.5,6.5s-6.5-2.9-6.5-6.5s2.9-6.5,6.5-6.5S187,56.3,187,59.9"/>
</svg>
