<svg xmlns="http://www.w3.org/2000/svg" xmlns:xlink="http://www.w3.org/1999/xlink" baseProfile="tiny" viewBox="0 0 524.2 123.2" overflow="visible" xmlns:v="https://vecta.io/nano"><g fill="#2a3e53"><path d="M204.8 32.3v56.2H229v-8h-14.2V32.3zm37.4 48.2h21.7v8h-31.7V62.1h-2.4v-7.8h2.4v-22h31.4l.3 8.3h-21.7v13.7h20.1v7.8h-20.1zm-57.2-48c8.8 1.8 16.4 13.8 8.2 24.7 19.6 19.7-.7 31.2-5.3 31.2H162V32.5s19.4-.7 23 0m.9 19.7c4.6-6.3-1-10.9-4.1-10.9h-10.2v21.1c4.1-7.3 10.4-4.9 14.3-10.2m-13.5 27.5s13.2.2 15.2 0 9.3-6-1.6-16.4c-16.1 2.9-13.6 16.4-13.6 16.4"/><use xlink:href="#B"/><use xlink:href="#B" x="37.8"/></g><g fill="#293c4f"><use xlink:href="#C"/><path d="M112.9 115.1c0 4.5-3.6 8-8 8-4.5 0-8-3.6-8-8 0-4.5 3.6-8 8-8s8 3.6 8 8"/><use xlink:href="#C" x="21.2" y="-20.8"/><use xlink:href="#C" x="42.2" y="-41"/><use xlink:href="#C" x="42.2"/><use xlink:href="#C" x="62.3" y="-20.8"/></g><g fill="#3e83f8"><use xlink:href="#C" x="21.2" y="-41"/><use xlink:href="#C" x="21.2"/><path d="M133.9 33.9c0 4.5-3.6 8-8 8-4.5 0-8-3.6-8-8s3.6-8 8-8 8 3.6 8 8"/><use xlink:href="#C" x="42.2" y="-20.8"/><path d="M133.9 115.1c0 4.5-3.6 8-8 8-4.5 0-8-3.6-8-8 0-4.5 3.6-8 8-8s8 3.6 8 8"/><use xlink:href="#C" x="62.3" y="-41"/><use xlink:href="#C" x="62.3"/><path d="M419.4 32.2c-13.5 0-24.5 12.6-24.5 28.1s11 28.1 24.5 28.1 24.5-12.6 24.5-28.1-11-28.1-24.5-28.1zm0 47.8c-9.6 0-17.4-8.9-17.4-19.7 0-10.9 7.8-19.7 17.4-19.7s17.4 8.9 17.4 19.7c.1 10.9-7.8 19.7-17.4 19.7zm-69.7 8.8V32.6h9.2v22.2h24.7V32.6h8.1v56.2h-8.1V63.4h-24.7v25.4zm149.7 0V40.1h-14.5v-7.4h39.3v7.4h-15.6v48.7z"/><use xlink:href="#B" x="179.4"/></g><g fill="#4c4c4c"><use xlink:href="#D"/><use xlink:href="#D" x="61.1"/><use xlink:href="#D" x="214.9"/><use xlink:href="#D" x="230"/><path d="M177.5 105.9c0-5.3 3.5-9.2 8.8-9.2s8.8 3.9 8.8 9.2c0 2.6-.9 4.9-2.5 6.6l1.7 1.8-1.5 1.3-1.7-1.8c-1.3.9-3 1.3-4.8 1.3-5.2 0-8.8-4-8.8-9.2zm12.2 6.3l-2.5-2.7 1.5-1.3 2.5 2.7c1-1.3 1.6-3 1.6-5 0-4.2-2.6-7.2-6.5-7.2-4 0-6.5 3.1-6.5 7.2s2.5 7.2 6.5 7.2c1.3 0 2.5-.3 3.4-.9zm19.1 2.6V113c-1 1.1-2.7 2.1-4.6 2.1-2.7 0-4.1-1.3-4.1-4.1v-9.1h2v8.5c0 2.3 1.1 2.9 2.9 2.9 1.6 0 3.1-.9 3.8-1.9v-9.5h2v12.9h-2zm15.6 0v-1.5c-1.1 1.2-2.5 1.8-4.3 1.8-2.2 0-4.5-1.5-4.5-4.3 0-2.9 2.3-4.2 4.5-4.2 1.8 0 3.2.6 4.3 1.8V106c0-1.7-1.4-2.7-3.3-2.7-1.5 0-2.8.6-4 1.8l-.9-1.4c1.4-1.4 3-2.1 5.2-2.1 2.7 0 5 1.2 5 4.4v8.9h-2zm0-2.8v-2.4c-.8-1.1-2.1-1.6-3.5-1.6-1.9 0-3.2 1.2-3.2 2.8s1.3 2.8 3.2 2.8c1.4 0 2.8-.5 3.5-1.6zm7.6-15h2v17.8h-2zm7.5 4.9h2v12.9h-2z"/><use xlink:href="#E"/><use xlink:href="#F"/><path d="M290.7 114.8l-3.4-10.4-3.3 10.4h-2l-4.2-12.9h2.1l3.2 10.2 3.4-10.2h1.7l3.4 10.2 3.1-10.2h2.1l-4.1 12.9zm10-12.9h2v12.9h-2zm7.9 10.2v-8.4h-2.1v-1.8h2.1v-3.5h2v3.5h2.6v1.8h-2.6v8c0 1 .4 1.7 1.3 1.7.6 0 1.1-.2 1.4-.5l.6 1.5c-.5.5-1.2.8-2.4.8-1.9-.1-2.9-1.2-2.9-3.1zm17.7 2.7v-8.5c0-2.3-1.2-2.9-2.9-2.9-1.5 0-3 1-3.8 2v9.4h-2V97h2v6.8c.9-1.1 2.7-2.2 4.6-2.2 2.7 0 4.1 1.3 4.1 4.1v9.1h-2zm28.8 0l-1.6-3.9h-8.9l-1.6 3.9h-2.5l7.2-17.8h2.7l7.2 17.8h-2.5zm-6-15.5l-3.8 9.6h7.6l-3.8-9.6z"/><use xlink:href="#G"/><use xlink:href="#G" x="7.6"/><path d="M377.1 108.3c0-3.7 2.5-6.8 6.4-6.8s6.4 3 6.4 6.8-2.5 6.8-6.4 6.8-6.4-3.1-6.4-6.8zm10.7 0c0-2.6-1.5-5-4.3-5s-4.3 2.3-4.3 5c0 2.6 1.5 5 4.3 5s4.3-2.4 4.3-5zm6.9 6.5v-12.9h2v2.1c1-1.4 2.5-2.3 4.3-2.3v2.1c-.2-.1-.5-.1-.8-.1-1.2 0-2.9 1-3.5 2.1v9.1h-2zm19.7 0v-1.9c-1 1.3-2.5 2.2-4.3 2.2-3.4 0-5.7-2.6-5.7-6.8 0-4.1 2.3-6.8 5.7-6.8 1.7 0 3.3.9 4.3 2.3V97h2v17.8h-2zm0-3.5v-5.8c-.7-1.1-2.3-2.1-3.9-2.1-2.6 0-4.1 2.1-4.1 5s1.5 5 4.1 5c1.6-.1 3.1-1 3.9-2.1zm15.6 3.5v-1.5c-1.1 1.2-2.5 1.8-4.3 1.8-2.2 0-4.5-1.5-4.5-4.3 0-2.9 2.3-4.2 4.5-4.2 1.8 0 3.2.6 4.3 1.8V106c0-1.7-1.4-2.7-3.3-2.7-1.5 0-2.8.6-4 1.8l-.9-1.4c1.4-1.4 3-2.1 5.2-2.1 2.7 0 5 1.2 5 4.4v8.9h-2zm0-2.8v-2.4c-.8-1.1-2.1-1.6-3.5-1.6-1.9 0-3.2 1.2-3.2 2.8s1.3 2.8 3.2 2.8c1.3 0 2.7-.5 3.5-1.6zm7.5 2.8V97h2v6.9c1-1.4 2.6-2.3 4.4-2.3 3.4 0 5.7 2.7 5.7 6.8 0 4.2-2.4 6.8-5.7 6.8-1.8 0-3.4-.9-4.4-2.2v1.9h-2zm5.9-1.5c2.6 0 4.2-2.1 4.2-5s-1.5-5-4.2-5c-1.6 0-3.1 1-3.8 2.1v5.8c.6 1.2 2.2 2.1 3.8 2.1zm11-11.4h2v12.9h-2zM462 97h2v17.8h-2zm7.5 4.9h2v12.9h-2z"/><use xlink:href="#E" x="230"/><use xlink:href="#F" x="230"/></g><path fill="#3e83f8" d="M89.4 115.1c0-1.5.2-3 .7-4.5H33.8C20 110.7 8.9 99.5 8.9 85.8S20 60.9 33.8 60.9c3.7 0 7.2.7 10.3 2.2 5.1 2.6 9-5.5 4-7.9-1.8-.8-3.6-1.5-5.6-2 .1 0 .2 0 .2-.1-.2-1.9-.4-3.7-.4-5.7 0-21.3 17.2-38.5 38.5-38.5 12.6 0 24.8 7.1 31.9 16.6 1.6-2.6 4-4.6 6.8-5.9C110.8 8.3 96.2 0 80.8 0 54.7 0 33.4 21.2 33.4 47.4c0 1.5.1 3.1.2 4.6A33.72 33.72 0 0 0 0 85.8c0 18.7 15.1 33.8 33.8 33.8h56.3c-.4-1.4-.7-2.9-.7-4.5z"/><defs ><path id="B" d="M285.8 32.3c2.5 0 4.7.4 6.6 1.2s3.5 1.8 4.9 3.2c1.3 1.3 2.3 2.9 3 4.7s1 3.7 1 5.7v1.2c0 .4-.1.7-.1.8h-8.7v-.9c0-1-.1-2.1-.4-3.1-.2-1-.6-1.9-1.2-2.7s-1.4-1.4-2.3-1.9c-1-.5-2.1-.7-3.6-.7s-2.7.2-3.7.7c-.9.5-1.7 1.1-2.2 1.8-.6.7-.9 1.5-1.1 2.4s-.3 1.7-.3 2.4c0 1.5.4 2.7 1.1 3.6s1.6 1.8 2.8 2.4c1.2.7 2.5 1.2 4 1.7l4.5 1.6 4.5 2c1.5.7 2.8 1.7 4 2.9s2.1 2.6 2.8 4.4c.7 1.7 1.1 3.8 1.1 6.3 0 2.9-.4 5.4-1.3 7.5s-2.1 3.8-3.6 5.1-3.4 2.3-5.5 3c-2.1.6-4.4.9-6.9.9-3.1 0-5.8-.4-8-1.3s-4-2.1-5.4-3.5c-1.4-1.5-2.4-3.2-3.1-5-.7-1.9-1-3.8-1-5.8 0-.7 0-1.2.1-1.6 0-.3.1-.6.1-.7h8.9v1c0 1.7.2 3.1.7 4.3.4 1.2 1.1 2.2 1.9 3s1.7 1.4 2.8 1.7c1.1.4 2.2.5 3.5.5 1.1 0 2.1-.2 3.1-.5s1.8-.8 2.6-1.5 1.3-1.5 1.8-2.5c.4-1 .7-2.1.7-3.4 0-1.7-.4-3.1-1.1-4.2s-1.6-2-2.8-2.8c-1.2-.7-2.5-1.4-3.9-1.9l-4.5-1.7-4.5-1.9c-1.5-.7-2.8-1.7-3.9-2.8-1.2-1.1-2.1-2.5-2.8-4.1s-1.1-3.7-1.1-6.1.4-4.5 1.2-6.4 1.9-3.5 3.4-4.8a15.26 15.26 0 0 1 5.3-3c1.7-.8 4-1.2 6.6-1.2"/><path id="C" d="M91.7 94.6c0 4.5-3.6 8-8 8-4.5 0-8-3.6-8-8s3.6-8 8-8c4.4-.1 8 3.5 8 8"/><path id="D" d="M239.2 98.7c0-.7.6-1.4 1.3-1.4s1.4.6 1.4 1.4-.6 1.3-1.4 1.3c-.7 0-1.3-.6-1.3-1.3z"/><path id="E" d="M247.5 112.1v-8.4h-2.1v-1.8h2.1v-3.5h2v3.5h2.6v1.8h-2.6v8c0 1 .4 1.7 1.3 1.7.6 0 1.1-.2 1.4-.5l.6 1.5c-.5.5-1.2.8-2.4.8-2-.1-2.9-1.2-2.9-3.1z"/><path id="F" d="M256.1 118c.3.1.8.2 1.1.2.9 0 1.5-.3 1.9-1.4l.9-1.9-5.4-13h2.2l4.3 10.6 4.3-10.6h2.2l-6.5 15.5c-.8 1.9-2.1 2.6-3.8 2.6a7.72 7.72 0 0 1-1.5-.2l.3-1.8z"/><path id="G" d="M361.7 114.8v-11.1h-2.1v-1.8h2.1v-1c0-2.6 1.4-4.2 3.7-4.2 1 0 1.9.2 2.7 1l-.8 1.3c-.4-.4-.9-.6-1.6-.6-1.3 0-2 .9-2 2.5v1h2.6v1.8h-2.6v11.1h-2z"/></defs></svg>