<svg xmlns="http://www.w3.org/2000/svg" xmlns:xlink="http://www.w3.org/1999/xlink" baseProfile="tiny" viewBox="0 0 524.2 123.2" overflow="visible" xmlns:v="https://vecta.io/nano"><g fill="#293c4f"><use xlink:href="#B"/><use xlink:href="#C"/><use xlink:href="#B" x="21.2" y="-20.8"/><use xlink:href="#B" x="42.2" y="-41"/><use xlink:href="#B" x="42.2"/><use xlink:href="#B" x="62.3" y="-20.8"/></g><g fill="#3e83f8"><use xlink:href="#B" x="21.2" y="-41"/><use xlink:href="#B" x="21.2"/><use xlink:href="#C" x="21" y="-81.2"/><use xlink:href="#B" x="42.2" y="-20.8"/><use xlink:href="#C" x="21"/><use xlink:href="#B" x="62.3" y="-41"/><use xlink:href="#B" x="62.3"/><path d="M89.4 115.1c0-1.5.2-3 .7-4.5H33.8C20 110.7 8.9 99.5 8.9 85.8S20 60.9 33.8 60.9c3.7 0 7.2.7 10.3 2.2 5.1 2.6 9-5.5 4-7.9-1.8-.8-3.6-1.5-5.6-2 .1 0 .2 0 .2-.1-.2-1.9-.4-3.7-.4-5.7 0-21.3 17.2-38.5 38.5-38.5 12.6 0 24.8 7.1 31.9 16.6 1.6-2.6 4-4.6 6.8-5.9C110.8 8.3 96.2 0 80.8 0 54.7 0 33.4 21.2 33.4 47.4c0 1.5.1 3.1.2 4.6A33.72 33.72 0 0 0 0 85.8c0 18.7 15.1 33.8 33.8 33.8h56.3c-.4-1.4-.7-2.9-.7-4.5z"/></g><g fill="#2a3e53"><path d="M204.8 50.9v56.2H229v-8h-14.2V50.9zm37.4 48.2h21.7v8h-31.7V80.7h-2.4v-7.8h2.4v-22h31.4l.3 8.3h-21.7v13.7h20.1v7.8h-20.1zm-57.2-48c8.8 1.8 16.4 13.8 8.2 24.7 19.6 19.7-.7 31.2-5.3 31.2H162V51.1s19.4-.7 23 0m.9 19.7c4.6-6.3-1-10.9-4.1-10.9h-10.2V81c4.1-7.3 10.4-4.8 14.3-10.2m-13.5 27.6s13.2.2 15.2 0 9.3-6-1.6-16.4c-16.1 2.9-13.6 16.4-13.6 16.4"/><use xlink:href="#D"/><use xlink:href="#D" x="37.8"/></g><g fill="#3e83f8"><path d="M419.4 50.8c-13.5 0-24.5 12.6-24.5 28.1s11 28.1 24.5 28.1 24.5-12.6 24.5-28.1-11-28.1-24.5-28.1zm0 47.8c-9.6 0-17.4-8.9-17.4-19.7 0-10.9 7.8-19.7 17.4-19.7s17.4 8.9 17.4 19.7c.1 10.9-7.8 19.7-17.4 19.7zm-69.7 8.8V51.3h9.2v22.1h24.7V51.3h8.1v56.1h-8.1V82h-24.7v25.4zm149.7 0V58.7h-14.5v-7.4h39.3v7.4h-15.6v48.7z"/><use xlink:href="#D" x="179.4"/></g><g fill="#4c4c4c"><path d="M242.2 36.9v-17h7.4c3.6 0 5.5 2.4 5.5 5.3s-2 5.3-5.5 5.3h-4.5v6.3h-2.9zm10-11.7c0-1.6-1.2-2.7-2.9-2.7h-4.1v5.4h4.1c1.7 0 2.9-1 2.9-2.7zm5.4 11.7V24.6h2.7v1.8c.9-1.2 2.4-2.1 4-2.1V27c-.2-.1-.5-.1-.8-.1-1.1 0-2.6.8-3.1 1.6v8.3h-2.8z"/><use xlink:href="#E"/><path d="M289.2 36.9v-1.6a5.8 5.8 0 0 1-4.3 1.9c-2.6 0-3.9-1.4-3.9-3.9v-8.7h2.7v7.7c0 1.9 1 2.5 2.5 2.5 1.3 0 2.5-.8 3.1-1.6v-8.6h2.7v12.3h-2.8zm14.8 0v-1.7c-.9 1.2-2.4 2-3.9 2-3.1 0-5.5-2.4-5.5-6.4s2.3-6.4 5.5-6.4c1.5 0 2.9.7 3.9 2V20h2.7v16.9H304zm0-3.7v-4.9c-.6-.9-1.9-1.6-3.2-1.6-2.1 0-3.5 1.7-3.5 4.1s1.3 4.1 3.5 4.1c1.3-.1 2.6-.8 3.2-1.7zm6.1 3.7v-17h2.7v16.9h-2.7zm6 2.4c.3.1.7.2 1 .2.8 0 1.4-.3 1.8-1.1l.6-1.4-5-12.4h2.8l3.6 9.2 3.6-9.2h2.9l-5.9 14.5c-.8 2.1-2.3 2.7-4.2 2.8a7.72 7.72 0 0 1-1.5-.2l.3-2.4zm27.7-2.4v-7.7c0-1.9-1-2.5-2.5-2.5-1.3 0-2.5.8-3.1 1.6v8.6h-2.7v-17h2.7v6.3c.8-1 2.4-2 4.3-2 2.6 0 4 1.4 4 3.9v8.7h-2.7z"/><use xlink:href="#E" x="83.5"/><path d="M363.4 35.3l1.2-1.9c.9.9 2.6 1.7 4.2 1.7s2.4-.7 2.4-1.6c0-2.4-7.4-.7-7.4-5.4 0-2 1.7-3.7 4.8-3.7 2.1 0 3.7.7 4.8 1.7l-1.1 1.9c-.7-.8-2.1-1.5-3.6-1.5-1.4 0-2.3.6-2.3 1.5 0 2.2 7.4.6 7.4 5.4 0 2.2-1.8 3.8-5.1 3.8-2.1 0-4-.7-5.3-1.9zM377 34v-7.1h-2v-2.3h2v-3.3h2.7v3.3h2.5v2.3h-2.5v6.4c0 .8.4 1.4 1.2 1.4.5 0 1-.2 1.2-.4l.6 2c-.5.5-1.3.8-2.5.8-2.1.1-3.2-1-3.2-3.1zm6.8-3.3c0-3.6 2.6-6.4 6.2-6.4 3.7 0 6 2.8 6 6.7v.6h-9.5c.2 1.9 1.6 3.4 3.9 3.4 1.2 0 2.6-.5 3.5-1.3l1.2 1.8c-1.2 1.2-3 1.8-5 1.8-3.6-.1-6.3-2.7-6.3-6.6zm6.2-4.2c-2.3 0-3.3 1.8-3.5 3.2h6.9c0-1.4-1-3.2-3.4-3.2zm17.3 10.4v-1.7c-.9 1.2-2.4 2-3.9 2-3.1 0-5.5-2.4-5.5-6.4s2.3-6.4 5.5-6.4c1.5 0 2.9.7 3.9 2V20h2.7v16.9h-2.7zm0-3.7v-4.9c-.6-.9-1.9-1.6-3.2-1.6-2.1 0-3.5 1.7-3.5 4.1s1.3 4.1 3.5 4.1c1.3-.1 2.6-.8 3.2-1.7zm12.6 3.7v-17h2.7v6.4c1-1.3 2.4-2 3.9-2 3.1 0 5.4 2.5 5.4 6.4 0 4-2.3 6.4-5.4 6.4-1.6 0-3-.8-3.9-2v1.7h-2.7zm5.8-2.1c2.1 0 3.5-1.7 3.5-4.1s-1.3-4.1-3.5-4.1c-1.2 0-2.6.8-3.1 1.7v4.8c.6 1 1.9 1.7 3.1 1.7zm8.9 4.5c.3.1.7.2 1 .2.8 0 1.4-.3 1.8-1.1l.6-1.4-5-12.4h2.8l3.6 9.2 3.6-9.2h2.9L440 39.1c-.8 2.1-2.3 2.7-4.2 2.8a7.72 7.72 0 0 1-1.5-.2l.3-2.4z"/></g><defs ><path id="B" d="M91.7 94.6c0 4.5-3.6 8-8 8-4.5 0-8-3.6-8-8s3.6-8 8-8c4.4-.1 8 3.5 8 8"/><path id="C" d="M112.9 115.1c0 4.5-3.6 8-8 8-4.5 0-8-3.6-8-8s3.6-8 8-8 8 3.6 8 8"/><path id="D" d="M285.8 50.9c2.5 0 4.7.4 6.6 1.2s3.5 1.8 4.9 3.2c1.3 1.3 2.3 2.9 3 4.7s1 3.7 1 5.7v1.2c0 .4-.1.7-.1.8h-8.7v-.9c0-1-.1-2.1-.4-3.1-.2-1-.6-1.9-1.2-2.7s-1.4-1.4-2.3-1.9c-1-.5-2.1-.7-3.6-.7s-2.7.2-3.7.7c-.9.5-1.7 1.1-2.2 1.8-.6.7-.9 1.5-1.1 2.4s-.3 1.7-.3 2.4c0 1.5.4 2.7 1.1 3.6s1.6 1.8 2.8 2.4c1.2.7 2.5 1.2 4 1.7l4.5 1.6 4.5 2c1.5.7 2.8 1.7 4 2.9s2.1 2.6 2.8 4.4c.7 1.7 1.1 3.8 1.1 6.3 0 2.9-.4 5.4-1.3 7.5s-2.1 3.8-3.6 5.1-3.4 2.3-5.5 3c-2.1.6-4.4.9-6.9.9-3.1 0-5.8-.4-8-1.3s-4-2.1-5.4-3.5c-1.4-1.5-2.4-3.2-3.1-5-.7-1.9-1-3.8-1-5.8 0-.7 0-1.2.1-1.6 0-.3.1-.6.1-.7h8.9v1c0 1.7.2 3.1.7 4.3.4 1.2 1.1 2.2 1.9 3s1.7 1.4 2.8 1.7c1.1.4 2.2.5 3.5.5 1.1 0 2.1-.2 3.1-.5s1.8-.8 2.6-1.5 1.3-1.5 1.8-2.5c.4-1 .7-2.1.7-3.4 0-1.7-.4-3.1-1.1-4.2s-1.6-2-2.8-2.8c-1.2-.7-2.5-1.4-3.9-1.9l-4.5-1.7-4.5-1.9c-1.5-.7-2.8-1.7-3.9-2.8-1.2-1.1-2.1-2.5-2.8-4.1s-1.1-3.7-1.1-6.1.4-4.5 1.2-6.4 1.9-3.5 3.4-4.8a15.26 15.26 0 0 1 5.3-3c1.7-.8 4-1.2 6.6-1.2"/><path id="E" d="M265.6 30.7c0-3.5 2.4-6.4 6.3-6.4s6.3 2.9 6.3 6.4-2.4 6.4-6.3 6.4c-3.8.1-6.3-2.9-6.3-6.4zm9.9 0c0-2.2-1.3-4.1-3.6-4.1s-3.5 1.9-3.5 4.1 1.3 4.1 3.5 4.1c2.3 0 3.6-1.9 3.6-4.1z"/></defs></svg>