<svg xmlns="http://www.w3.org/2000/svg" xmlns:xlink="http://www.w3.org/1999/xlink" baseProfile="tiny" viewBox="0 0 292.9 123.2" overflow="visible" xmlns:v="https://vecta.io/nano"><g fill="#fff"><path d="M196.8 18.4c13.7 2.7 25.5 21.4 12.8 38.4 30.5 30.6-1.1 48.5-8.3 48.5H161V18.4s30.2-1.2 35.8 0m1.4 30.6c7.2-9.9-1.5-17-6.4-17H176v32.8c6.4-11.2 16-7.4 22.2-15.8m-21 42.9s20.6.3 23.7 0 14.4-9.3-2.5-25.6c-25.2 4.6-21.2 25.6-21.2 25.6m50.3 13.4V17.9h14.4v34.5h38.3V17.9h12.7v87.4h-12.7V65.7h-38.3v39.6z"/><use xlink:href="#B"/><path d="M112.9 115.1c0 4.5-3.6 8-8 8-4.5 0-8-3.6-8-8s3.6-8 8-8 8 3.6 8 8"/><use xlink:href="#B" x="21.2" y="-20.8"/><use xlink:href="#C"/><use xlink:href="#C" y="41"/><use xlink:href="#C" x="20.1" y="20.2"/><use xlink:href="#B" x="21.2" y="-41"/><use xlink:href="#B" x="21.2"/><path d="M133.9 33.9c0 4.5-3.6 8-8 8s-8-3.6-8-8 3.6-8 8-8 8 3.6 8 8"/><use xlink:href="#C" y="20.2"/><path d="M133.9 115.1c0 4.5-3.6 8-8 8s-8-3.6-8-8 3.6-8 8-8 8 3.6 8 8"/><use xlink:href="#C" x="20.1"/><use xlink:href="#C" x="20.1" y="41"/><path d="M89.4 115.1c0-1.5.2-3 .7-4.5H33.8C20 110.7 8.9 99.5 8.9 85.8S20 60.9 33.8 60.9c3.7 0 7.2.7 10.3 2.2 5.1 2.6 9-5.5 4-7.9-1.8-.8-3.6-1.5-5.6-2 .1 0 .2 0 .2-.1-.2-1.9-.4-3.7-.4-5.7 0-21.3 17.2-38.5 38.5-38.5 12.6 0 24.8 7.1 31.9 16.6 1.6-2.6 4-4.6 6.8-5.9C110.8 8.3 96.2 0 80.8 0 54.7 0 33.4 21.2 33.4 47.4c0 1.5.1 3.1.2 4.6A33.72 33.72 0 0 0 0 85.8c0 18.7 15.1 33.8 33.8 33.8h56.3c-.4-1.4-.7-2.9-.7-4.5z"/></g><defs ><path id="B" d="M91.7 94.6c0 4.5-3.6 8-8 8-4.5 0-8-3.6-8-8s3.6-8 8-8c4.4-.1 8 3.5 8 8"/><path id="C" d="M133.9 53.6c0 4.5-3.6 8-8 8s-8-3.6-8-8 3.6-8 8-8 8 3.5 8 8"/></defs></svg>