<svg xmlns="http://www.w3.org/2000/svg" xmlns:xlink="http://www.w3.org/1999/xlink" baseProfile="tiny" viewBox="0 0 360 360" overflow="visible" xmlns:v="https://vecta.io/nano"><g fill="#fff"><path d="M50 233.4v53.2h22.7V279H59.4v-45.6zM85.1 279h20.5v7.6H75.8v-25h-2.3v-7.4h2.3v-20.8h29.4l.4 7.8H85.1v13h19v7.4h-19z"/><path d="M31.4 233.6c8.3 1.7 15.4 13 7.7 23.3 18.4 18.6-.7 29.5-5 29.5H9.8v-52.9c0 .1 18.2-.6 21.6.1m.8 18.6c4.4-6-.9-10.3-3.8-10.3h-9.5v20c3.8-6.9 9.6-4.6 13.3-9.7m-12.6 26.1s12.4.2 14.3 0 8.7-5.7-1.5-15.6c-15.3 2.8-12.8 15.6-12.8 15.6m106.5-44.9c2.4 0 4.4.4 6.2 1.1s3.3 1.7 4.6 3c1.2 1.3 2.2 2.8 2.8 4.4.6 1.7.9 3.5.9 5.4v1.1.7h-8.2v-.8c0-1-.1-1.9-.3-2.9s-.6-1.8-1.2-2.6-1.3-1.4-2.2-1.8c-.9-.5-2-.7-3.4-.7s-2.6.2-3.4.7c-.9.5-1.6 1.1-2.1 1.7-.5.7-.9 1.4-1.1 2.3-.2.8-.3 1.6-.3 2.3 0 1.4.3 2.5 1 3.4s1.5 1.7 2.6 2.3 2.3 1.2 3.7 1.7l4.3 1.5c1.4.5 2.9 1.2 4.3 1.9s2.6 1.6 3.7 2.7 2 2.5 2.6 4.1c.7 1.6 1 3.6 1 6 0 2.7-.4 5.1-1.2 7.1s-1.9 3.6-3.4 4.9c-1.4 1.3-3.2 2.2-5.1 2.8-2 .6-4.1.9-6.5.9-2.9 0-5.4-.4-7.5-1.3-2.1-.8-3.8-2-5.1-3.4s-2.3-3-2.9-4.8-.9-3.6-.9-5.5v-1.5-.6h8.3v1c0 1.6.2 3 .6 4.1s1 2.1 1.8 2.8 1.6 1.3 2.6 1.6 2.1.5 3.3.5c1 0 2-.2 2.9-.5s1.7-.8 2.4-1.4 1.3-1.4 1.7-2.4c.4-.9.6-2 .6-3.3 0-1.6-.3-2.9-1-4-.7-1-1.5-1.9-2.6-2.6a18.18 18.18 0 0 0-3.7-1.8l-4.3-1.6c-1.5-.5-2.9-1.1-4.3-1.8s-2.6-1.6-3.7-2.6c-1.1-1.1-2-2.4-2.6-3.9-.7-1.6-1-3.5-1-5.7s.4-4.3 1.1-6.1 1.8-3.3 3.2-4.6a15.3 15.3 0 0 1 5-2.9c2.2-.5 4.4-.9 6.8-.9m35.6 0c2.4 0 4.4.4 6.2 1.1s3.3 1.7 4.6 3c1.2 1.3 2.2 2.8 2.8 4.4s.9 3.5.9 5.4v1.1.7H168v-.8c0-1-.1-1.9-.3-2.9s-.6-1.8-1.2-2.6-1.3-1.4-2.2-1.8c-.9-.5-2-.7-3.4-.7s-2.6.2-3.4.7c-.9.5-1.6 1.1-2.1 1.7-.5.7-.9 1.4-1.1 2.3-.2.8-.3 1.6-.3 2.3 0 1.4.3 2.5 1 3.4s1.5 1.7 2.6 2.3 2.3 1.2 3.7 1.7l4.3 1.5c1.4.5 2.9 1.2 4.3 1.9s2.6 1.6 3.7 2.7 2 2.5 2.6 4.1c.7 1.6 1 3.6 1 6 0 2.7-.4 5.1-1.2 7.1s-1.9 3.6-3.4 4.9c-1.4 1.3-3.2 2.2-5.1 2.8-2 .6-4.1.9-6.5.9-2.9 0-5.4-.4-7.5-1.3-2.1-.8-3.8-2-5.1-3.4s-2.3-3-2.9-4.8-.9-3.6-.9-5.5v-1.5-.6h8.3v1c0 1.6.2 3 .6 4.1s1 2.1 1.8 2.8 1.6 1.3 2.6 1.6 2.1.5 3.3.5c1 0 2-.2 2.9-.5s1.7-.8 2.4-1.4 1.3-1.4 1.7-2.4c.4-.9.6-2 .6-3.3 0-1.6-.3-2.9-1-4-.7-1-1.5-1.9-2.6-2.6a18.18 18.18 0 0 0-3.7-1.8l-4.3-1.6c-1.5-.5-2.9-1.1-4.3-1.8s-2.6-1.6-3.7-2.6c-1.1-1.1-2-2.4-2.6-3.9-.7-1.6-1-3.5-1-5.7s.4-4.3 1.1-6.1 1.8-3.3 3.2-4.6a15.3 15.3 0 0 1 5-2.9c2.2-.5 4.3-.9 6.8-.9m90-.1c-12.7 0-23 11.9-23 26.6s10.3 26.6 23 26.6 23-11.9 23-26.6c.1-14.7-10.3-26.6-23-26.6zm0 45.3c-9 0-16.4-8.4-16.4-18.7s7.3-18.7 16.4-18.7c9 0 16.4 8.4 16.4 18.7s-7.3 18.7-16.4 18.7zm-65.5 8.3v-53.2h8.7v21H218v-21h7.7v53.2H218v-24.1h-23.1v24.1zm140.7 0v-46.1h-13.6v-7.1h36.9v7.1h-14.6v46.1zm-32.1-53.5c2.4 0 4.4.4 6.2 1.1s3.3 1.7 4.6 3c1.2 1.3 2.2 2.8 2.8 4.4s.9 3.5.9 5.4v1.1.7H301v-.8c0-1-.1-1.9-.3-2.9s-.6-1.8-1.2-2.6-1.3-1.4-2.2-1.8c-.9-.5-2-.7-3.4-.7s-2.6.2-3.4.7c-.9.5-1.6 1.1-2.1 1.7-.5.7-.9 1.4-1.1 2.3-.2.8-.3 1.6-.3 2.3 0 1.4.3 2.5 1 3.4s1.5 1.7 2.6 2.3 2.3 1.2 3.7 1.7l4.3 1.5c1.4.5 2.9 1.2 4.3 1.9s2.6 1.6 3.7 2.7 2 2.5 2.6 4.1c.7 1.6 1 3.6 1 6 0 2.7-.4 5.1-1.2 7.1s-1.9 3.6-3.4 4.9c-1.4 1.3-3.2 2.2-5.1 2.8-2 .6-4.1.9-6.5.9-2.9 0-5.4-.4-7.5-1.3-2.1-.8-3.8-2-5.1-3.4s-2.3-3-2.9-4.8-.9-3.6-.9-5.5v-1.5-.6h8.3v1c0 1.6.2 3 .6 4.1s1 2.1 1.8 2.8 1.6 1.3 2.6 1.6 2.1.5 3.3.5c1 0 2-.2 2.9-.5s1.7-.8 2.4-1.4 1.3-1.4 1.7-2.4c.4-.9.6-2 .6-3.3 0-1.6-.3-2.9-1-4-.7-1-1.5-1.9-2.6-2.6a18.18 18.18 0 0 0-3.7-1.8l-4.3-1.6c-1.5-.5-2.9-1.1-4.3-1.8s-2.6-1.6-3.7-2.6c-1.1-1.1-2-2.4-2.6-3.9-.7-1.6-1-3.5-1-5.7s.4-4.3 1.1-6.1 1.8-3.3 3.2-4.6a15.3 15.3 0 0 1 5-2.9c2.3-.5 4.5-.9 6.9-.9"/><use xlink:href="#B"/><path d="M139.8 296.2c0-.7.6-1.3 1.3-1.3s1.3.6 1.3 1.3-.6 1.3-1.3 1.3c-.8 0-1.3-.6-1.3-1.3z"/><use xlink:href="#B" x="202"/><use xlink:href="#B" x="216.2"/><path d="M24.3 303c0-5 3.3-8.7 8.3-8.7 4.9 0 8.3 3.7 8.3 8.7 0 2.5-.9 4.7-2.3 6.2l1.6 1.7-1.5 1.3-1.6-1.7c-1.3.8-2.8 1.3-4.5 1.3-4.9-.1-8.3-3.8-8.3-8.8zm11.5 6l-2.4-2.6 1.5-1.2 2.4 2.6c1-1.2 1.5-2.9 1.5-4.7 0-3.9-2.4-6.8-6.1-6.8-3.8 0-6.1 2.9-6.1 6.8s2.4 6.8 6.1 6.8c1.1 0 2.2-.3 3.1-.9zm18 2.4v-1.7a5.69 5.69 0 0 1-4.3 2c-2.5 0-3.9-1.2-3.9-3.9v-8.6h1.9v8c0 2.1 1.1 2.8 2.7 2.8 1.5 0 2.9-.9 3.6-1.8v-9h1.9v12.2h-1.9zm14.6 0V310c-1 1.1-2.4 1.7-4 1.7-2.1 0-4.2-1.4-4.2-4 0-2.7 2.2-4 4.2-4 1.7 0 3 .5 4 1.7v-2.2c0-1.6-1.3-2.6-3.1-2.6-1.5 0-2.6.5-3.7 1.7l-.9-1.3c1.3-1.4 2.9-2 4.8-2 2.6 0 4.7 1.2 4.7 4.1v8.4h-1.8zm0-2.5v-2.3c-.7-1-2-1.5-3.3-1.5-1.8 0-3 1.1-3 2.7 0 1.5 1.2 2.7 3 2.7 1.3-.1 2.6-.6 3.3-1.6zm7.1-14.3h1.9v16.8h-1.9zm7.1 4.6h1.9v12.2h-1.9zm7.5 9.7v-8h-2v-1.7h2v-3.3H92v3.3h2.5v1.7H92v7.6c0 .9.4 1.6 1.2 1.6.5 0 1-.2 1.3-.5l.6 1.4c-.5.5-1.2.8-2.3.8-1.8-.1-2.7-1.1-2.7-2.9z"/><use xlink:href="#C"/><path d="M130.7 311.4l-3.1-9.8-3.2 9.8h-1.9l-3.8-12.2h1.9l3 9.8 3.2-9.8h1.6l3.1 9.8 3-9.8h2l-3.9 12.2zm9.4-12.2h1.9v12.2h-1.9z"/><use xlink:href="#D"/><path d="M164.2 311.4v-8c0-2.1-1.1-2.8-2.7-2.8-1.5 0-2.9.9-3.6 1.9v8.9H156v-16.8h1.9v6.4c.9-1 2.5-2.1 4.3-2.1 2.5 0 3.9 1.2 3.9 3.9v8.6h-1.9zm27.1 0l-1.5-3.7h-8.3l-1.5 3.7h-2.4l6.7-16.8h2.6l6.7 16.8h-2.3zm-5.7-14.6l-3.6 9.1h7.1l-3.5-9.1z"/><use xlink:href="#E"/><use xlink:href="#E" x="7.1"/><path d="M212 305.3c0-3.5 2.3-6.4 6-6.4s6 2.9 6 6.4-2.3 6.4-6 6.4-6-2.8-6-6.4zm10 0c0-2.5-1.4-4.7-4-4.7s-4 2.2-4 4.7 1.5 4.7 4 4.7 4-2.2 4-4.7zm6.5 6.1v-12.2h1.9v2c1-1.3 2.4-2.2 4-2.2v1.9c-.2-.1-.5-.1-.8-.1-1.2 0-2.7 1-3.3 1.9v8.6h-1.8zm18.5 0v-1.8c-.9 1.2-2.4 2.1-4.1 2.1-3.2 0-5.4-2.4-5.4-6.4 0-3.9 2.2-6.4 5.4-6.4 1.6 0 3.1.8 4.1 2.1v-6.5h1.9v16.8H247zm0-3.3v-5.5c-.7-1.1-2.1-2-3.6-2-2.4 0-3.9 2-3.9 4.7s1.5 4.7 3.9 4.7c1.4 0 2.9-.8 3.6-1.9zm14.7 3.3V310c-1 1.1-2.4 1.7-4 1.7-2.1 0-4.2-1.4-4.2-4 0-2.7 2.2-4 4.2-4 1.7 0 3 .5 4 1.7v-2.2c0-1.6-1.3-2.6-3.1-2.6-1.5 0-2.6.5-3.7 1.7l-.9-1.3c1.3-1.4 2.9-2 4.8-2 2.6 0 4.7 1.2 4.7 4.1v8.4h-1.8zm0-2.5v-2.3c-.7-1-2-1.5-3.3-1.5-1.8 0-3 1.1-3 2.7 0 1.5 1.2 2.7 3 2.7 1.2-.1 2.5-.6 3.3-1.6zm7 2.5v-16.8h1.9v6.5c1-1.3 2.4-2.1 4.1-2.1 3.2 0 5.4 2.5 5.4 6.4 0 4-2.2 6.4-5.4 6.4-1.7 0-3.2-.9-4.1-2.1v1.8h-1.9zm5.5-1.4c2.5 0 3.9-2 3.9-4.7s-1.5-4.7-3.9-4.7c-1.5 0-3 .9-3.6 2v5.5c.7 1.1 2.2 1.9 3.6 1.9zm10.4-10.8h1.9v12.2h-1.9zm7.1-4.6h1.9v16.8h-1.9zm7.1 4.6h1.9v12.2h-1.9z"/><use xlink:href="#D" x="158.7"/><use xlink:href="#C" x="216.2"/><use xlink:href="#F"/><use xlink:href="#G"/><use xlink:href="#G" y="-55.5"/><use xlink:href="#F" x="56.3" y="-55"/><use xlink:href="#F" x="56.3"/><use xlink:href="#F" x="83" y="-27.9"/><use xlink:href="#G" y="-82.6"/><use xlink:href="#G" y="-27.6"/><use xlink:href="#F" x="56.3" y="-81.4"/><use xlink:href="#F" x="56.3" y="-27.9"/><use xlink:href="#F" x="56.3" y="27.6"/><use xlink:href="#F" x="83" y="-55"/><use xlink:href="#F" x="83"/><path d="M196.6 192.1c0-2.1.3-4.1.9-6h-75c-18.3 0-33.2-14.9-33.2-33.4s14.8-33.4 33.2-33.4c4.9 0 9.6 1 13.7 3 6.8 3.5 12-7.3 5.3-10.6-2.4-1.1-4.8-2-7.4-2.7.1 0 .2-.1.3-.1-.3-2.5-.5-5-.5-7.6 0-28.6 22.9-51.7 51.3-51.7 16.8 0 33.1 9.5 42.5 22.3 2.2-3.4 5.3-6.2 9.1-7.9-11.7-15.2-31.1-26.4-51.6-26.4-34.8 0-63.2 28.4-63.2 63.6a60.78 60.78 0 0 0 .3 6.1c-24.8.1-44.9 20.3-44.9 45.3 0 25.1 20.1 45.3 45 45.3h75c-.5-1.7-.8-3.8-.8-5.8z"/></g><defs ><path id="B" d="M82.3 296.2c0-.7.6-1.3 1.3-1.3s1.3.6 1.3 1.3-.6 1.3-1.3 1.3-1.3-.6-1.3-1.3z"/><path id="C" d="M98.2 314.5c.3.1.7.2 1 .2.8 0 1.4-.3 1.8-1.3l.8-1.8-5.1-12.3h2l4 10 4-10h2.1l-6.1 14.7c-.7 1.8-2 2.4-3.6 2.5-.4 0-1-.1-1.4-.2l.5-1.8z"/><path id="D" d="M147.6 308.9v-8h-2v-1.7h2v-3.3h1.9v3.3h2.5v1.7h-2.5v7.6c0 .9.4 1.6 1.2 1.6.5 0 1-.2 1.3-.5l.6 1.4c-.5.5-1.2.8-2.3.8-1.8-.1-2.7-1.1-2.7-2.9z"/><path id="E" d="M197.5 311.4v-10.5h-2v-1.7h2v-.9c0-2.5 1.4-4 3.5-4 1 0 1.8.2 2.6.9l-.8 1.2c-.4-.4-.9-.6-1.5-.6-1.2 0-1.9.9-1.9 2.4v.9h2.5v1.7h-2.5v10.5h-1.9z"/><path id="F" d="M199.6 164.5c0 6-4.8 10.8-10.7 10.8s-10.7-4.8-10.7-10.8 4.8-10.8 10.7-10.8 10.7 4.8 10.7 10.8"/><path id="G" d="M227.8 192.1c0 6-4.8 10.8-10.7 10.8s-10.7-4.8-10.7-10.8 4.8-10.8 10.7-10.8c6 0 10.7 4.8 10.7 10.8"/></defs></svg>