<svg xmlns="http://www.w3.org/2000/svg" xmlns:xlink="http://www.w3.org/1999/xlink" baseProfile="tiny" viewBox="0 0 360 360" overflow="visible" xmlns:v="https://vecta.io/nano"><path fill="#2a3e53" d="M134 212.3c20.1 4 37.5 31.5 18.7 56.4 44.8 44.9-1.6 71.3-12.2 71.3h-59V212.3s44.3-1.6 52.5 0m2 45c10.6-14.5-2.2-24.9-9.4-24.9h-23.2v48.2c9.4-16.6 23.6-11 32.6-23.3m-30.7 63h34.8c4.5-.4 21.2-13.7-3.6-37.6-37.1 6.8-31.2 37.6-31.2 37.6"/><path fill="#3e83f8" d="M179.1 340V211.6h21.1v50.7h56.3v-50.7h18.7V340h-18.7v-58.2h-56.3V340z"/><g fill="#293c4f"><use xlink:href="#B"/><path d="M231 182.4c0 6.5-5.3 11.8-11.8 11.8s-11.8-5.3-11.8-11.8 5.3-11.8 11.8-11.8c6.6 0 11.8 5.2 11.8 11.8m0-60.7c0 6.5-5.3 11.8-11.8 11.8s-11.8-5.3-11.8-11.8 5.3-11.8 11.8-11.8c6.6-.1 11.8 5.2 11.8 11.8"/><use xlink:href="#C"/><use xlink:href="#C" y="60.2"/><use xlink:href="#D"/></g><g fill="#3e83f8"><use xlink:href="#B" x="31.1" y="-60.2"/><use xlink:href="#B" x="31.1"/><use xlink:href="#C" y="-28.9"/><use xlink:href="#D" x="-29.5"/><use xlink:href="#D" x="-29.5" y="60.7"/><use xlink:href="#C" x="29.5"/><use xlink:href="#C" x="29.5" y="60.2"/><path d="M196.6 182.4c0-2.3.3-4.5 1-6.5h-82.7c-20.2 0-36.5-16.4-36.5-36.5s16.4-36.5 36.5-36.5c5.4 0 10.5 1.1 15.1 3.3 7.5 3.8 13.3-8 5.8-11.6-2.6-1.2-5.3-2.2-8.2-3 .1 0 .2-.1.3-.1-.4-2.7-.5-5.4-.5-8.4 0-31.3 25.3-56.6 56.6-56.6 18.6 0 36.4 10.4 46.8 24.4 2.4-3.8 5.9-6.8 10-8.6-12.9-16.7-34.2-28.9-56.8-28.9-38.4 0-69.6 31.1-69.6 69.6 0 2.3.1 4.5.4 6.7-27.4.1-49.4 22.2-49.4 49.6 0 27.5 22.2 49.6 49.6 49.6h82.7c-.8-2-1.1-4.2-1.1-6.5z"/></g><defs ><path id="B" d="M199.9 152.2c0 6.5-5.3 11.8-11.8 11.8s-11.8-5.3-11.8-11.8 5.3-11.8 11.8-11.8c6.6 0 11.8 5.3 11.8 11.8"/><path id="C" d="M261.9 92c0 6.5-5.3 11.8-11.8 11.8s-11.8-5.3-11.8-11.8 5.3-11.8 11.8-11.8 11.8 5.3 11.8 11.8"/><path id="D" d="M291.4 121.7c0 6.5-5.3 11.8-11.8 11.8s-11.8-5.3-11.8-11.8 5.3-11.8 11.8-11.8 11.8 5.2 11.8 11.8"/></defs></svg>