<svg xmlns="http://www.w3.org/2000/svg" xmlns:xlink="http://www.w3.org/1999/xlink" viewBox="0 0 360 360" xmlns:v="https://vecta.io/nano"><g fill="#fff"><path d="M214.2 257.7a18.8 18.8 0 1 1-37.6 0 18.78 18.78 0 0 1 18.8-18.8c10.6 0 18.8 8.5 18.8 18.8m49.6 48.1a18.8 18.8 0 1 1-37.6 0A18.78 18.78 0 0 1 245 287c10.5 0 18.8 8.3 18.8 18.8m0-96.6a18.8 18.8 0 1 1-37.6 0 18.78 18.78 0 0 1 18.8-18.8c10.5-.2 18.8 8.2 18.8 18.8"/><use xlink:href="#B"/><use xlink:href="#B" y="95.9"/><path d="M360 209.2a18.8 18.8 0 1 1-37.6 0 18.78 18.78 0 0 1 18.8-18.8c10.4 0 18.8 8.2 18.8 18.8m-96.2-47.4a18.8 18.8 0 1 1-37.6 0A18.78 18.78 0 0 1 245 143c10.5 0 18.8 8.5 18.8 18.8m0 95.9a18.8 18.8 0 1 1-37.6 0 18.78 18.78 0 0 1 18.8-18.8c10.5 0 18.8 8.5 18.8 18.8M313 115.8a18.8 18.8 0 1 1-37.6 0c0-10.4 8.5-18.8 18.8-18.8s18.8 8.5 18.8 18.8m0 93.4a18.8 18.8 0 1 1-37.6 0 18.78 18.78 0 0 1 18.8-18.8c10.4 0 18.8 8.2 18.8 18.8m0 96.6a18.8 18.8 0 1 1-37.6 0 18.78 18.78 0 0 1 18.8-18.8c10.4 0 18.8 8.3 18.8 18.8"/><use xlink:href="#B" x="47"/><use xlink:href="#B" x="47" y="95.9"/><path d="M209 305.8c0-3.7.5-7.2 1.6-10.4H78.8c-32.2 0-58.1-26.1-58.1-58.1s26.1-58.1 58.1-58.1c8.6 0 16.7 1.8 24.1 5.3 11.9 6.1 21.2-12.7 9.2-18.5a84.4 84.4 0 0 0-13.1-4.8c.2 0 .3-.2.5-.2-.6-4.3-.8-8.6-.8-13.4 0-49.9 40.3-90.2 90.2-90.2 29.6 0 58 16.6 74.5 38.9 3.8-6.1 9.4-10.8 15.9-13.7-20.5-26.6-54.5-46-90.5-46-61.2 0-110.9 49.5-110.9 110.9 0 3.7.2 7.2.6 10.7-43.5.1-78.5 35.3-78.5 79 0 43.8 35.4 79 79 79h131.7c-1.2-3.2-1.7-6.7-1.7-10.4h0z"/></g><defs ><path id="B" d="M313 161.8a18.78 18.78 0 1 1-37.6 0 18.78 18.78 0 0 1 18.8-18.8c10.4 0 18.8 8.5 18.8 18.8"/></defs></svg>