<svg xmlns="http://www.w3.org/2000/svg" xmlns:xlink="http://www.w3.org/1999/xlink" viewBox="0 0 396.47 455.28"><defs><style>.cls-1{isolation:isolate;}.cls-2{fill:#72d3ff;}.cls-3{fill:url(#linear-gradient);}.cls-4{fill:#32457e;}.cls-5{fill:#fff;}.cls-6{fill:#f7ea43;}.cls-7{fill:url(#linear-gradient-2);}.cls-8{fill:#eb892d;}.cls-9{fill:#ffcd6a;}.cls-10{fill:url(#linear-gradient-3);}.cls-11{fill:url(#linear-gradient-4);}.cls-12{fill:#4b525e;}.cls-13{fill:#ffe7a2;}.cls-14,.cls-21,.cls-28,.cls-38,.cls-64{mix-blend-mode:multiply;}.cls-14{fill:url(#linear-gradient-5);}.cls-15{fill:url(#linear-gradient-6);}.cls-16{fill:url(#linear-gradient-7);}.cls-17{fill:url(#linear-gradient-8);}.cls-18{fill:url(#linear-gradient-9);}.cls-19{fill:url(#linear-gradient-10);}.cls-20{fill:url(#linear-gradient-11);}.cls-22{fill:url(#linear-gradient-12);}.cls-23{fill:url(#linear-gradient-13);}.cls-24{fill:#ff4573;}.cls-25{fill:#d92f40;}.cls-26{fill:#ebe0e5;}.cls-27{fill:#3e83f8;}.cls-28{opacity:0.5;fill:url(#linear-gradient-14);}.cls-29,.cls-30{fill:url(#linear-gradient-15);}.cls-30{stroke:#fff;}.cls-30,.cls-62,.cls-70,.cls-71,.cls-72{stroke-miterlimit:10;}.cls-30,.cls-70,.cls-71,.cls-72{stroke-width:0.5px;}.cls-31{fill:url(#linear-gradient-17);}.cls-32{fill:#d6e5e2;}.cls-33{fill:url(#linear-gradient-18);}.cls-34{fill:#d43145;}.cls-35{fill:#ffd436;}.cls-36{fill:url(#linear-gradient-19);}.cls-37{fill:url(#linear-gradient-20);}.cls-38{fill:url(#linear-gradient-21);}.cls-39{fill:url(#linear-gradient-22);}.cls-40{fill:url(#linear-gradient-23);}.cls-41{fill:url(#linear-gradient-24);}.cls-42{fill:url(#linear-gradient-25);}.cls-43{fill:url(#linear-gradient-26);}.cls-44{fill:url(#linear-gradient-27);}.cls-45{fill:url(#linear-gradient-28);}.cls-46{fill:#dfdfdf;}.cls-47{fill:url(#linear-gradient-29);}.cls-48{fill:#d65092;}.cls-49{fill:url(#linear-gradient-30);}.cls-50{fill:url(#linear-gradient-31);}.cls-51{fill:url(#linear-gradient-32);}.cls-52{fill:url(#linear-gradient-33);}.cls-53{fill:url(#linear-gradient-34);}.cls-54{fill:url(#linear-gradient-35);}.cls-55{fill:url(#linear-gradient-36);}.cls-56{fill:url(#linear-gradient-37);}.cls-57{fill:url(#linear-gradient-38);}.cls-58{fill:url(#linear-gradient-39);}.cls-59{fill:url(#linear-gradient-40);}.cls-60{fill:url(#linear-gradient-41);}.cls-61{fill:url(#linear-gradient-42);}.cls-62,.cls-70,.cls-71,.cls-72{fill:none;}.cls-62{stroke:url(#linear-gradient-43);}.cls-63{fill:#ef1d68;}.cls-64{fill:#94a3c0;opacity:0.32;}.cls-65{fill:#ff5668;}.cls-66{fill:#e02d66;}.cls-67{fill:url(#linear-gradient-44);}.cls-68{fill:#6452d6;}.cls-69{fill:url(#linear-gradient-45);}.cls-70,.cls-71,.cls-72{stroke:#ff5668;}.cls-70{stroke-dasharray:2 2;}.cls-72{stroke-dasharray:2.06 2.06;}.cls-73{fill:url(#linear-gradient-46);}</style><linearGradient id="linear-gradient" x1="273.45" y1="91.82" x2="410.89" y2="288.28" gradientUnits="userSpaceOnUse"><stop offset="0" stop-color="#ffe900"/><stop offset="1" stop-color="#ff13bd"/></linearGradient><linearGradient id="linear-gradient-2" x1="115.65" y1="379.22" x2="141.12" y2="306.88" gradientUnits="userSpaceOnUse"><stop offset="0" stop-color="#ff981f"/><stop offset="0.04" stop-color="#ff9b25"/><stop offset="0.49" stop-color="#ffbb65"/><stop offset="0.83" stop-color="#ffcf8e"/><stop offset="1" stop-color="#ffd79d"/></linearGradient><linearGradient id="linear-gradient-3" x1="91.63" y1="323.24" x2="93.15" y2="389.7" gradientUnits="userSpaceOnUse"><stop offset="0" stop-color="#2c3939"/><stop offset="1" stop-color="#0a0818"/></linearGradient><linearGradient id="linear-gradient-4" x1="123.13" y1="325.46" x2="127.31" y2="395.32" xlink:href="#linear-gradient-3"/><linearGradient id="linear-gradient-5" x1="129.81" y1="375.97" x2="120.02" y2="362.09" gradientUnits="userSpaceOnUse"><stop offset="0" stop-color="#fff" stop-opacity="0"/><stop offset="0.14" stop-color="#e2e2f1" stop-opacity="0.21"/><stop offset="0.35" stop-color="#babadf" stop-opacity="0.49"/><stop offset="0.56" stop-color="#9a9bd0" stop-opacity="0.71"/><stop offset="0.74" stop-color="#8485c6" stop-opacity="0.87"/><stop offset="0.89" stop-color="#7677bf" stop-opacity="0.97"/><stop offset="1" stop-color="#7172bd"/></linearGradient><linearGradient id="linear-gradient-6" x1="-516.39" y1="222.3" x2="-415.72" y2="222.3" gradientTransform="matrix(-1, 0, 0, 1, -154.98, 0)" gradientUnits="userSpaceOnUse"><stop offset="0" stop-color="#3e83f8"/><stop offset="1" stop-color="#3e83f8"/></linearGradient><linearGradient id="linear-gradient-7" x1="-444.41" y1="218.33" x2="-427.25" y2="218.33" gradientTransform="matrix(-1, 0, 0, 1, -154.98, 0)" gradientUnits="userSpaceOnUse"><stop offset="0" stop-color="#ff6b1f"/><stop offset="0.2" stop-color="#ff8127"/><stop offset="0.53" stop-color="#ffa233"/><stop offset="0.81" stop-color="#ffb73a"/><stop offset="1" stop-color="#ffbe3d"/></linearGradient><linearGradient id="linear-gradient-8" x1="295.56" y1="89.08" x2="295.56" y2="295.7" gradientUnits="userSpaceOnUse"><stop offset="0" stop-color="#eeeff0"/><stop offset="1" stop-color="#c9ced1"/></linearGradient><linearGradient id="linear-gradient-9" x1="166.54" y1="44.01" x2="301.05" y2="44.01" xlink:href="#linear-gradient-8"/><linearGradient id="linear-gradient-10" x1="228.3" y1="28.73" x2="228.3" y2="305.17" gradientUnits="userSpaceOnUse"><stop offset="0" stop-color="#fff"/><stop offset="1" stop-color="#e4edee"/></linearGradient><linearGradient id="linear-gradient-11" x1="-148.54" y1="12.18" x2="-208.23" y2="351.3" gradientTransform="matrix(-1, 0, 0, 1, 48.46, 0)" xlink:href="#linear-gradient-6"/><linearGradient id="linear-gradient-12" x1="222.95" y1="167.22" x2="243.54" y2="344.45" gradientUnits="userSpaceOnUse"><stop offset="0" stop-color="#c8c9eb"/><stop offset="1" stop-color="#f2fff7"/></linearGradient><linearGradient id="linear-gradient-13" x1="237.45" y1="102.55" x2="137.23" y2="230.27" gradientUnits="userSpaceOnUse"><stop offset="0" stop-color="#e6e6e6"/><stop offset="1" stop-color="#fff"/></linearGradient><linearGradient id="linear-gradient-14" x1="338.31" y1="445.37" x2="340.97" y2="307.43" gradientUnits="userSpaceOnUse"><stop offset="0" stop-color="#a3aeeb"/><stop offset="0.15" stop-color="#b1bced"/><stop offset="0.72" stop-color="#e0ecf4"/><stop offset="1" stop-color="#f2fff7"/></linearGradient><linearGradient id="linear-gradient-15" x1="263.95" y1="374.57" x2="416.86" y2="319.85" xlink:href="#linear-gradient-14"/><linearGradient id="linear-gradient-17" x1="303.36" y1="355" x2="369.67" y2="323.77" gradientUnits="userSpaceOnUse"><stop offset="0" stop-color="#f2fff7"/><stop offset="1" stop-color="#fff"/></linearGradient><linearGradient id="linear-gradient-18" x1="-298.16" y1="259.36" x2="-273.47" y2="259.36" gradientTransform="matrix(-1, 0, 0, 1, -72.69, 0)" xlink:href="#linear-gradient-12"/><linearGradient id="linear-gradient-19" x1="-225.56" y1="148.1" x2="-296.52" y2="406.26" gradientTransform="matrix(-1, 0, 0, 1, -72.69, 0)" xlink:href="#linear-gradient"/><linearGradient id="linear-gradient-20" x1="-286.51" y1="269.51" x2="-261.82" y2="269.51" gradientTransform="matrix(-1, 0, 0, 1, -72.69, 0)" xlink:href="#linear-gradient-12"/><linearGradient id="linear-gradient-21" x1="-261.19" y1="366.72" x2="-280.7" y2="339.07" gradientTransform="matrix(-1, 0, 0, 1, -72.69, 0)" xlink:href="#linear-gradient-5"/><linearGradient id="linear-gradient-22" x1="120.03" y1="252.38" x2="135.78" y2="252.38" gradientTransform="matrix(1, 0, 0, 1, 0, 0)" xlink:href="#linear-gradient-6"/><linearGradient id="linear-gradient-23" x1="82.38" y1="274.93" x2="135.78" y2="274.93" gradientTransform="matrix(1, 0, 0, 1, 0, 0)" xlink:href="#linear-gradient-6"/><linearGradient id="linear-gradient-24" x1="102.8" y1="293.51" x2="135.77" y2="293.51" gradientUnits="userSpaceOnUse"><stop offset="0" stop-color="#3e83f8"/><stop offset="1" stop-color="#3e83f8" stop-opacity="0.5"/></linearGradient><linearGradient id="linear-gradient-25" x1="90.06" y1="284.92" x2="135.78" y2="284.92" gradientUnits="userSpaceOnUse"><stop offset="0" stop-color="#3e83f8"/><stop offset="1" stop-color="#3e83f8" stop-opacity="0.8"/></linearGradient><linearGradient id="linear-gradient-26" x1="80.87" y1="137.85" x2="87.79" y2="210.56" xlink:href="#linear-gradient-10"/><linearGradient id="linear-gradient-27" x1="40.95" y1="244.43" x2="68.22" y2="244.43" gradientUnits="userSpaceOnUse"><stop offset="0" stop-color="#8da7ff"/><stop offset="1" stop-color="aqua"/></linearGradient><linearGradient id="linear-gradient-28" x1="63.95" y1="236.43" x2="78.29" y2="236.43" xlink:href="#linear-gradient-27"/><linearGradient id="linear-gradient-29" x1="76.87" y1="203.75" x2="61.11" y2="300.97" xlink:href="#linear-gradient"/><linearGradient id="linear-gradient-30" x1="100.1" y1="222.88" x2="88.75" y2="275.7" xlink:href="#linear-gradient"/><linearGradient id="linear-gradient-31" x1="317.54" y1="322.9" x2="327.65" y2="322.9" gradientUnits="userSpaceOnUse"><stop offset="0" stop-color="#1ae5ff"/><stop offset="1" stop-color="#00a5ff"/></linearGradient><linearGradient id="linear-gradient-32" x1="308.93" y1="313.56" x2="327.65" y2="313.56" xlink:href="#linear-gradient-31"/><linearGradient id="linear-gradient-33" x1="308.88" y1="323.31" x2="317.58" y2="323.31" xlink:href="#linear-gradient-31"/><linearGradient id="linear-gradient-34" x1="335.32" y1="306.53" x2="335.32" y2="342.89" xlink:href="#linear-gradient"/><linearGradient id="linear-gradient-35" x1="330.6" y1="311.53" x2="340.96" y2="328.95" xlink:href="#linear-gradient"/><linearGradient id="linear-gradient-36" x1="325.95" y1="293.05" x2="325.95" y2="343.96" xlink:href="#linear-gradient"/><linearGradient id="linear-gradient-37" x1="342.96" y1="327.93" x2="353.12" y2="327.93" gradientUnits="userSpaceOnUse"><stop offset="0" stop-color="#009ee0"/><stop offset="1" stop-color="#bdf7a3"/></linearGradient><linearGradient id="linear-gradient-38" x1="334.4" y1="309.42" x2="353.12" y2="309.42" xlink:href="#linear-gradient-37"/><linearGradient id="linear-gradient-39" x1="338.68" y1="303.35" x2="338.68" y2="342.83" xlink:href="#linear-gradient-37"/><linearGradient id="linear-gradient-40" x1="360.77" y1="371.51" x2="360.77" y2="273.55" gradientTransform="matrix(1, 0, 0, 1, 0, 0)" xlink:href="#linear-gradient-7"/><linearGradient id="linear-gradient-41" x1="347.14" y1="303.9" x2="365.87" y2="303.9" gradientTransform="matrix(1, 0, 0, 1, 0, 0)" xlink:href="#linear-gradient-7"/><linearGradient id="linear-gradient-42" x1="351.4" y1="321.53" x2="351.4" y2="264.63" gradientTransform="matrix(1, 0, 0, 1, 0, 0)" xlink:href="#linear-gradient-7"/><linearGradient id="linear-gradient-43" x1="114.65" y1="388.16" x2="173.91" y2="388.16" gradientUnits="userSpaceOnUse"><stop offset="0" stop-color="#ff13bd"/><stop offset="1" stop-color="#ffe900"/></linearGradient><linearGradient id="linear-gradient-44" x1="155.63" y1="388.5" x2="222.59" y2="388.5" xlink:href="#linear-gradient"/><linearGradient id="linear-gradient-45" x1="196.35" y1="473.13" x2="193.76" y2="416.63" gradientTransform="matrix(1, 0, 0, 1, 0, 0)" xlink:href="#linear-gradient-6"/><linearGradient id="linear-gradient-46" x1="6.75" y1="264.86" x2="21.55" y2="330.19" gradientUnits="userSpaceOnUse"><stop offset="0" stop-color="#3e83f8" stop-opacity="0.6"/><stop offset="1" stop-color="#3e83f8"/></linearGradient></defs><g class="cls-1"><g id="Layer_2" data-name="Layer 2"><g id="Layer_1-2" data-name="Layer 1"><path class="cls-2" d="M292,126.63a2.83,2.83,0,0,1,2.77.26l92.7,51.79a8.31,8.31,0,0,1,3.9,6.52l-.17,56.72a2.63,2.63,0,0,1-1.14,2.43l-1.48.83a2.63,2.63,0,0,0,1.14-2.43L389.9,186a8.31,8.31,0,0,0-3.9-6.53l-92.7-51.79a2.83,2.83,0,0,0-2.77-.26Z"/><path class="cls-3" d="M293.3,127.72c-2.15-1.2-3.9-.24-3.91,2.16l-.17,56.72a8.28,8.28,0,0,0,3.89,6.53l92.7,51.79c2.15,1.2,3.91.23,3.92-2.17L389.9,186a8.31,8.31,0,0,0-3.9-6.53Z"/><polygon class="cls-4" points="389.85 203.07 289.34 146.92 289.36 141.12 389.87 197.28 389.85 203.07"/><polygon class="cls-5" points="351.32 203.96 351.32 205.07 379.66 220.91 379.66 219.8 351.32 203.96"/><polygon class="cls-5" points="355.27 209.84 379.66 223.46 379.66 224.57 355.27 210.95 355.27 209.84"/><polygon class="cls-5" points="361.04 217.52 379.66 227.93 379.66 229.04 361.04 218.63 361.04 217.52"/><path class="cls-6" d="M301.94,172.63c-.64-.36-1.16-.07-1.16.63l0,8.6a2.4,2.4,0,0,0,1.15,1.91l14.83,8.29c.63.35,1.14.07,1.14-.63l0-8.6a2.42,2.42,0,0,0-1.14-1.91Z"/><g class="cls-1"><polygon class="cls-7" points="138.69 334.2 138.61 362.38 108.41 379.36 108.49 351.19 138.69 334.2"/><polygon class="cls-8" points="108.49 351.19 108.41 379.36 78.01 362.38 78.09 334.2 108.49 351.19"/><polygon class="cls-9" points="138.69 334.2 108.49 351.19 78.09 334.2 108.29 317.22 138.69 334.2"/></g><polygon class="cls-10" points="90.68 369.46 94.02 371.32 94.1 343.15 90.76 341.28 90.68 369.46"/><polygon class="cls-11" points="123.33 370.97 126.67 369.1 126.58 341.01 123.25 342.89 123.33 370.97"/><polygon class="cls-12" points="94.15 343.18 124.36 326.19 121.02 324.33 90.82 341.31 94.15 343.18"/><polygon class="cls-12" points="123.24 342.86 93.04 325.88 96.38 324.01 126.58 341 123.24 342.86"/><polygon class="cls-13" points="111.47 353.24 111.48 357.97 119.09 353.72 119.08 348.99 111.47 353.24"/><polygon class="cls-14" points="108.17 379.22 116.63 383.98 147.32 366.83 138.86 362.08 108.17 379.22"/><path class="cls-2" d="M263.52,162.61a2.85,2.85,0,0,1,2.78.26L359,214.66a8.26,8.26,0,0,1,3.9,6.53l-.16,56.71a2.64,2.64,0,0,1-1.15,2.43l-1.48.83a2.61,2.61,0,0,0,1.15-2.43l.16-56.71a8.23,8.23,0,0,0-3.9-6.52l-92.69-51.79a2.83,2.83,0,0,0-2.78-.27Z"/><path class="cls-15" d="M264.82,163.71c-2.16-1.21-3.91-.25-3.92,2.15l-.16,56.72a8.25,8.25,0,0,0,3.89,6.53l92.69,51.79c2.16,1.2,3.92.23,3.93-2.17l.16-56.71a8.23,8.23,0,0,0-3.9-6.52Z"/><polygon class="cls-4" points="361.36 239.06 260.86 182.9 260.87 177.1 361.38 233.26 361.36 239.06"/><polygon class="cls-5" points="322.83 239.94 322.83 241.05 351.17 256.89 351.17 255.78 322.83 239.94"/><polygon class="cls-5" points="326.78 245.82 351.17 259.44 351.17 260.55 326.78 246.93 326.78 245.82"/><polygon class="cls-5" points="332.55 253.5 351.17 263.91 351.17 265.02 332.55 254.62 332.55 253.5"/><path class="cls-16" d="M273.45,208.61c-.64-.36-1.15-.06-1.15.64l0,8.59a2.41,2.41,0,0,0,1.15,1.91L288.26,228c.63.36,1.14.07,1.14-.63l0-8.6a2.39,2.39,0,0,0-1.13-1.91Z"/><path class="cls-17" d="M294.48,353.45,295.14,88l5.91-3.33-.65,265.42c0,4.6-1.71,7.85-4.42,9.37l-5.92,3.33C292.78,361.29,294.47,358.05,294.48,353.45Z"/><path class="cls-18" d="M172.46,1C175.21-.56,179-.34,183.23,2L286,59.4c8.35,4.67,15.12,16,15.09,25.3L295.14,88c0-9.28-6.75-20.64-15.1-25.3L177.31,5.33c-4.2-2.35-8-2.56-10.77-1Z"/><path class="cls-19" d="M177.31,5.33c-8.35-4.66-15.16-.9-15.19,8.38l-.66,265.42c0,9.27,6.75,20.62,15.09,25.28l102.74,57.4c8.35,4.66,15.16.91,15.19-8.36L295.14,88c0-9.28-6.75-20.64-15.1-25.3Z"/><path class="cls-20" d="M176.05,13c-4.25-2.37-7.71-.47-7.72,4.26l-.66,265.41c0,4.73,3.42,10.48,7.67,12.86l102.73,57.39c4.25,2.38,7.7.47,7.72-4.25l.66-265.42c0-4.72-3.42-10.48-7.67-12.85l-16.46-9.2L259.56,66c-1.24,2.17-3.84,2.55-6.69,1l-51-28.48a15.87,15.87,0,0,1-6.66-8.41l-2.73-7.9Z"/><g class="cls-21"><path class="cls-22" d="M167.52,170.19,266.73,226a3,3,0,0,0,4.57-2.54l.34-117.25L167.82,47.83Z"/></g><path class="cls-23" d="M262,113.13l-.34,117.24a3,3,0,0,1-4.56,2.54L155.88,176.34a8,8,0,0,1-4.17-7l.34-117.65Z"/><polygon class="cls-24" points="159.14 55.48 144.7 63.6 131.8 56.4 146.24 48.27 159.14 55.48"/><polygon class="cls-24" points="184.95 69.9 170.51 78.02 157.61 70.81 172.05 62.7 184.95 69.9"/><polygon class="cls-5" points="249.48 105.95 235.04 114.08 222.13 106.86 236.57 98.74 249.48 105.95"/><polygon class="cls-24" points="262.38 113.17 247.94 121.29 235.04 114.08 249.48 105.95 262.38 113.17"/><polygon class="cls-24" points="210.76 84.32 196.32 92.44 183.42 85.23 197.86 77.11 210.76 84.32"/><polygon class="cls-5" points="223.67 91.53 209.23 99.66 196.32 92.44 210.76 84.32 223.67 91.53"/><polygon class="cls-24" points="236.57 98.74 222.13 106.86 209.23 99.66 223.67 91.53 236.57 98.74"/><polygon class="cls-5" points="197.86 77.11 183.42 85.23 170.51 78.02 184.95 69.9 197.86 77.11"/><polygon class="cls-5" points="172.05 62.7 157.61 70.81 144.7 63.6 159.14 55.48 172.05 62.7"/><path class="cls-25" d="M144.68,63.58V66.1c0,4-2.91,5.56-6.48,3.57a13.61,13.61,0,0,1-6.42-10.78V56.37Z"/><path class="cls-25" d="M170.49,78v2.52c0,4-2.91,5.56-6.48,3.57a13.65,13.65,0,0,1-6.43-10.78V70.79Z"/><path class="cls-26" d="M157.59,70.79v2.52c0,4-2.9,5.56-6.47,3.57a13.63,13.63,0,0,1-6.43-10.78V63.58Z"/><path class="cls-25" d="M196.3,92.42v2.52c0,4-2.9,5.56-6.46,3.57a13.64,13.64,0,0,1-6.44-10.78V85.21Z"/><path class="cls-26" d="M183.4,85.21v2.52c0,4-2.91,5.56-6.47,3.57a13.6,13.6,0,0,1-6.43-10.78V78Z"/><path class="cls-25" d="M222.11,106.84v2.52c0,4-2.9,5.56-6.46,3.57a13.64,13.64,0,0,1-6.44-10.78V99.63Z"/><path class="cls-26" d="M209.21,99.63v2.52c0,4-2.91,5.56-6.47,3.57a13.66,13.66,0,0,1-6.44-10.78V92.42Z"/><path class="cls-26" d="M235,114.05v2.52c0,4-2.91,5.56-6.47,3.57a13.66,13.66,0,0,1-6.44-10.78v-2.52Z"/><path class="cls-25" d="M247.93,121.26v2.52c0,4-2.92,5.56-6.48,3.57A13.65,13.65,0,0,1,235,116.57v-2.52Z"/><path class="cls-27" d="M241.05,135.93a13.55,13.55,0,0,1,6.38,10.69c0,3.93-2.89,5.52-6.42,3.55l-74.76-41.78a13.52,13.52,0,0,1-6.39-10.69c0-3.92,2.89-5.52,6.43-3.54Z"/><path class="cls-28" d="M393.61,379.09c3.46,1.93,3.48,5.06.05,7l-47.72,26.84a14.17,14.17,0,0,1-12.48,0l-48-26.83c-3.46-1.94-3.48-5.07,0-7l47.71-26.84a14.16,14.16,0,0,1,12.49,0Z"/><g class="cls-1"><path class="cls-29" d="M393.66,341.47,345.94,368.3a14.17,14.17,0,0,1-12.48,0l-48-26.83c-1.74-1-2.61-2.25-2.61-3.53l-.08,6.69c0,1.27.87,2.55,2.61,3.53l48,26.83a14.17,14.17,0,0,0,12.48,0l47.72-26.84c1.71-1,2.56-2.21,2.56-3.47l.09-6.69C396.22,339.25,395.36,340.51,393.66,341.47Z"/><path class="cls-30" d="M393.66,341.47,345.94,368.3a14.17,14.17,0,0,1-12.48,0l-48-26.83c-1.74-1-2.61-2.25-2.61-3.53l-.08,6.69c0,1.27.87,2.55,2.61,3.53l48,26.83a14.17,14.17,0,0,0,12.48,0l47.72-26.84c1.71-1,2.56-2.21,2.56-3.47l.09-6.69C396.22,339.25,395.36,340.51,393.66,341.47Z"/><path class="cls-31" d="M393.61,334.47c3.46,1.93,3.48,5.06.05,7L345.94,368.3a14.17,14.17,0,0,1-12.48,0l-48-26.83c-3.46-1.94-3.48-5.07,0-7l47.71-26.84a14.16,14.16,0,0,1,12.49,0Z"/></g><path class="cls-5" d="M237,158a6.32,6.32,0,0,1,3,5l-.13,43.55c0,1.83-1.34,2.58-3,1.66l-24.49-13.68a6.34,6.34,0,0,1-3-5l.12-43.56c0-1.84,1.36-2.58,3-1.65Z"/><path class="cls-5" d="M199.77,137.7a6.32,6.32,0,0,1,3,5l-.3,14c0,1.83-1.34,2.58-3,1.65L175,144.67a6.35,6.35,0,0,1-3-5l.3-14c0-1.84,1.35-2.58,3-1.66Z"/><path class="cls-32" d="M199.77,167a6.31,6.31,0,0,1,3,5l-.3,14c0,1.83-1.34,2.58-3,1.65L175,174a6.32,6.32,0,0,1-3-5l.3-14c0-1.84,1.35-2.58,3-1.66Z"/><path class="cls-33" d="M213.18,245.41c-6.8-3.8-12.35-.74-12.38,6.82l0,8.23a2.23,2.23,0,0,0,1,1.74c.57.32,1,.06,1-.58l0-8.23c0-6.29,4.62-8.84,10.28-5.68s10.25,10.85,10.23,17.14l0,8.23a2.21,2.21,0,0,0,1,1.74c.57.32,1,.06,1-.58l0-8.23C225.49,258.45,220,249.21,213.18,245.41Z"/><g class="cls-1"><polygon class="cls-34" points="231.28 373.38 244.43 365.98 239.72 280.47 226.57 287.86 231.28 373.38"/><polygon class="cls-25" points="226.57 287.86 239.72 280.47 188.44 251.82 175.3 259.21 226.57 287.86"/><polygon class="cls-35" points="230.24 285.8 226.57 287.86 184.78 264.51 188.44 262.45 230.24 285.8"/><polygon class="cls-36" points="175.3 259.21 170.1 339.19 231.28 373.38 226.57 287.86 175.3 259.21"/></g><path class="cls-37" d="M201.52,255.56c-6.8-3.8-12.35-.74-12.37,6.82l0,8.23a2.23,2.23,0,0,0,1,1.74c.58.32,1.05.06,1.05-.58l0-8.22c0-6.3,4.63-8.85,10.29-5.69s10.24,10.85,10.22,17.15l0,8.22a2.18,2.18,0,0,0,1,1.74c.57.32,1,.06,1-.58l0-8.23C213.84,268.6,208.33,259.36,201.52,255.56Z"/><polygon class="cls-38" points="231.62 373.2 214.77 382.68 153.64 348.52 170.49 339.05 231.62 373.2"/><path class="cls-39" d="M120,254.47v2.44a1.94,1.94,0,0,0,2.89,1.62l11.9-6.63a1.88,1.88,0,0,0,1-1.62v-2.43a1.93,1.93,0,0,0-2.89-1.62L121,252.86A1.84,1.84,0,0,0,120,254.47Z"/><path class="cls-40" d="M82.38,287.45v2.44a1.93,1.93,0,0,0,2.88,1.62L134.81,264a1.85,1.85,0,0,0,1-1.62V260a1.93,1.93,0,0,0-2.89-1.62L83.35,285.83A1.85,1.85,0,0,0,82.38,287.45Z"/><path class="cls-41" d="M102.8,300.37v2.44a1.93,1.93,0,0,0,2.89,1.62l29.11-16.16a1.85,1.85,0,0,0,1-1.61v-2.45a1.92,1.92,0,0,0-2.88-1.61l-29.12,16.15A1.85,1.85,0,0,0,102.8,300.37Z"/><path class="cls-42" d="M90.06,295.31v2.44a1.92,1.92,0,0,0,2.88,1.62l41.87-23.22a1.85,1.85,0,0,0,1-1.62v-2.44a1.93,1.93,0,0,0-2.89-1.62L91,293.69A1.86,1.86,0,0,0,90.06,295.31Z"/><polygon class="cls-43" points="137.38 194.49 40.95 248.36 40.98 255.73 137.38 201.87 137.38 194.49"/><polygon class="cls-44" points="68.22 233.13 40.95 248.36 40.98 255.73 68.22 240.51 68.22 233.13"/><g class="cls-1"><path class="cls-4" d="M75,227.28c-1.3-.73-3.11-.63-5.1.48-4,2.21-7.16,7.58-7.15,12,0,2.19.81,3.73,2.09,4.45l1.24.7c-1.28-.73-2.08-2.26-2.09-4.45,0-4.4,3.19-9.77,7.15-12,2-1.11,3.79-1.22,5.1-.48Z"/><path class="cls-45" d="M71.1,228.46c4-2.21,7.18-.43,7.19,4s-3.19,9.76-7.15,12-7.17.43-7.19-4S67.14,230.67,71.1,228.46Z"/></g><polygon class="cls-46" points="137.38 218.36 40.95 272.24 40.98 279.61 137.38 225.75 137.38 218.36"/><polygon class="cls-47" points="94.2 242.49 40.95 272.24 40.98 279.61 94.2 249.87 94.2 242.49"/><g class="cls-1"><path class="cls-48" d="M98.7,238.13c-1.31-.73-3.11-.63-5.1.49-4,2.21-7.16,7.57-7.15,12,0,2.18.81,3.72,2.09,4.44l1.24.7c-1.28-.72-2.08-2.26-2.09-4.45,0-4.4,3.19-9.77,7.15-12,2-1.11,3.79-1.21,5.1-.48Z"/><path class="cls-49" d="M94.84,239.31c4-2.21,7.18-.43,7.19,4s-3.19,9.77-7.15,12-7.18.43-7.19-4S90.88,241.52,94.84,239.31Z"/></g><g class="cls-1"><polygon class="cls-50" points="317.58 318.81 327.65 313.15 327.61 326.98 317.54 332.64 317.58 318.81"/><polygon class="cls-51" points="308.93 313.98 319 308.31 327.65 313.15 317.58 318.81 308.93 313.98"/><polygon class="cls-52" points="317.58 318.81 317.54 332.64 308.88 327.81 308.93 313.98 317.58 318.81"/></g><g class="cls-1"><polygon class="cls-53" points="330.31 317.5 340.38 311.83 340.32 334.08 330.25 339.74 330.31 317.5"/><polygon class="cls-54" points="321.66 312.66 331.73 307 340.38 311.83 330.31 317.5 321.66 312.66"/><polygon class="cls-55" points="330.31 317.5 330.25 339.74 321.6 334.91 321.66 312.66 330.31 317.5"/></g><g class="cls-1"><polygon class="cls-56" points="343.05 314.67 353.12 309.01 353.03 341.18 342.96 346.85 343.05 314.67"/><polygon class="cls-57" points="334.4 309.84 344.47 304.17 353.12 309.01 343.05 314.67 334.4 309.84"/><polygon class="cls-58" points="343.05 314.67 342.96 346.85 334.3 342.01 334.4 309.84 343.05 314.67"/></g><g class="cls-1"><polygon class="cls-59" points="355.8 309.14 365.87 303.48 365.74 348.28 355.66 353.94 355.8 309.14"/><polygon class="cls-60" points="347.14 304.31 357.22 298.65 365.87 303.48 355.8 309.14 347.14 304.31"/><polygon class="cls-61" points="355.8 309.14 355.66 353.94 347.01 349.11 347.14 304.31 355.8 309.14"/></g><path class="cls-62" d="M173.66,388.54l-13.9-8.07a14.3,14.3,0,0,0-14.21-.06l-30.66,17.42"/><path class="cls-63" d="M66.43,433.23c0,.86-.78,1.8-2.29,2.68a20.2,20.2,0,0,1-1.93,1l-8-4.6a16.36,16.36,0,0,1,2-1.35,8.49,8.49,0,0,1,4.17-1.25,7.6,7.6,0,0,1,4,1.05C65.72,431.52,66.41,432.38,66.43,433.23Zm-4,2.63a7.32,7.32,0,0,0,1.07-.55c2.16-1.26,2.07-2.66-.12-3.92l0,0a6,6,0,0,0-6.25.05,5.89,5.89,0,0,0-1.07.75l6.4,3.69"/><polygon class="cls-63" points="70.95 431.87 69.95 432.45 61.83 427.76 62.84 427.18 70.95 431.87"/><path class="cls-63" d="M106.19,411.39l-1,.59L98.58,411c-1.45-.2-2.89-.44-4.17-.72l0,0c1.08.56,2.08,1.11,3.43,1.89l3.46,2-1,.55-8.11-4.68,1.1-.64,6.6.91c1.53.22,2.84.45,4,.71v0c-1.17-.57-2.18-1.13-3.45-1.86l-3.39-2,1-.55Z"/><path class="cls-63" d="M95.2,413.85c2.5,1.44,2.26,2.76.57,3.75s-3.75,1.07-6.26-.38l-4.78-2.76,1-.59,4.81,2.78c1.81,1,3.36,1,4.4.43s1.11-1.56-.69-2.59l-4.8-2.78,1-.59Z"/><g class="cls-1"><path class="cls-63" d="M87.41,417.51c2.79,1.61,2.64,3.41.65,4.57a8,8,0,0,1-7.63-.34c-2.57-1.48-2.72-3.35-.63-4.56A7.88,7.88,0,0,1,87.41,417.51Zm-5.93,3.59c1.74,1,4.19,1.37,5.78.45s1-2.33-.87-3.4c-1.62-.93-4.11-1.43-5.78-.45s-.91,2.37.87,3.4"/><path class="cls-63" d="M76,419.8l.61.64a6.21,6.21,0,0,0-1.91.72c-1.83,1.06-1.83,2.47.3,3.7a6.24,6.24,0,0,0,6.26.14,3.64,3.64,0,0,0,1.31-1.15l1,.36a4.57,4.57,0,0,1-1.68,1.42,8,8,0,0,1-8-.13c-2.54-1.47-2.61-3.42-.19-4.83A7.56,7.56,0,0,1,76,419.8Z"/><path class="cls-63" d="M74.82,427.05c1.25.72,1.45,1.87-.39,2.94a7.5,7.5,0,0,1-2.51.86l-.62-.66a6.74,6.74,0,0,0,2.33-.74c1-.6,1.07-1.28.24-1.75s-1.6-.45-3.07-.08c-1.75.47-3.22.53-4.36-.13s-1.2-1.86.32-2.74a6.2,6.2,0,0,1,2.12-.77l.58.65a5.83,5.83,0,0,0-1.88.64c-1.06.62-.8,1.24-.25,1.56.76.44,1.61.38,3.12,0C72.3,426.37,73.64,426.36,74.82,427.05Z"/></g><polygon class="cls-63" points="105.61 403.36 103.22 404.75 110.44 408.92 109.43 409.51 102.21 405.34 99.83 406.71 98.94 406.2 104.71 402.84 105.61 403.36"/><ellipse class="cls-64" cx="193.39" cy="424.59" rx="56.87" ry="30.69"/><polygon class="cls-65" points="222.59 383.64 222.57 389.94 193.03 406.55 193.05 400.25 222.59 383.64"/><polygon class="cls-66" points="193.05 400.25 193.03 406.55 155.62 395.88 155.63 389.58 193.05 400.25"/><path class="cls-67" d="M222.59,383.64l-29.54,16.61-37.42-10.67C166.08,378,191.29,373.42,212,379.32A46.86,46.86,0,0,1,222.59,383.64Z"/><path class="cls-68" d="M244.28,413.09c-.47,8.21-6.94,14.43-13.75,18.53-7.42,4.48-16.17,6.91-24.77,8.08a90.1,90.1,0,0,1-25.72-.26c-8.54-1.33-17.08-4-24.37-8.59-6.62-4.18-12.9-10.61-12.88-18.74,0,1.71,0,3.42,0,5.13a27.3,27.3,0,0,0,.32,5.71c1.39,6.73,6.84,11.91,12.57,15.52A64,64,0,0,0,179.5,447a89.22,89.22,0,0,0,25.54.43,67.32,67.32,0,0,0,24.74-7.72c6.72-3.83,13.21-9.75,14.34-17.58a38.93,38.93,0,0,0,.19-5.29v-4.58C244.32,412.52,244.3,412.81,244.28,413.09Z"/><path class="cls-69" d="M229.36,392c19.86,11.1,20,29.09.23,40.18s-51.81,11.09-71.67,0c-15.88-8.88-19.61-21.8-9.51-33l45.23,12.9Z"/><g class="cls-1"><polygon class="cls-70" points="144.58 331.47 144.48 365.11 108.42 385.39 108.52 351.75 144.58 331.47"/><polygon class="cls-70" points="108.52 351.75 108.42 385.39 72.12 365.11 72.22 331.47 108.52 351.75"/><polygon class="cls-70" points="144.58 331.47 108.52 351.75 72.22 331.47 108.28 311.19 144.58 331.47"/></g><line class="cls-71" x1="12.79" y1="319.48" x2="12.79" y2="320.48"/><line class="cls-72" x1="12.79" y1="322.54" x2="12.79" y2="362.72"/><line class="cls-71" x1="12.79" y1="363.75" x2="12.79" y2="364.75"/><path class="cls-71" d="M22.08,360.6c-5-2.8-13.14-2.8-18.13,0-2.29,1.28-3.52,2.94-3.7,4.63.18,1.7,1.44,3.37,3.76,4.67,5,2.8,13.14,2.8,18.13,0,2.29-1.29,3.52-3,3.7-4.63C25.65,363.58,24.4,361.9,22.08,360.6Z"/><path class="cls-65" d="M15.41,364a5.42,5.42,0,0,0-4.75,0,1.68,1.68,0,0,0-1,1.21,1.66,1.66,0,0,0,1,1.22,5.34,5.34,0,0,0,4.74,0,1.68,1.68,0,0,0,1-1.21A1.7,1.7,0,0,0,15.41,364Z"/><path class="cls-73" d="M23.5,291.32A10.48,10.48,0,0,0,12.86,281a10.48,10.48,0,0,0-10.65,10.3S1.67,300.7,12,314.49a1.05,1.05,0,0,0,1.66,0C24,300.88,23.5,291.32,23.5,291.32Zm-10.64,4.54a4.54,4.54,0,1,1,0-9.08,4.54,4.54,0,1,1,0,9.08Z"/><line class="cls-70" x1="72.12" y1="365.11" x2="23.14" y2="365.11"/></g></g></g></svg>