<?xml version="1.0" encoding="UTF-8" standalone="no"?><!DOCTYPE svg PUBLIC "-//W3C//DTD SVG 1.1//EN" "http://www.w3.org/Graphics/SVG/1.1/DTD/svg11.dtd"><svg width="100%" height="100%" viewBox="0 0 936 323" version="1.1" xmlns="http://www.w3.org/2000/svg" xmlns:xlink="http://www.w3.org/1999/xlink" xml:space="preserve" xmlns:serif="http://www.serif.com/" style="fill-rule:evenodd;clip-rule:evenodd;stroke-linejoin:round;stroke-miterlimit:2;"><rect id="Artboard1" x="0" y="0" width="935.362" height="322.62" style="fill:none;"/><clipPath id="_clip1"><rect x="0" y="0" width="935.362" height="322.62"/></clipPath><g clip-path="url(#_clip1)"><g id="layer1"><g id="g3464"><path id="path3466" d="M168.911,161.684c-0,-36.182 -24.007,-56.734 -57.994,-56.734l-20.801,-0l0,113.507l20.21,-0c31.601,-0 58.585,-17.175 58.585,-56.773m370.004,40.838l-153.238,120.663l-140.052,-110.263c-20.209,48.548 -69.043,82.268 -125.281,82.268l-119.861,0l-0,-267.012l119.861,0c62.841,0 108.126,39.96 125.243,82.535l140.09,-110.148l51.887,40.838l-128.392,100.912l24.675,19.312l128.353,-100.855l51.964,40.724l-128.373,101.026l24.637,19.35l128.487,-101.045l-0,-92.649l93.145,0l-0,189.076l92.916,0l-0,78.261l-186.061,-0l-0,-92.993Zm304.052,14.771l92.878,-0l0,78.222l-186.118,-0l-0,-267.337l93.24,0l0,189.115Z" style="fill:#007db8;fill-rule:nonzero;"/></g></g></g></svg>