<?xml version="1.0" encoding="UTF-8" standalone="no"?>
<!DOCTYPE svg PUBLIC "-//W3C//DTD SVG 1.1//EN" "http://www.w3.org/Graphics/SVG/1.1/DTD/svg11.dtd">
<svg width="100%" height="100%" viewBox="0 0 800 150" version="1.1" xmlns="http://www.w3.org/2000/svg" xmlns:xlink="http://www.w3.org/1999/xlink" xml:space="preserve" xmlns:serif="http://www.serif.com/" style="fill-rule:evenodd;clip-rule:evenodd;stroke-linejoin:round;stroke-miterlimit:2;">
    <g transform="matrix(1.14366,0,0,1.14366,-52.7872,-80.99)">
        <path d="M172.9,195.7C183.8,195.7 187.8,191 187.8,179.5L187.8,157.1C187.8,146.4 193,140.3 198,137.4C199.5,136.5 199.5,134.4 198,133.4C192.8,130.1 187.8,123.2 187.8,114L187.8,92C187.8,79.6 184.4,76 173.5,76L75.6,76C64.7,76 61.3,79.6 61.3,92L61.3,114C61.3,123.2 56.3,130.1 51.1,133.4C49.6,134.3 49.6,136.5 51.1,137.4C56.1,140.2 61.3,146.3 61.3,157.1L61.3,179.5C61.3,191 65.3,195.7 76.2,195.7L172.9,195.7ZM124.3,175.2C112.6,175.2 104.1,171.7 96.2,164.8C94.9,163.6 94.4,162.1 94.4,160.6C94.4,159.4 94.7,158.1 95.6,157.1L98,154C99.2,152.5 100.5,151.8 102,151.8C103.7,151.8 105.3,152.5 107,153.6C112.4,157.1 118.4,159.1 125.6,159.1C131.1,159.1 135.5,156.8 135.5,152.1C135.5,139.9 94.9,146.6 94.9,119.2C94.9,104.5 106.9,96.3 122.5,96.3C133.5,96.3 141.6,99.5 147.6,103.3C149.1,104.3 150.1,106.3 150.1,108.3C150.1,109.5 149.8,110.6 149.1,111.6L147.3,114.3C146,116.1 144.5,117 142.6,117C141.3,117 139.9,116.5 138.4,115.8C133.9,113.5 129.2,112.3 123.5,112.3C117.6,112.3 114.1,115.5 114.1,118.8C114.1,131.3 154.7,124.5 154.7,151.1C154.7,166 142.7,175.2 124.3,175.2Z" style="fill:url(#_Linear1);fill-rule:nonzero;"/>
    </g>
    <g transform="matrix(1.14366,0,0,1.14366,-52.7872,-80.99)">
        <path d="M242.2,157.4C243.2,156.1 244.3,155.6 245.6,155.6C246.9,155.6 248.5,156.2 249.8,157.2C254.3,160.2 259.4,161.9 265.5,161.9C270.2,161.9 273.9,160 273.9,155.9C273.9,145.6 239.6,151.2 239.6,128.2C239.6,115.8 249.8,108.8 262.9,108.8C272.2,108.8 279,111.4 284.1,114.8C285.4,115.6 286.2,117.3 286.2,119C286.2,120 286,120.9 285.4,121.9L283.8,124.2C282.7,125.8 281.4,126.5 279.9,126.5C278.8,126.5 277.6,126 276.3,125.5C272.5,123.6 268.5,122.5 263.8,122.5C258.9,122.5 255.9,125.1 255.9,128C255.9,138.5 290.2,132.8 290.2,155.2C290.2,167.7 280,175.5 264.5,175.5C254.6,175.5 247.4,172.5 240.8,166.8C239.7,165.8 239.2,164.5 239.2,163.2C239.2,162.2 239.4,161.1 240.2,160.2L242.2,157.4ZM340.4,164C340.9,164.7 341.1,165.6 341.1,166.4C341.1,168.2 340.3,170.1 338.7,170.9C333.9,173.8 329.1,175.1 322.8,175.1C308.5,175.1 303.1,165.8 303.1,149.5L303.1,97.9C303.1,95 305.5,92.6 308.4,92.6L314.1,92.6C317,92.6 319.4,95 319.4,97.9L319.4,110.3L334.7,110.3C337.6,110.3 340,112.7 340,115.6L340,120.4C340,123.3 337.6,125.7 334.7,125.7L319.4,125.7L319.4,148.9C319.4,155.8 321.7,160.4 327,160.4C328.7,160.4 330.2,160.2 331.5,159.7C332.8,159.2 333.8,159 334.7,159C336.5,159 337.9,159.8 339.1,161.9L340.4,164ZM350.3,155.2C350.3,141.2 360.6,134.6 373.5,134.6C379.1,134.6 384.7,136.4 387.8,138.7L387.8,136.8C387.8,127.5 384.8,122.5 376,122.5C371.2,122.5 368.1,123.2 365.1,124.2C364.3,124.4 363.4,124.7 362.6,124.7C360.5,124.7 358.8,123.7 357.8,121.7L357,120C356.8,119.3 356.4,118.6 356.4,117.7C356.4,115.9 357.7,114 359.4,113.2C364.9,110.7 371.2,109 377.7,109C396.5,109 403,118.6 403,135.4L403,168.8C403,171.7 400.6,174.1 397.7,174.1L394,174.1C391.1,174.1 388.7,171.7 388.7,168.8L388.7,166.7C385.3,171.5 378.5,174.8 369.9,174.8C358.6,174.7 350.3,167.5 350.3,155.2ZM387.8,148.6C384.9,146.5 381.3,145.5 376.7,145.5C371.3,145.5 366.5,148 366.5,153.4C366.5,158.2 370.4,160.9 375.6,160.9C382.4,160.9 385.9,157.9 387.9,155.2L387.9,148.6L387.8,148.6ZM455.6,164C456.1,164.7 456.3,165.6 456.3,166.4C456.3,168.2 455.5,170.1 453.9,170.9C449.1,173.8 444.3,175.1 438,175.1C423.7,175.1 418.3,165.8 418.3,149.5L418.3,97.9C418.3,95 420.7,92.6 423.6,92.6L429.3,92.6C432.2,92.6 434.6,95 434.6,97.9L434.6,110.3L449.9,110.3C452.8,110.3 455.2,112.7 455.2,115.6L455.2,120.4C455.2,123.3 452.8,125.7 449.9,125.7L434.6,125.7L434.6,148.9C434.6,155.8 436.9,160.4 442.2,160.4C443.9,160.4 445.4,160.2 446.7,159.7C448,159.2 449,159 449.9,159C451.7,159 453.1,159.8 454.3,161.9L455.6,164ZM465.5,155.2C465.5,141.2 475.8,134.6 488.7,134.6C494.3,134.6 499.9,136.4 503,138.7L503,136.8C503,127.5 500,122.5 491.2,122.5C486.4,122.5 483.3,123.2 480.3,124.2C479.5,124.4 478.6,124.7 477.8,124.7C475.7,124.7 474,123.7 473,121.7L472.2,120C472,119.3 471.6,118.6 471.6,117.7C471.6,115.9 472.9,114 474.6,113.2C480.1,110.7 486.4,109 492.9,109C511.7,109 518.2,118.6 518.2,135.4L518.2,168.8C518.2,171.7 515.8,174.1 512.9,174.1L509.2,174.1C506.3,174.1 503.9,171.7 503.9,168.8L503.9,166.7C500.5,171.5 493.7,174.8 485.1,174.8C473.9,174.7 465.5,167.5 465.5,155.2ZM503,148.6C500.1,146.5 496.5,145.5 491.9,145.5C486.5,145.5 481.7,148 481.7,153.4C481.7,158.2 485.6,160.9 490.8,160.9C497.6,160.9 501.1,157.9 503.1,155.2L503.1,148.6L503,148.6ZM551.2,117.3C555.7,112.3 563.2,109.2 571,109.2C580.7,109.2 587.2,113.6 589.5,119.4C594,113.4 601.1,109.2 610.9,109.2C622.5,109.2 631.2,114.9 631.2,132.4L631.2,168.6C631.2,171.5 628.8,173.9 625.9,173.9L620.2,173.9C617.3,173.9 614.9,171.5 614.9,168.6L614.9,136.5C614.9,128.6 611.7,124.3 604,124.3C597.9,124.3 593.1,127.3 590.9,131.6C590.9,132.6 591,134.8 591,136.3L591,168.4C591,171.3 588.6,173.7 585.7,173.7L580,173.7C577.1,173.7 574.7,171.3 574.7,168.4L574.7,135.4C574.7,128.7 571,124.4 564.2,124.4C558.5,124.4 553.8,126.9 550.9,131.2L550.9,168.6C550.9,171.5 548.5,173.9 545.6,173.9L539.9,173.9C537,173.9 534.6,171.5 534.6,168.6L534.6,115.5C534.6,112.6 537,110.2 539.9,110.2L545.6,110.2C548.5,110.2 550.9,112.6 550.9,115.5L550.9,117.3L551.2,117.3ZM667.9,87.4C667.9,93.9 663.2,97.6 658.6,97.6C653.1,97.6 648.4,93.9 648.4,87.4C648.4,81.7 653.1,78 658.6,78C663.2,78 667.9,81.7 667.9,87.4ZM661.1,110.3C664,110.3 666.4,112.7 666.4,115.6L666.4,168.6C666.4,171.5 664,173.9 661.1,173.9L655.4,173.9C652.5,173.9 650.1,171.5 650.1,168.6L650.1,115.5C650.1,112.6 652.5,110.2 655.4,110.2L661.1,110.2L661.1,110.3ZM729.1,126.5C725.3,124.7 722,124 717.9,124C708.8,124 700.2,130.9 700.2,142C700.2,153.2 708.9,160.2 718.5,160.2C723.5,160.2 727.1,158.9 730.8,156.5C731.9,155.8 733.1,155.4 734.2,155.4C735.9,155.4 737.4,156.1 738.6,157.5L741,160.5C741.7,161.2 742,162.3 742,163.4C742,165.1 741.3,167 740.1,167.9C732.5,174 725.8,175.4 717.9,175.4C696.9,175.4 683,162.1 683,142.1C683,123.6 696.5,108.8 715.9,108.8C724.4,108.8 730.6,110.2 736.8,113.6C738.4,114.4 739.3,116.5 739.3,118.3C739.3,119.1 739.2,119.9 738.7,120.6L736.6,124.3C735.5,126.1 733.7,127.3 731.8,127.3C731,127.1 730,127 729.1,126.5Z" style="fill:rgb(255,38,158);fill-rule:nonzero;"/>
    </g>
    <defs>
        <linearGradient id="_Linear1" x1="0" y1="0" x2="1" y2="0" gradientUnits="userSpaceOnUse" gradientTransform="matrix(50.971,140.043,-140.043,50.971,99.153,65.596)"><stop offset="0" style="stop-color:rgb(218,47,182);stop-opacity:1"/><stop offset="1" style="stop-color:rgb(254,24,118);stop-opacity:1"/></linearGradient>
    </defs>
</svg>
