<?xml version="1.0" encoding="UTF-8" standalone="no"?><!DOCTYPE svg PUBLIC "-//W3C//DTD SVG 1.1//EN" "http://www.w3.org/Graphics/SVG/1.1/DTD/svg11.dtd"><svg width="100%" height="100%" viewBox="0 0 438 200" version="1.1" xmlns="http://www.w3.org/2000/svg" xmlns:xlink="http://www.w3.org/1999/xlink" xml:space="preserve" xmlns:serif="http://www.serif.com/" style="fill-rule:evenodd;clip-rule:evenodd;stroke-linejoin:round;stroke-miterlimit:2;"><rect id="Page-1" serif:id="Page 1" x="0" y="0" width="437.5" height="200" style="fill:none;"/><g id="Page-11" serif:id="Page 1"><g id="Layer-1" serif:id="Layer 1"><path d="M127.865,149.825l-0,-9.225c-0,-1.267 -0.242,-2.463 -0.721,-3.583c-0.484,-1.13 -1.142,-2.109 -1.979,-2.942c-0.838,-0.838 -1.817,-1.5 -2.942,-1.979c-1.125,-0.484 -2.321,-0.725 -3.583,-0.725c-1.267,-0 -2.463,0.241 -3.584,0.725c-1.129,0.479 -2.108,1.141 -2.941,1.979c-0.838,0.833 -1.496,1.812 -1.98,2.942c-0.483,1.12 -0.725,2.316 -0.725,3.583l0,9.225l18.455,-0Zm9.229,18.425l-9.229,-0l-0,-9.229l-18.455,-0l0,9.229l-9.191,-0l-0,-27.65c-0,-2.55 0.479,-4.946 1.446,-7.183c0.962,-2.246 2.275,-4.196 3.937,-5.871c1.663,-1.671 3.613,-2.988 5.85,-3.954c2.242,-0.963 4.633,-1.45 7.188,-1.45c2.55,-0 4.945,0.487 7.183,1.45c2.242,0.966 4.196,2.283 5.867,3.954c1.67,1.675 2.991,3.625 3.958,5.871c0.962,2.237 1.446,4.633 1.446,7.183l-0,27.65Z" style="fill:#9ca3af;fill-rule:nonzero;"/><path d="M154.323,131.372l0,18.454l9.225,0c1.267,0 2.459,-0.241 3.571,-0.725c1.117,-0.479 2.092,-1.141 2.925,-1.979c0.838,-0.833 1.496,-1.812 1.979,-2.942c0.479,-1.12 0.721,-2.316 0.721,-3.579c0,-1.266 -0.242,-2.462 -0.721,-3.587c-0.483,-1.125 -1.141,-2.104 -1.979,-2.942c-0.833,-0.837 -1.808,-1.496 -2.925,-1.975c-1.112,-0.483 -2.304,-0.725 -3.571,-0.725l-9.225,0Zm0,36.879l-9.225,0l0,-46.108l18.45,-0c1.696,-0 3.325,0.221 4.888,0.658c1.566,0.446 3.029,1.063 4.391,1.871c1.359,0.8 2.6,1.763 3.725,2.892c1.125,1.121 2.092,2.371 2.896,3.741c0.805,1.375 1.43,2.842 1.867,4.409c0.438,1.562 0.658,3.196 0.658,4.887c0,1.588 -0.2,3.129 -0.595,4.629c-0.396,1.5 -0.967,2.921 -1.705,4.275c-0.737,1.35 -1.645,2.592 -2.716,3.73c-1.071,1.137 -2.267,2.12 -3.6,2.958l5.112,12.058l-9.808,0l-4.017,-9.296l-10.321,0.067l0,9.229Z" style="fill:#9ca3af;fill-rule:nonzero;"/><path d="M197.245,131.372l0,18.454l9.225,0c1.267,0 2.455,-0.241 3.567,-0.725c1.117,-0.479 2.092,-1.141 2.929,-1.979c0.838,-0.833 1.492,-1.812 1.975,-2.942c0.479,-1.12 0.721,-2.316 0.721,-3.579c0,-1.266 -0.242,-2.462 -0.721,-3.587c-0.483,-1.125 -1.137,-2.104 -1.975,-2.942c-0.837,-0.837 -1.812,-1.496 -2.929,-1.975c-1.112,-0.483 -2.3,-0.725 -3.567,-0.725l-9.225,0Zm0,36.879l-9.229,0l0,-46.108l18.454,-0c1.692,-0 3.325,0.221 4.888,0.658c1.562,0.446 3.025,1.063 4.387,1.871c1.363,0.8 2.605,1.763 3.73,2.892c1.125,1.121 2.087,2.371 2.891,3.741c0.809,1.375 1.429,2.842 1.871,4.409c0.438,1.562 0.658,3.196 0.658,4.887c0,1.588 -0.204,3.129 -0.6,4.629c-0.395,1.5 -0.962,2.921 -1.7,4.275c-0.745,1.35 -1.65,2.592 -2.716,3.73c-1.075,1.137 -2.275,2.12 -3.604,2.958l5.112,12.058l-9.808,0l-4.017,-9.296l-10.317,0.067l0,9.229Z" style="fill:#9ca3af;fill-rule:nonzero;"/><path d="M266.943,145.39c0,-2.013 -0.387,-3.917 -1.154,-5.704c-0.775,-1.792 -1.816,-3.346 -3.133,-4.663c-1.325,-1.32 -2.875,-2.366 -4.663,-3.133c-1.791,-0.775 -3.695,-1.162 -5.712,-1.162c-2.033,-0 -3.942,0.387 -5.721,1.162c-1.775,0.767 -3.329,1.813 -4.662,3.133c-1.325,1.317 -2.375,2.871 -3.15,4.663c-0.767,1.787 -1.155,3.691 -1.155,5.704c0,2.012 0.388,3.904 1.155,5.671c0.775,1.771 1.825,3.321 3.15,4.65c1.333,1.329 2.887,2.379 4.662,3.15c1.779,0.771 3.688,1.158 5.721,1.158c2.017,0 3.921,-0.387 5.712,-1.158c1.788,-0.771 3.338,-1.821 4.663,-3.15c1.317,-1.329 2.358,-2.879 3.133,-4.65c0.767,-1.767 1.154,-3.659 1.154,-5.671m9.163,0c-0,2.183 -0.283,4.292 -0.85,6.317c-0.571,2.025 -1.367,3.925 -2.396,5.691c-1.029,1.767 -2.271,3.379 -3.733,4.838c-1.454,1.458 -3.063,2.704 -4.821,3.746c-1.758,1.037 -3.65,1.845 -5.688,2.412c-2.037,0.567 -4.145,0.854 -6.337,0.854c-2.183,0 -4.288,-0.287 -6.313,-0.854c-2.029,-0.567 -3.925,-1.375 -5.691,-2.412c-1.767,-1.042 -3.384,-2.288 -4.842,-3.746c-1.454,-1.459 -2.7,-3.071 -3.742,-4.838c-1.037,-1.766 -1.841,-3.666 -2.412,-5.691c-0.571,-2.025 -0.85,-4.134 -0.85,-6.317c-0,-2.183 0.279,-4.296 0.85,-6.338c0.571,-2.033 1.375,-3.929 2.412,-5.687c1.042,-1.758 2.288,-3.363 3.742,-4.821c1.458,-1.458 3.075,-2.7 4.842,-3.729c1.766,-1.033 3.662,-1.829 5.691,-2.4c2.025,-0.563 4.13,-0.85 6.313,-0.85c2.192,0 4.3,0.287 6.337,0.85c2.038,0.571 3.93,1.367 5.688,2.4c1.758,1.029 3.367,2.271 4.821,3.729c1.462,1.458 2.704,3.063 3.733,4.821c1.029,1.758 1.825,3.654 2.396,5.688c0.567,2.041 0.85,4.154 0.85,6.337" style="fill:#9ca3af;fill-rule:nonzero;"/><path d="M327.897,155.066c0,1.908 -0.358,3.704 -1.075,5.387c-0.721,1.68 -1.704,3.15 -2.958,4.405c-1.254,1.25 -2.721,2.241 -4.4,2.958c-1.688,0.712 -3.479,1.071 -5.388,1.071c-1.716,-0 -3.358,-0.296 -4.937,-0.896c-1.575,-0.6 -2.996,-1.479 -4.259,-2.633c-1.262,1.154 -2.691,2.033 -4.275,2.633c-1.587,0.6 -3.237,0.896 -4.95,0.896c-1.908,-0 -3.704,-0.359 -5.383,-1.071c-1.687,-0.717 -3.154,-1.708 -4.408,-2.958c-1.254,-1.255 -2.242,-2.725 -2.959,-4.405c-0.72,-1.683 -1.079,-3.479 -1.079,-5.387l0,-32.921l9.229,-0l0,32.921c0,0.642 0.121,1.25 0.355,1.821c0.237,0.562 0.562,1.054 0.983,1.475c0.417,0.421 0.9,0.746 1.462,0.979c0.555,0.237 1.155,0.354 1.8,0.354c0.642,-0 1.246,-0.117 1.796,-0.354c0.559,-0.233 1.046,-0.559 1.467,-0.979c0.421,-0.421 0.746,-0.913 0.979,-1.475c0.238,-0.571 0.35,-1.179 0.35,-1.821l0,-32.921l9.229,-0l0,32.921c0,0.642 0.117,1.25 0.354,1.821c0.238,0.562 0.567,1.054 0.98,1.475c0.42,0.421 0.908,0.746 1.462,0.979c0.563,0.237 1.158,0.354 1.804,0.354c0.642,-0 1.238,-0.117 1.8,-0.354c0.559,-0.233 1.042,-0.559 1.463,-0.979c0.416,-0.421 0.75,-0.913 0.996,-1.475c0.25,-0.571 0.37,-1.179 0.37,-1.821l0,-32.921l9.192,-0l0,32.921Z" style="fill:#9ca3af;fill-rule:nonzero;"/><path d="M105.227,187.809l6.508,0l-2.737,-7.087c-0.18,-0.442 -0.355,-0.988 -0.525,-1.646c-0.088,0.333 -0.175,0.642 -0.263,0.916c-0.083,0.28 -0.167,0.525 -0.246,0.738l-2.737,7.079Zm11.421,6.471l-1.825,0c-0.213,0 -0.384,-0.054 -0.513,-0.154c-0.129,-0.113 -0.225,-0.242 -0.292,-0.404l-1.629,-4.213l-7.821,0l-1.629,4.213c-0.054,0.141 -0.154,0.275 -0.291,0.391c-0.138,0.109 -0.309,0.167 -0.513,0.167l-1.825,0l6.971,-17.429l2.396,-0l6.971,17.429Z" style="fill:#9ca3af;fill-rule:nonzero;"/><path d="M115.175,176.851l1.884,0c0.212,0 0.383,0.054 0.512,0.159c0.129,0.1 0.225,0.241 0.292,0.4l4.925,12.295c0.112,0.275 0.217,0.58 0.312,0.905c0.092,0.32 0.184,0.658 0.275,1.008c0.071,-0.35 0.15,-0.688 0.234,-1.008c0.087,-0.325 0.187,-0.63 0.3,-0.905l4.9,-12.295c0.058,-0.138 0.154,-0.267 0.291,-0.384c0.138,-0.116 0.309,-0.175 0.513,-0.175l1.896,0l-7.1,17.429l-2.129,0l-7.105,-17.429Z" style="fill:#9ca3af;fill-rule:nonzero;"/><rect x="134.175" y="176.85" width="2.358" height="17.429" style="fill:#9ca3af;"/><path d="M144.123,187.809l6.508,0l-2.738,-7.087c-0.179,-0.442 -0.354,-0.988 -0.52,-1.646c-0.092,0.333 -0.18,0.642 -0.263,0.916c-0.087,0.28 -0.171,0.525 -0.25,0.738l-2.737,7.079Zm11.42,6.471l-1.825,0c-0.212,0 -0.379,-0.054 -0.508,-0.154c-0.129,-0.113 -0.229,-0.242 -0.296,-0.404l-1.625,-4.213l-7.825,0l-1.629,4.213c-0.054,0.141 -0.15,0.275 -0.292,0.391c-0.137,0.109 -0.308,0.167 -0.508,0.167l-1.825,0l6.971,-17.429l2.396,-0l6.966,17.429Z" style="fill:#9ca3af;fill-rule:nonzero;"/><path d="M168.01,176.851l-0,1.984l-5.63,-0l0,15.445l-2.358,0l0,-15.445l-5.658,-0l-0,-1.984l13.646,0Z" style="fill:#9ca3af;fill-rule:nonzero;"/><rect x="170.929" y="176.85" width="2.358" height="17.429" style="fill:#9ca3af;"/><path d="M191.728,185.571c-0.001,-1.071 -0.146,-2.029 -0.434,-2.879c-0.296,-0.854 -0.708,-1.571 -1.242,-2.162c-0.537,-0.592 -1.187,-1.042 -1.95,-1.355c-0.762,-0.316 -1.612,-0.475 -2.554,-0.475c-0.933,0 -1.779,0.159 -2.541,0.475c-0.763,0.313 -1.413,0.763 -1.955,1.355c-0.533,0.591 -0.954,1.308 -1.245,2.162c-0.292,0.85 -0.434,1.808 -0.434,2.879c0,1.071 0.142,2.029 0.434,2.875c0.291,0.85 0.712,1.567 1.245,2.154c0.542,0.592 1.192,1.038 1.955,1.346c0.762,0.317 1.608,0.475 2.541,0.475c0.942,0 1.792,-0.158 2.554,-0.475c0.763,-0.308 1.413,-0.754 1.95,-1.346c0.534,-0.587 0.946,-1.304 1.242,-2.154c0.288,-0.846 0.433,-1.804 0.433,-2.875m2.425,0c0,1.304 -0.208,2.509 -0.625,3.596c-0.412,1.088 -0.995,2.029 -1.75,2.813c-0.754,0.791 -1.662,1.4 -2.72,1.833c-1.059,0.433 -2.225,0.65 -3.509,0.65c-1.279,-0 -2.45,-0.217 -3.5,-0.65c-1.058,-0.433 -1.958,-1.042 -2.716,-1.833c-0.755,-0.784 -1.338,-1.725 -1.75,-2.813c-0.413,-1.087 -0.621,-2.292 -0.621,-3.596c-0,-1.304 0.208,-2.504 0.621,-3.596c0.412,-1.087 0.995,-2.029 1.75,-2.82c0.758,-0.788 1.658,-1.405 2.716,-1.842c1.05,-0.438 2.221,-0.658 3.5,-0.658c1.284,-0 2.45,0.22 3.509,0.658c1.058,0.437 1.966,1.054 2.72,1.842c0.755,0.791 1.338,1.733 1.75,2.82c0.417,1.092 0.625,2.292 0.625,3.596" style="fill:#9ca3af;fill-rule:nonzero;"/><path d="M199.056,176.929c0.1,0.054 0.217,0.158 0.346,0.321l10.096,13.137c-0.021,-0.208 -0.042,-0.412 -0.046,-0.612c-0.009,-0.2 -0.013,-0.392 -0.013,-0.584l0,-12.341l2.067,-0l-0,17.429l-1.192,-0c-0.187,-0 -0.341,-0.029 -0.466,-0.096c-0.125,-0.067 -0.255,-0.171 -0.371,-0.329l-10.084,-13.125c0.013,0.204 0.03,0.404 0.034,0.6c0.008,0.196 0.012,0.375 0.012,0.537l0,12.413l-2.066,-0l-0,-17.429l1.216,-0c0.209,-0 0.367,0.029 0.467,0.079" style="fill:#9ca3af;fill-rule:nonzero;"/><path d="M229.386,179.578c-0.075,0.116 -0.15,0.208 -0.237,0.27c-0.075,0.063 -0.184,0.092 -0.313,0.092c-0.137,-0 -0.296,-0.071 -0.479,-0.208c-0.183,-0.138 -0.417,-0.288 -0.692,-0.455c-0.279,-0.166 -0.62,-0.316 -1.008,-0.458c-0.396,-0.137 -0.871,-0.204 -1.429,-0.204c-0.529,0 -0.996,0.067 -1.404,0.208c-0.404,0.146 -0.746,0.338 -1.013,0.579c-0.275,0.246 -0.475,0.534 -0.616,0.859c-0.138,0.329 -0.205,0.683 -0.205,1.066c0,0.484 0.121,0.888 0.359,1.209c0.237,0.321 0.554,0.6 0.95,0.821c0.391,0.229 0.837,0.425 1.333,0.591c0.5,0.167 1.013,0.338 1.538,0.517c0.52,0.179 1.033,0.379 1.533,0.6c0.496,0.225 0.937,0.504 1.337,0.85c0.392,0.337 0.705,0.754 0.95,1.25c0.238,0.492 0.355,1.104 0.355,1.825c-0,0.758 -0.13,1.475 -0.388,2.146c-0.262,0.671 -0.642,1.25 -1.137,1.746c-0.5,0.495 -1.113,0.883 -1.838,1.166c-0.725,0.284 -1.55,0.425 -2.475,0.425c-1.125,0 -2.154,-0.204 -3.083,-0.612c-0.929,-0.413 -1.721,-0.963 -2.375,-1.663l0.679,-1.116c0.062,-0.092 0.142,-0.163 0.237,-0.225c0.092,-0.063 0.196,-0.092 0.309,-0.092c0.171,0 0.366,0.092 0.583,0.275c0.221,0.179 0.492,0.383 0.821,0.604c0.329,0.213 0.725,0.417 1.196,0.596c0.466,0.183 1.033,0.275 1.708,0.275c0.558,0 1.058,-0.075 1.496,-0.229c0.437,-0.154 0.804,-0.371 1.112,-0.65c0.305,-0.279 0.538,-0.617 0.7,-1.008c0.163,-0.384 0.242,-0.821 0.242,-1.296c0,-0.529 -0.121,-0.963 -0.358,-1.296c-0.238,-0.338 -0.554,-0.617 -0.942,-0.846c-0.392,-0.229 -0.833,-0.417 -1.333,-0.579c-0.5,-0.158 -1.013,-0.321 -1.534,-0.488c-0.525,-0.166 -1.033,-0.362 -1.533,-0.575c-0.496,-0.22 -0.942,-0.504 -1.329,-0.85c-0.392,-0.35 -0.704,-0.787 -0.942,-1.312c-0.241,-0.521 -0.358,-1.167 -0.358,-1.938c-0,-0.616 0.117,-1.212 0.358,-1.783c0.238,-0.583 0.584,-1.092 1.038,-1.538c0.458,-0.445 1.012,-0.804 1.683,-1.066c0.671,-0.271 1.438,-0.404 2.304,-0.404c0.979,-0 1.859,0.154 2.667,0.458c0.804,0.308 1.504,0.758 2.104,1.338l-0.571,1.125Z" style="fill:#9ca3af;fill-rule:nonzero;"/><path d="M244.092,176.851l-0,1.921l-8.371,0l-0,5.792l6.779,-0l0,1.846l-6.779,-0l-0,5.95l8.371,-0l-0,1.92l-10.738,0l0,-17.429l10.738,0Z" style="fill:#9ca3af;fill-rule:nonzero;"/><path d="M250.078,185.29l2.466,0c0.688,0 1.292,-0.083 1.817,-0.25c0.521,-0.166 0.962,-0.4 1.316,-0.704c0.351,-0.304 0.613,-0.666 0.792,-1.087c0.179,-0.421 0.271,-0.888 0.271,-1.396c0,-1.042 -0.342,-1.825 -1.025,-2.354c-0.692,-0.525 -1.708,-0.788 -3.063,-0.788l-2.575,0l0,6.579Zm0,1.713l0,7.275l-2.35,-0l0,-17.425l4.925,-0c1.105,-0 2.055,0.108 2.859,0.333c0.804,0.221 1.466,0.546 1.987,0.963c0.525,0.425 0.913,0.933 1.163,1.525c0.25,0.6 0.375,1.266 0.375,2.004c-0,0.617 -0.096,1.192 -0.292,1.729c-0.196,0.538 -0.471,1.017 -0.842,1.442c-0.37,0.425 -0.816,0.787 -1.35,1.087c-0.533,0.3 -1.133,0.529 -1.808,0.679c0.292,0.171 0.554,0.421 0.779,0.746l5.084,6.917l-2.092,-0c-0.429,-0 -0.746,-0.167 -0.946,-0.496l-4.529,-6.229c-0.138,-0.192 -0.283,-0.333 -0.446,-0.421c-0.167,-0.083 -0.408,-0.129 -0.729,-0.129l-1.788,-0Z" style="fill:#9ca3af;fill-rule:nonzero;"/><path d="M261.133,176.851l1.883,0c0.213,0 0.384,0.054 0.513,0.159c0.129,0.1 0.229,0.241 0.296,0.4l4.92,12.295c0.113,0.275 0.217,0.58 0.313,0.905c0.092,0.32 0.179,0.658 0.275,1.008c0.071,-0.35 0.15,-0.688 0.233,-1.008c0.088,-0.325 0.184,-0.63 0.3,-0.905l4.9,-12.295c0.059,-0.138 0.159,-0.267 0.296,-0.384c0.133,-0.116 0.308,-0.175 0.508,-0.175l1.896,0l-7.1,17.429l-2.133,0l-7.1,-17.429Z" style="fill:#9ca3af;fill-rule:nonzero;"/><rect x="280.133" y="176.85" width="2.358" height="17.429" style="fill:#9ca3af;"/><path d="M299.447,190.682c0.125,0 0.246,0.054 0.35,0.154l0.925,1.013c-0.713,0.829 -1.579,1.471 -2.596,1.933c-1.021,0.458 -2.242,0.692 -3.679,0.692c-1.259,-0 -2.396,-0.217 -3.421,-0.65c-1.021,-0.434 -1.896,-1.042 -2.609,-1.825c-0.725,-0.779 -1.283,-1.721 -1.683,-2.813c-0.396,-1.096 -0.596,-2.3 -0.596,-3.616c0,-1.313 0.209,-2.517 0.638,-3.613c0.429,-1.092 1.025,-2.033 1.796,-2.821c0.766,-0.783 1.691,-1.391 2.766,-1.829c1.075,-0.433 2.259,-0.65 3.554,-0.65c1.284,0 2.388,0.2 3.317,0.592c0.929,0.4 1.754,0.937 2.479,1.621l-0.77,1.083c-0.055,0.079 -0.121,0.15 -0.196,0.2c-0.071,0.05 -0.179,0.079 -0.317,0.079c-0.104,0 -0.217,-0.042 -0.329,-0.117c-0.121,-0.079 -0.258,-0.17 -0.421,-0.283c-0.162,-0.117 -0.35,-0.237 -0.571,-0.362c-0.221,-0.138 -0.479,-0.255 -0.783,-0.367c-0.296,-0.117 -0.646,-0.213 -1.046,-0.288c-0.392,-0.075 -0.854,-0.116 -1.371,-0.116c-0.929,-0 -1.783,0.162 -2.562,0.479c-0.775,0.321 -1.442,0.779 -1.996,1.367c-0.563,0.595 -1,1.32 -1.313,2.17c-0.308,0.85 -0.466,1.805 -0.466,2.855c-0,1.087 0.158,2.058 0.466,2.908c0.313,0.854 0.738,1.571 1.28,2.158c0.537,0.588 1.179,1.038 1.916,1.346c0.734,0.308 1.534,0.463 2.384,0.463c0.516,-0 0.983,-0.03 1.4,-0.096c0.412,-0.054 0.795,-0.154 1.145,-0.284c0.355,-0.129 0.684,-0.291 0.988,-0.491c0.304,-0.2 0.608,-0.438 0.917,-0.713c0.141,-0.121 0.27,-0.179 0.404,-0.179" style="fill:#9ca3af;fill-rule:nonzero;"/><path d="M314.563,176.851l-0,1.921l-8.367,0l0,5.792l6.775,-0l0,1.846l-6.775,-0l0,5.95l8.367,-0l-0,1.92l-10.738,0l0,-17.429l10.738,0Z" style="fill:#9ca3af;fill-rule:nonzero;"/><path d="M326.888,179.578c-0.075,0.116 -0.15,0.208 -0.233,0.27c-0.08,0.063 -0.188,0.092 -0.317,0.092c-0.138,-0 -0.296,-0.071 -0.479,-0.208c-0.184,-0.138 -0.417,-0.288 -0.692,-0.455c-0.279,-0.166 -0.621,-0.316 -1.008,-0.458c-0.396,-0.137 -0.871,-0.204 -1.429,-0.204c-0.53,0 -0.996,0.067 -1.405,0.208c-0.404,0.146 -0.745,0.338 -1.012,0.579c-0.271,0.246 -0.475,0.534 -0.617,0.859c-0.137,0.329 -0.204,0.683 -0.204,1.066c0,0.484 0.121,0.888 0.358,1.209c0.238,0.321 0.555,0.6 0.95,0.821c0.392,0.229 0.838,0.425 1.334,0.591c0.5,0.167 1.012,0.338 1.537,0.517c0.521,0.179 1.034,0.379 1.534,0.6c0.495,0.225 0.937,0.504 1.337,0.85c0.392,0.337 0.704,0.754 0.95,1.25c0.238,0.492 0.354,1.104 0.354,1.825c0,0.758 -0.129,1.475 -0.387,2.146c-0.263,0.671 -0.642,1.25 -1.138,1.746c-0.5,0.495 -1.112,0.883 -1.837,1.166c-0.725,0.284 -1.55,0.425 -2.475,0.425c-1.125,0 -2.154,-0.204 -3.084,-0.612c-0.929,-0.413 -1.72,-0.963 -2.375,-1.663l0.68,-1.116c0.062,-0.092 0.141,-0.163 0.237,-0.225c0.096,-0.063 0.192,-0.092 0.308,-0.092c0.171,0 0.363,0.092 0.588,0.275c0.217,0.179 0.487,0.383 0.817,0.604c0.329,0.213 0.725,0.417 1.195,0.596c0.467,0.183 1.034,0.275 1.709,0.275c0.558,0 1.058,-0.075 1.496,-0.229c0.437,-0.154 0.804,-0.371 1.112,-0.65c0.304,-0.279 0.538,-0.617 0.7,-1.008c0.163,-0.384 0.242,-0.821 0.242,-1.296c-0,-0.529 -0.121,-0.963 -0.359,-1.296c-0.237,-0.338 -0.554,-0.617 -0.941,-0.846c-0.392,-0.229 -0.834,-0.417 -1.334,-0.579c-0.5,-0.158 -1.012,-0.321 -1.533,-0.488c-0.525,-0.166 -1.033,-0.362 -1.533,-0.575c-0.496,-0.22 -0.942,-0.504 -1.329,-0.85c-0.392,-0.35 -0.705,-0.787 -0.946,-1.312c-0.234,-0.521 -0.359,-1.167 -0.359,-1.938c0,-0.616 0.125,-1.212 0.359,-1.783c0.241,-0.583 0.587,-1.092 1.041,-1.538c0.459,-0.445 1.013,-0.804 1.684,-1.066c0.671,-0.271 1.437,-0.404 2.304,-0.404c0.979,-0 1.858,0.154 2.667,0.458c0.804,0.308 1.504,0.758 2.104,1.338l-0.571,1.125Z" style="fill:#9ca3af;fill-rule:nonzero;"/><path d="M197.221,17.586c32.242,-10.483 53.358,-5.041 53.358,-5.041l21.917,-9.475c-0,-0.075 -0,-0.15 -0.004,-0.221c-1.479,-0.342 -30.646,-4.609 -75.271,14.737" style="fill:#9ca3af;fill-rule:nonzero;"/><path d="M197.221,17.586c-12.813,5.554 -26.896,13.054 -41.967,23.159c22.854,-8.621 42.417,-13.9 66.767,-15.859l28.558,-12.341c0,-0 -21.117,-5.442 -53.358,5.041" style="fill:#9da0a5;fill-rule:nonzero;"/><path d="M190.127,100.482c63.646,-36.812 82.725,-81.508 82.371,-97.412l-21.921,9.475c-0,-0 6.079,35.495 -60.45,87.937" style="fill:#9ca3af;fill-rule:nonzero;"/><path d="M250.578,12.545l-28.558,12.341c1.087,21.613 -10.834,46.163 -53.634,86.979c7.767,-3.679 15.004,-7.487 21.742,-11.383c66.529,-52.442 60.45,-87.937 60.45,-87.937" style="fill:#8f949b;fill-rule:nonzero;"/></g></g></svg>