<?xml version="1.0" encoding="UTF-8" standalone="no"?><!DOCTYPE svg PUBLIC "-//W3C//DTD SVG 1.1//EN" "http://www.w3.org/Graphics/SVG/1.1/DTD/svg11.dtd"><svg width="100%" height="100%" viewBox="0 0 438 200" version="1.1" xmlns="http://www.w3.org/2000/svg" xmlns:xlink="http://www.w3.org/1999/xlink" xml:space="preserve" xmlns:serif="http://www.serif.com/" style="fill-rule:evenodd;clip-rule:evenodd;stroke-linejoin:round;stroke-miterlimit:2;"><rect id="Page-4" serif:id="Page 4" x="0" y="0" width="437.5" height="200" style="fill:none;"/><g id="Layer-1" serif:id="Layer 1"><path d="M48.169,151.013c-0,-6.383 3.716,-10.1 12.404,-10.1c3.242,0 6.592,0.421 9.467,1.154l-0.734,5.705c-2.821,-0.521 -6.121,-0.888 -8.529,-0.888c-4.55,0 -6.017,1.567 -6.017,5.279l0,13.4c0,3.717 1.467,5.284 6.017,5.284c2.408,-0 5.708,-0.367 8.529,-0.888l0.734,5.7c-2.875,0.738 -6.225,1.15 -9.467,1.15c-8.688,0 -12.404,-3.712 -12.404,-10.096l-0,-15.7Z" style="fill:#9ca3af;fill-rule:nonzero;"/><path d="M83.382,163.362l9.629,0l-4.762,-16.479l-4.867,16.48Zm11.304,5.704l-12.929,-0l-2.196,7.225l-6.904,-0l10.983,-34.855l9.213,0.001l10.987,34.854l-6.904,-0l-2.25,-7.225Z" style="fill:#9ca3af;fill-rule:nonzero;"/><path d="M116.451,176.811c-3.975,-0 -8.584,-0.992 -10.884,-2.092l1.15,-5.179c3.242,0.992 6.384,1.625 9.838,1.625c4.762,0 5.546,-1 5.546,-4.346c-0,-3.875 -0.104,-4.187 -6.384,-5.546c-8.42,-1.887 -9.575,-3.508 -9.575,-10.887c0,-6.329 2.88,-9.471 11.721,-9.471c3.034,0 6.7,0.367 10.15,1.15l-0.729,5.546c-2.879,-0.625 -6.279,-1.046 -9.317,-1.046c-4.445,0 -5.233,0.946 -5.233,3.979c0,3.975 0.108,4.084 6.121,5.546c9.371,2.25 9.837,3.771 9.837,10.729c0,6.592 -1.929,9.992 -12.241,9.992" style="fill:#9ca3af;fill-rule:nonzero;"/><path d="M131.311,151.013c-0,-6.383 3.716,-10.1 12.404,-10.1c3.242,0 6.592,0.421 9.467,1.154l-0.734,5.705c-2.821,-0.521 -6.12,-0.888 -8.529,-0.888c-4.55,0 -6.017,1.567 -6.017,5.279l0,13.4c0,3.717 1.467,5.284 6.017,5.284c2.409,-0 5.708,-0.367 8.529,-0.888l0.734,5.7c-2.875,0.738 -6.225,1.15 -9.467,1.15c-8.688,0 -12.404,-3.712 -12.404,-10.096l-0,-15.7Z" style="fill:#9ca3af;fill-rule:nonzero;"/><path d="M166.524,163.362l9.633,0l-4.766,-16.479l-4.867,16.48Zm11.304,5.704l-12.929,-0l-2.196,7.225l-6.904,-0l10.983,-34.855l9.213,0.001l10.987,34.854l-6.904,-0l-2.25,-7.225Z" style="fill:#9ca3af;fill-rule:nonzero;"/><path d="M195.67,170.479l5.7,0c4.455,0 5.655,-1.779 5.655,-5.125l-0,-12.979c-0,-3.346 -1.2,-5.125 -5.655,-5.125l-5.7,0l0,23.229Zm6.384,-29.041c8.583,-0 11.566,4.341 11.566,9.366l0,16.117c0,4.971 -2.983,9.371 -11.566,9.371l-12.979,-0l-0,-34.854l12.979,-0Z" style="fill:#9ca3af;fill-rule:nonzero;"/><path d="M216.492,141.439l21.35,-0l-0,5.812l-14.755,0l0,8.421l13.609,0l-0,5.808l-13.609,0l0,9l14.755,0l-0,5.809l-21.35,-0l-0,-34.85Z" style="fill:#9ca3af;fill-rule:nonzero;"/><path d="M266.166,141.439l3.038,-0l-12.3,34.85l-4.188,-0l-12.296,-34.85l3.038,-0l11.354,32.075l11.354,-32.075Z" style="fill:#9ca3af;fill-rule:nonzero;"/><rect x="270.121" y="141.442" width="3.087" height="34.85" style="fill:#9ca3af;"/><path d="M287.667,144.214l-9.313,-0l0,15.904l9.313,-0c4.395,-0 6.437,-1.463 6.437,-5.283l0,-5.338c0,-3.817 -2.042,-5.283 -6.437,-5.283m0.625,18.679l-9.938,-0l0,13.396l-3.091,-0l-0,-34.85l12.349,-0c7.013,-0 9.575,3.191 9.575,8.058l0,5.338c0,3.82 -1.566,6.645 -5.649,7.641l9.316,13.813l-3.508,-0l-9.054,-13.396Z" style="fill:#9ca3af;fill-rule:nonzero;"/><path d="M308.273,144.214l-10.73,-0l0,-2.775l24.542,-0l0,2.775l-10.729,-0l-0,32.075l-3.084,-0l0,-32.075Z" style="fill:#9ca3af;fill-rule:nonzero;"/><path d="M347.44,141.439l0,24.958c0,5.913 -3.558,10.413 -12.037,10.413c-8.475,-0 -12.033,-4.5 -12.033,-10.413l-0,-24.958l3.087,-0l0,24.958c0,4.867 3.088,7.642 8.946,7.642c5.862,-0 8.95,-2.775 8.95,-7.642l-0,-24.958l3.087,-0Z" style="fill:#9ca3af;fill-rule:nonzero;"/><path d="M353.186,164.461l14.337,0l-7.166,-21.246l-7.171,21.246Zm15.279,2.671l-16.221,0l-3.246,9.158l-3.033,0l12.142,-34.85l4.55,0l12.141,34.85l-3.037,0l-3.296,-9.158Z" style="fill:#9ca3af;fill-rule:nonzero;"/><path d="M378.634,173.515l15.7,0l-0,2.775l-18.788,0l0,-34.85l3.088,0l-0,32.075Z" style="fill:#9ca3af;fill-rule:nonzero;"/><path d="M178.284,91.362l-0,-49.592l42.95,-24.796l-0,-16.108l-56.904,32.85l-0,65.7l56.904,32.846l-0,-16.109l-42.95,-24.791Z" style="fill:#9ca3af;fill-rule:nonzero;"/><path d="M198.377,79.761l-0,-41.938l-13.955,7.342l0,42.65l36.809,21.25l-0,-16.108l-22.854,-13.196Z" style="fill:#9ca3af;fill-rule:nonzero;"/><path d="M221.61,115.934l-0.379,0.221l0,16.108l56.896,-32.845l0,-16.046l-56.517,32.562Z" style="fill:#9ca3af;fill-rule:nonzero;"/><path d="M258.036,22.115l-13.954,-8.058l0,0.004l13.954,8.054Z" style="fill:#9ca3af;fill-rule:nonzero;"/><path d="M244.084,79.759l-22.85,13.196l-0,16.112l36.804,-21.25l-0,-49.446l-13.954,-8.108l-0,49.496Z" style="fill:#9ca3af;fill-rule:nonzero;"/><path d="M237.923,10.504l-16.691,-9.637l-0,16.108l16.691,9.704l0,-16.175Z" style="fill:#9ca3af;fill-rule:nonzero;"/><path d="M244.084,14.06l-0,16.2l13.954,8.109l-0,-16.254l-13.954,-8.055Z" style="fill:#9ca3af;fill-rule:nonzero;"/><path d="M264.176,25.411l0,70.775l13.954,-0l0,-62.8l-13.954,-7.975Z" style="fill:#9ca3af;fill-rule:nonzero;"/></g></svg>