<?xml version="1.0" encoding="UTF-8" standalone="no"?><!DOCTYPE svg PUBLIC "-//W3C//DTD SVG 1.1//EN" "http://www.w3.org/Graphics/SVG/1.1/DTD/svg11.dtd"><svg width="100%" height="100%" viewBox="0 0 438 200" version="1.1" xmlns="http://www.w3.org/2000/svg" xmlns:xlink="http://www.w3.org/1999/xlink" xml:space="preserve" xmlns:serif="http://www.serif.com/" style="fill-rule:evenodd;clip-rule:evenodd;stroke-linejoin:round;stroke-miterlimit:2;"><rect id="Page-5" serif:id="Page 5" x="0" y="0" width="437.5" height="200" style="fill:none;"/><g id="Layer-1" serif:id="Layer 1"><path d="M209.318,1.381c-11.063,12.35 -68.308,51.842 -15.354,105.825c-0,0 9.758,-8.446 9.608,-16.466c-0.175,-9.088 -13.029,-19.967 -9.95,-33.275c5.317,-22.98 19.421,-24.684 23.154,-37.217c2.917,-9.775 -7.458,-18.867 -7.458,-18.867" style="fill:#9ca3af;fill-rule:nonzero;"/><path d="M231.954,24.795c2.575,0.129 23.629,23.55 22.9,44.508c-0.904,25.854 -17.496,40.646 -37.563,60.842c-4.504,-3.471 -8.904,-11.071 -7.204,-18.138c2.446,-10.162 17.367,-18.008 21.483,-33.571c3.621,-13.704 -3.475,-25.858 -3.475,-25.858c0,-0 -17.104,14.667 -19.037,37.304c-9.775,-36.146 3.346,-47.85 22.896,-65.087" style="fill:#9ca3af;fill-rule:nonzero;"/><path d="M82.011,170.87c-0,0.375 0.104,0.679 0.316,0.917c0.209,0.233 0.546,0.35 1.013,0.35c0.083,-0 0.308,-0.021 0.667,-0.071c0.354,-0.046 0.833,-0.142 1.42,-0.279l0,4.5c-0.716,0.795 -1.454,1.37 -2.212,1.725c-0.763,0.35 -1.521,0.525 -2.283,0.525c-0.759,-0 -1.488,-0.125 -2.184,-0.388c-0.696,-0.254 -1.312,-0.654 -1.841,-1.196c-0.525,-0.537 -0.959,-1.216 -1.296,-2.037c-0.338,-0.821 -0.504,-1.771 -0.504,-2.85l-0,-27.575l6.904,-0.984l-0,27.363Zm-3.421,-30.879c-1.396,-0 -2.396,-0.425 -3.013,-1.267c-0.608,-0.846 -0.916,-1.946 -0.916,-3.308c-0,-1.029 0.325,-1.992 0.983,-2.884c0.654,-0.887 1.633,-1.333 2.946,-1.333c1.138,0 2.079,0.383 2.817,1.158c0.737,0.771 1.108,1.771 1.108,2.992c0,1.221 -0.317,2.296 -0.946,3.233c-0.637,0.942 -1.629,1.409 -2.979,1.409" style="fill:#9ca3af;fill-rule:nonzero;"/><path d="M109.44,142.733c2.025,-0 3.708,0.258 5.037,0.775c1.33,0.517 2.384,1.287 3.167,2.321c0.779,1.029 1.329,2.308 1.646,3.833c0.317,1.525 0.479,3.296 0.479,5.313l0,23.212l-6.971,0l0,-22.162c0,-2.342 -0.3,-4.03 -0.887,-5.059c-0.592,-1.033 -1.671,-1.55 -3.234,-1.55c-0.97,0 -2.079,0.434 -3.32,1.3c-1.25,0.871 -2.359,1.913 -3.329,3.129l-0.001,24.342l-7.033,0l0,-27.858c0,-0.654 -0.271,-1.021 -0.821,-1.088c-0.55,-0.071 -1.183,-0.083 -1.9,-0.037l0,-5.417c0.8,-0.325 1.542,-0.562 2.217,-0.704c0.675,-0.138 1.267,-0.208 1.775,-0.208c1.267,-0 2.321,0.304 3.167,0.912c0.846,0.608 1.475,1.383 1.9,2.325c1.012,-0.892 2.258,-1.679 3.737,-2.358c1.479,-0.679 2.933,-1.021 4.371,-1.021" style="fill:#9ca3af;fill-rule:nonzero;"/><path d="M145.044,142.733c2.025,-0 3.708,0.258 5.037,0.775c1.329,0.517 2.384,1.287 3.167,2.321c0.779,1.029 1.329,2.308 1.646,3.833c0.316,1.525 0.479,3.296 0.479,5.313l-0,23.212l-6.971,0l0,-22.162c0,-2.342 -0.3,-4.03 -0.887,-5.059c-0.592,-1.033 -1.671,-1.55 -3.234,-1.55c-0.971,0 -2.079,0.434 -3.321,1.3c-1.25,0.871 -2.358,1.913 -3.329,3.129l0,24.342l-7.033,0l-0,-27.858c-0,-0.654 -0.271,-1.021 -0.821,-1.088c-0.55,-0.071 -1.183,-0.083 -1.9,-0.037l0,-5.417c0.8,-0.325 1.542,-0.562 2.217,-0.704c0.675,-0.138 1.266,-0.208 1.775,-0.208c1.266,-0 2.321,0.304 3.166,0.912c0.846,0.608 1.475,1.383 1.9,2.325c1.013,-0.892 2.259,-1.679 3.738,-2.358c1.479,-0.679 2.933,-1.021 4.371,-1.021" style="fill:#9ca3af;fill-rule:nonzero;"/><path d="M182.483,155.676c-0.167,-1.783 -0.717,-3.316 -1.646,-4.604c-0.929,-1.292 -2.408,-1.937 -4.433,-1.937c-0.971,-0 -1.825,0.187 -2.567,0.558c-0.737,0.379 -1.358,0.871 -1.867,1.483c-0.512,0.604 -0.929,1.309 -1.266,2.109c-0.342,0.795 -0.575,1.595 -0.7,2.391l12.479,0Zm-12.733,6.121c0.041,1.358 0.233,2.629 0.57,3.8c0.338,1.171 0.846,2.188 1.521,3.058c0.675,0.867 1.542,1.559 2.596,2.075c1.054,0.513 2.304,0.775 3.742,0.775c1.304,0 2.808,-0.237 4.496,-0.704c1.687,-0.466 3.42,-1.196 5.195,-2.183l1.267,5.629c-1.692,1.358 -3.462,2.425 -5.325,3.2c-1.854,0.775 -4.137,1.163 -6.837,1.163c-2.409,-0 -4.521,-0.48 -6.338,-1.446c-1.812,-0.959 -3.346,-2.25 -4.592,-3.867c-1.245,-1.617 -2.175,-3.504 -2.787,-5.662c-0.613,-2.155 -0.921,-4.455 -0.921,-6.892c0,-2.538 0.317,-4.904 0.954,-7.104c0.634,-2.209 1.542,-4.109 2.721,-5.7c1.183,-1.592 2.642,-2.85 4.375,-3.767c1.729,-0.908 3.713,-1.371 5.95,-1.371c1.733,0 3.379,0.292 4.946,0.879c1.558,0.592 2.921,1.48 4.083,2.675c1.163,1.196 2.1,2.721 2.821,4.571c0.717,1.854 1.075,4.021 1.075,6.509l0,4.362l-19.512,0Z" style="fill:#9ca3af;fill-rule:nonzero;"/><path d="M205.607,178.186l-7.162,-0l-0,-27.788c-0,-0.562 -0.271,-0.9 -0.821,-1.016c-0.55,-0.117 -1.184,-0.155 -1.9,-0.105l-0,-5.208c0.841,-0.471 1.604,-0.796 2.279,-0.987c0.675,-0.184 1.246,-0.28 1.712,-0.28c1.305,0 2.425,0.355 3.359,1.059c0.925,0.7 1.562,1.637 1.9,2.812c1.012,-1.033 2.258,-1.908 3.733,-2.637c1.483,-0.729 3.463,-1.184 5.958,-1.371l-1.079,8.087c-1.604,0 -3.104,0.238 -4.496,0.705c-1.395,0.466 -2.554,1.429 -3.483,2.879l0,23.85Z" style="fill:#9ca3af;fill-rule:nonzero;"/><path d="M230.754,170.097c1.516,0.516 3.046,0.941 4.591,1.266c1.542,0.33 3.2,0.492 4.975,0.492c1.225,0 2.292,-0.325 3.196,-0.983c0.909,-0.659 1.342,-1.525 1.3,-2.604c-0.041,-0.938 -0.316,-1.667 -0.821,-2.18c-0.508,-0.516 -1.166,-0.937 -1.966,-1.27l-5.7,-1.967c-1.396,-0.563 -2.546,-1.196 -3.454,-1.896c-0.909,-0.704 -1.625,-1.471 -2.155,-2.287c-0.529,-0.821 -0.887,-1.713 -1.079,-2.675c-0.187,-0.959 -0.283,-1.98 -0.283,-3.059c-0,-1.55 0.275,-2.954 0.825,-4.225c0.546,-1.266 1.321,-2.341 2.312,-3.233c0.992,-0.892 2.155,-1.583 3.484,-2.075c1.329,-0.492 2.779,-0.738 4.341,-0.738c1.138,0 2.28,0.105 3.417,0.317c1.146,0.208 2.188,0.467 3.138,0.775c0.954,0.304 1.783,0.608 2.504,0.908c0.716,0.313 1.204,0.53 1.454,0.675l-1.963,5.763c-0.504,-0.188 -1.1,-0.371 -1.77,-0.558c-0.68,-0.188 -1.396,-0.363 -2.159,-0.53c-0.758,-0.162 -1.541,-0.295 -2.341,-0.387c-0.805,-0.096 -1.563,-0.138 -2.28,-0.138c-1.1,0 -1.987,0.305 -2.662,0.909c-0.675,0.612 -1.013,1.341 -1.013,2.183c0,0.608 0.167,1.125 0.505,1.55c0.337,0.421 0.833,0.804 1.491,1.158c0.654,0.35 1.442,0.68 2.375,0.988c0.929,0.304 2.004,0.642 3.229,1.021c1.525,0.516 2.775,1.096 3.771,1.758c0.992,0.654 1.792,1.413 2.409,2.283c0.608,0.867 1.045,1.867 1.295,2.988c0.255,1.129 0.38,2.392 0.38,3.8c-0,1.596 -0.292,3.037 -0.888,4.325c-0.587,1.292 -1.404,2.396 -2.437,3.308c-1.034,0.913 -2.28,1.617 -3.734,2.109c-1.462,0.491 -3.033,0.741 -4.721,0.741c-2.029,0 -4.016,-0.262 -5.958,-0.775c-1.942,-0.516 -3.758,-1.266 -5.446,-2.254l1.838,-5.483Z" style="fill:#9ca3af;fill-rule:nonzero;"/><path d="M278.076,155.676c-0.166,-1.783 -0.716,-3.316 -1.646,-4.604c-0.929,-1.292 -2.408,-1.937 -4.433,-1.937c-0.971,-0 -1.825,0.187 -2.567,0.558c-0.737,0.379 -1.358,0.871 -1.866,1.483c-0.513,0.604 -0.929,1.309 -1.267,2.109c-0.342,0.795 -0.575,1.595 -0.7,2.391l12.479,0Zm-12.733,6.121c0.042,1.358 0.233,2.629 0.571,3.8c0.337,1.171 0.846,2.188 1.521,3.058c0.675,0.867 1.541,1.559 2.595,2.075c1.055,0.513 2.305,0.775 3.742,0.775c1.304,0 2.808,-0.237 4.496,-0.704c1.687,-0.466 3.421,-1.196 5.196,-2.183l1.266,5.629c-1.691,1.358 -3.462,2.425 -5.325,3.2c-1.854,0.775 -4.137,1.163 -6.837,1.163c-2.408,-0 -4.521,-0.48 -6.338,-1.446c-1.812,-0.959 -3.345,-2.25 -4.591,-3.867c-1.246,-1.617 -2.175,-3.504 -2.788,-5.662c-0.612,-2.155 -0.921,-4.455 -0.921,-6.892c0,-2.538 0.317,-4.904 0.955,-7.104c0.633,-2.209 1.541,-4.109 2.72,-5.7c1.184,-1.592 2.642,-2.85 4.375,-3.767c1.73,-0.908 3.713,-1.371 5.95,-1.371c1.734,0 3.38,0.292 4.946,0.879c1.559,0.592 2.921,1.48 4.084,2.675c1.162,1.196 2.1,2.721 2.82,4.571c0.717,1.854 1.075,4.021 1.075,6.509l0,4.362l-19.512,0Z" style="fill:#9ca3af;fill-rule:nonzero;"/><path d="M310.763,155.676c-0.167,-1.783 -0.717,-3.316 -1.646,-4.604c-0.93,-1.292 -2.409,-1.937 -4.434,-1.937c-0.971,-0 -1.825,0.187 -2.566,0.558c-0.738,0.379 -1.359,0.871 -1.867,1.483c-0.512,0.604 -0.929,1.309 -1.267,2.109c-0.341,0.795 -0.575,1.595 -0.7,2.391l12.479,0Zm-12.733,6.121c0.042,1.358 0.233,2.629 0.571,3.8c0.337,1.171 0.846,2.188 1.521,3.058c0.675,0.867 1.541,1.559 2.596,2.075c1.054,0.513 2.304,0.775 3.741,0.775c1.304,0 2.809,-0.237 4.496,-0.704c1.688,-0.466 3.421,-1.196 5.196,-2.183l1.267,5.629c-1.692,1.358 -3.463,2.425 -5.325,3.2c-1.855,0.775 -4.138,1.163 -6.838,1.163c-2.408,-0 -4.521,-0.48 -6.337,-1.446c-1.813,-0.959 -3.346,-2.25 -4.592,-3.867c-1.246,-1.617 -2.175,-3.504 -2.788,-5.662c-0.612,-2.155 -0.92,-4.455 -0.92,-6.892c-0,-2.538 0.316,-4.904 0.954,-7.104c0.633,-2.209 1.541,-4.109 2.721,-5.7c1.183,-1.592 2.641,-2.85 4.375,-3.767c1.729,-0.908 3.712,-1.371 5.95,-1.371c1.733,0 3.379,0.292 4.945,0.879c1.559,0.592 2.921,1.48 4.084,2.675c1.162,1.196 2.1,2.721 2.821,4.571c0.716,1.854 1.075,4.021 1.075,6.509l-0,4.362l-19.513,0Z" style="fill:#9ca3af;fill-rule:nonzero;"/><path d="M338.005,171.505c0.758,-0 1.466,-0.13 2.12,-0.388c0.655,-0.258 1.213,-0.567 1.68,-0.912c0.462,-0.355 0.862,-0.705 1.204,-1.055c0.337,-0.354 0.571,-0.65 0.696,-0.883l-0,-16.108c-0.338,-0.375 -0.95,-0.846 -1.838,-1.404c-0.887,-0.563 -2.112,-0.867 -3.675,-0.917c-1.225,-0.046 -2.271,0.225 -3.133,0.808c-0.867,0.588 -1.563,1.384 -2.092,2.392c-0.529,1.012 -0.908,2.208 -1.137,3.587c-0.234,1.384 -0.35,2.846 -0.35,4.396c-0,1.504 0.104,2.9 0.316,4.184c0.213,1.295 0.567,2.404 1.079,3.345c0.505,0.938 1.171,1.663 1.992,2.18c0.821,0.516 1.867,0.775 3.138,0.775m12.858,-0.917c-0,1.033 0.442,1.546 1.329,1.546l2.092,-0.067l-0,4.292c-0.721,0.796 -1.488,1.358 -2.309,1.683c-0.829,0.329 -1.595,0.492 -2.316,0.492c-2.113,-0 -3.759,-1.004 -4.942,-3.021c-0.846,0.754 -1.892,1.454 -3.137,2.112c-1.242,0.655 -2.609,0.984 -4.084,0.984c-2.237,-0 -4.204,-0.434 -5.891,-1.3c-1.688,-0.867 -3.092,-2.075 -4.213,-3.625c-1.117,-1.55 -1.954,-3.388 -2.5,-5.521c-0.55,-2.133 -0.829,-4.467 -0.829,-7c-0,-2.579 0.3,-4.996 0.887,-7.246c0.596,-2.25 1.463,-4.208 2.6,-5.875c1.142,-1.662 2.563,-2.979 4.28,-3.937c1.708,-0.963 3.679,-1.442 5.916,-1.442c0.85,-0 1.809,0.15 2.888,0.458c1.075,0.304 2.1,0.763 3.071,1.371l-0,-12.871l7.158,-1.058l-0,40.025Z" style="fill:#9ca3af;fill-rule:nonzero;"/></g></svg>