<?xml version="1.0" encoding="UTF-8" standalone="no"?><!DOCTYPE svg PUBLIC "-//W3C//DTD SVG 1.1//EN" "http://www.w3.org/Graphics/SVG/1.1/DTD/svg11.dtd"><svg width="100%" height="100%" viewBox="0 0 438 200" version="1.1" xmlns="http://www.w3.org/2000/svg" xmlns:xlink="http://www.w3.org/1999/xlink" xml:space="preserve" xmlns:serif="http://www.serif.com/" style="fill-rule:evenodd;clip-rule:evenodd;stroke-linejoin:round;stroke-miterlimit:2;"><rect id="Page-2" serif:id="Page 2" x="0" y="0" width="437.5" height="200" style="fill:none;"/><g id="Layer-1" serif:id="Layer 1"><path d="M278.247,61.371c-1.621,-0 -2.929,-1.309 -2.929,-2.929c-0,-1.617 1.308,-2.929 2.929,-2.929c1.617,-0 2.929,1.312 2.929,2.929c0,1.62 -1.312,2.929 -2.929,2.929m-10.129,-0c-1.613,-0 -2.925,-1.309 -2.925,-2.929c-0,-1.617 1.312,-2.929 2.925,-2.929c1.621,-0 2.929,1.312 2.929,2.929c0,1.62 -1.308,2.929 -2.929,2.929m-10.433,0.458c-1.613,0 -2.93,-1.308 -2.93,-2.925c0,-1.617 1.317,-2.929 2.93,-2.929c1.62,0 2.933,1.313 2.933,2.929c-0,1.617 -1.313,2.925 -2.933,2.925m-1.117,-25.104c-0,-0 61.787,-1.758 63.975,0.746c-0,-0 -4.379,7.9 -23.579,10.875c-0,-0 -123.346,-0.604 -174.817,40.279c0,0 44.138,-13.971 76.079,-5.433c30.292,8.095 77.379,3.991 102.434,-16.367c30.329,-24.646 30.833,-34.233 30.833,-34.233c-15.329,-6.021 -74.925,4.133 -74.925,4.133" style="fill:#9ca3af;fill-rule:nonzero;"/><path d="M295.907,75.781c-28.604,22.992 -65.109,21.167 -113.525,13.2c-31.988,-5.258 -74.45,13.729 -74.45,13.729c41.708,-12.67 80.783,4.755 125.141,5.809c44.35,1.054 62.834,-32.738 62.834,-32.738" style="fill:#9ca3af;fill-rule:nonzero;"/><path d="M136.442,76.33c60.054,-35.95 163.729,-31.691 163.729,-31.691c-109.15,-14.071 -163.729,31.691 -163.729,31.691" style="fill:#9ca3af;fill-rule:nonzero;"/><path d="M213.468,34.418c-0.129,-2.096 1.738,-11.296 0.488,-10.404c-1.017,0.725 -5.325,9.387 -6.971,11.541c-6.921,1.392 -12.025,3.025 -13.517,4.075c-4.487,3.171 -9.241,11.355 -9.241,11.355c15.579,-9.505 72.341,-14.259 72.341,-14.259c-12.679,-3.525 -29.6,-4.35 -43.1,-2.308" style="fill:#9ca3af;fill-rule:nonzero;"/><path d="M193.469,39.632c0,0 16.288,-13.2 20.063,-14.175c9.546,-2.458 43.037,11.271 43.037,11.271c-11.025,-8.183 -34.591,-20.788 -44.091,-16.021c-3.209,1.608 -19.009,18.925 -19.009,18.925" style="fill:#9ca3af;fill-rule:nonzero;"/><path d="M179.476,50.456c8.187,-13.729 27.191,-27.458 27.191,-27.458c-30.095,10.825 -53.325,41.45 -49.633,38.02c3.988,-3.704 22.442,-10.562 22.442,-10.562" style="fill:#9ca3af;fill-rule:nonzero;"/><path d="M216.968,16.868c-2.113,-4.225 -12.146,-12.146 -11.883,-11.354c0.266,0.791 7.395,11.354 7.395,11.354l4.488,-0Z" style="fill:#9ca3af;fill-rule:nonzero;"/><path d="M212.622,16.595l3.883,0c-2.004,-3.433 -8.612,-8.987 -10.779,-10.487c1.125,1.862 4.5,6.929 6.896,10.487m4.783,0.546l-5.07,0l-0.084,-0.121c-0.733,-1.083 -7.158,-10.612 -7.425,-11.416l-0.083,-0.242l0.25,-0.15c0.633,-0.262 5.571,4.108 5.621,4.154c1.954,1.742 5.412,5.013 6.6,7.379l0.191,0.396Z" style="fill:#9ca3af;fill-rule:nonzero;"/><path d="M224.267,16.868c-2.112,-4.225 -12.145,-12.146 -11.883,-11.354c0.267,0.791 7.396,11.354 7.396,11.354l4.488,-0Z" style="fill:#9ca3af;fill-rule:nonzero;"/><path d="M219.926,16.595l3.883,0c-2.008,-3.433 -8.617,-8.987 -10.783,-10.487c1.125,1.862 4.5,6.929 6.9,10.487m4.783,0.546l-5.075,0l-0.083,-0.121c-0.734,-1.083 -7.159,-10.612 -7.425,-11.416l-0.084,-0.242l0.25,-0.15c0.634,-0.262 5.571,4.108 5.621,4.154c1.954,1.742 5.413,5.013 6.6,7.379l0.196,0.396Z" style="fill:#9ca3af;fill-rule:nonzero;"/><path d="M230.957,19.039c-1.054,-4.225 -9.237,-12.146 -8.975,-11.354c0.263,0.791 4.225,10.562 4.225,10.562l4.75,0.792Z" style="fill:#9ca3af;fill-rule:nonzero;"/><path d="M226.404,18.001l4.171,0.696c-1.142,-3.404 -6.234,-8.767 -8.055,-10.354c0.884,2.258 3.463,8.625 3.884,9.658m4.925,1.379l-5.321,-0.887l-0.054,-0.146c-0.163,-0.396 -3.971,-9.783 -4.229,-10.575l-0.055,-0.154l0.113,-0.167c0.075,-0.083 0.192,-0.112 0.304,-0.083c0.767,0.2 8.129,7.562 9.138,11.604l0.104,0.408Z" style="fill:#9ca3af;fill-rule:nonzero;"/><path d="M209.041,20.105c0,0 4.05,-1.896 6.492,-2.321c6.175,-1.079 26.712,7.267 26.712,7.267c-7.129,-3.6 -21.254,-11.45 -27.395,-9.358c-2.075,0.708 -5.809,4.412 -5.809,4.412" style="fill:#9ca3af;fill-rule:nonzero;"/><path d="M216.809,17.413c4.988,0 14.746,3.309 20.658,5.5c-7.304,-3.712 -17.65,-8.62 -22.529,-6.962c-1.291,0.442 -3.287,2.121 -4.541,3.258c1.408,-0.596 3.545,-1.425 5.091,-1.696c0.384,-0.066 0.834,-0.1 1.321,-0.1m25.333,7.892c-0.208,-0.083 -20.529,-8.304 -26.562,-7.254c-2.379,0.417 -6.379,2.283 -6.421,2.304l-1.429,0.667l1.121,-1.113c0.154,-0.154 3.796,-3.754 5.912,-4.475c5.625,-1.916 17.421,4.146 25.225,8.154c0.859,0.442 1.654,0.85 2.379,1.217l-0.225,0.5Z" style="fill:#9ca3af;fill-rule:nonzero;"/><path d="M278.247,55.788c-1.467,0 -2.654,1.192 -2.654,2.655c-0,1.462 1.187,2.654 2.654,2.654c1.467,-0 2.654,-1.192 2.654,-2.654c0,-1.463 -1.187,-2.655 -2.654,-2.655m0,5.859c-1.767,-0 -3.204,-1.438 -3.204,-3.204c-0,-1.767 1.437,-3.2 3.204,-3.2c1.767,-0 3.204,1.433 3.204,3.2c0,1.766 -1.437,3.204 -3.204,3.204" style="fill:#9ca3af;fill-rule:nonzero;"/><path d="M268.119,55.788c-1.466,0 -2.654,1.192 -2.654,2.655c0,1.462 1.188,2.654 2.654,2.654c1.467,-0 2.659,-1.192 2.659,-2.654c-0,-1.463 -1.192,-2.655 -2.659,-2.655m0,5.859c-1.767,-0 -3.204,-1.438 -3.204,-3.204c0,-1.767 1.438,-3.2 3.204,-3.2c1.767,-0 3.204,1.433 3.204,3.2c0,1.766 -1.437,3.204 -3.204,3.204" style="fill:#9ca3af;fill-rule:nonzero;"/><path d="M257.686,56.248c-1.466,-0 -2.654,1.192 -2.654,2.654c0,1.467 1.188,2.654 2.654,2.654c1.467,0 2.654,-1.187 2.654,-2.654c0,-1.462 -1.187,-2.654 -2.654,-2.654m0,5.858c-1.766,0 -3.204,-1.437 -3.204,-3.204c0,-1.767 1.438,-3.2 3.204,-3.2c1.767,0 3.204,1.433 3.204,3.2c0,1.767 -1.437,3.204 -3.204,3.204" style="fill:#9ca3af;fill-rule:nonzero;"/><path d="M90.287,144.898c0,-1.459 -0.192,-2.767 -0.579,-3.921c-0.383,-1.163 -0.938,-2.142 -1.663,-2.95c-0.72,-0.813 -1.6,-1.429 -2.637,-1.859c-1.033,-0.425 -2.2,-0.641 -3.5,-0.641c-1.296,-0 -2.471,0.216 -3.508,0.641c-1.042,0.43 -1.925,1.046 -2.655,1.859c-0.729,0.808 -1.291,1.787 -1.683,2.95c-0.387,1.154 -0.583,2.462 -0.583,3.921c-0,1.458 0.196,2.762 0.583,3.92c0.392,1.159 0.954,2.138 1.683,2.938c0.73,0.804 1.613,1.421 2.655,1.85c1.037,0.425 2.212,0.642 3.508,0.642c1.3,-0 2.467,-0.217 3.5,-0.642c1.037,-0.429 1.917,-1.046 2.637,-1.85c0.725,-0.8 1.28,-1.779 1.663,-2.938c0.387,-1.158 0.579,-2.462 0.579,-3.92m5.071,-0c-0,1.945 -0.321,3.75 -0.975,5.408c-0.65,1.658 -1.563,3.096 -2.738,4.308c-1.175,1.213 -2.591,2.163 -4.241,2.842c-1.654,0.679 -3.484,1.021 -5.496,1.021c-2.008,-0 -3.842,-0.342 -5.5,-1.021c-1.658,-0.679 -3.079,-1.629 -4.263,-2.842c-1.183,-1.212 -2.095,-2.65 -2.75,-4.308c-0.645,-1.658 -0.97,-3.463 -0.97,-5.408c-0,-1.95 0.325,-3.75 0.97,-5.413c0.655,-1.658 1.567,-3.096 2.75,-4.308c1.184,-1.213 2.605,-2.159 4.263,-2.838c1.658,-0.683 3.492,-1.021 5.5,-1.021c2.012,0 3.842,0.342 5.496,1.03c1.65,0.683 3.066,1.633 4.241,2.837c1.175,1.208 2.088,2.642 2.738,4.3c0.654,1.663 0.975,3.463 0.975,5.413" style="fill:#9ca3af;fill-rule:nonzero;"/><path d="M116.671,151.917c0.266,-0 0.5,0.1 0.7,0.308l1.946,2.117c-1.08,1.333 -2.405,2.354 -3.975,3.066c-1.575,0.709 -3.467,1.067 -5.671,1.067c-1.971,0 -3.746,-0.337 -5.321,-1.012c-1.571,-0.671 -2.917,-1.613 -4.033,-2.813c-1.113,-1.2 -1.963,-2.633 -2.559,-4.296c-0.596,-1.666 -0.891,-3.487 -0.891,-5.458c-0,-1.996 0.329,-3.825 0.987,-5.483c0.667,-1.659 1.596,-3.088 2.796,-4.288c1.2,-1.2 2.637,-2.137 4.304,-2.804c1.675,-0.667 3.521,-1 5.546,-1c1.971,-0 3.692,0.312 5.171,0.942c1.475,0.637 2.737,1.47 3.791,2.512l-1.654,2.296c-0.096,0.146 -0.221,0.275 -0.375,0.383c-0.154,0.113 -0.362,0.167 -0.633,0.167c-0.283,-0 -0.567,-0.108 -0.867,-0.333c-0.291,-0.217 -0.666,-0.455 -1.116,-0.717c-0.455,-0.254 -1.025,-0.496 -1.717,-0.713c-0.692,-0.22 -1.571,-0.333 -2.638,-0.333c-1.25,0 -2.395,0.217 -3.445,0.654c-1.046,0.434 -1.946,1.059 -2.705,1.867c-0.75,0.804 -1.337,1.792 -1.762,2.946c-0.421,1.158 -0.633,2.462 -0.633,3.904c-0,1.496 0.212,2.825 0.633,3.987c0.425,1.167 1,2.142 1.717,2.942c0.725,0.796 1.575,1.4 2.558,1.825c0.979,0.425 2.029,0.633 3.162,0.633c0.671,0 1.28,-0.033 1.825,-0.108c0.546,-0.075 1.046,-0.192 1.505,-0.35c0.462,-0.158 0.895,-0.362 1.308,-0.612c0.404,-0.255 0.812,-0.563 1.221,-0.93c0.121,-0.108 0.246,-0.2 0.387,-0.27c0.134,-0.063 0.279,-0.096 0.438,-0.096" style="fill:#9ca3af;fill-rule:nonzero;"/><path d="M138.957,131.612l-0,3.929l-11.775,0l-0,7.371l9.275,0l-0,3.804l-9.275,0l-0,7.517l11.775,-0l-0,3.946l-16.755,-0l0,-26.567l16.755,0Z" style="fill:#9ca3af;fill-rule:nonzero;"/><path d="M148.547,148.149l8.467,-0l-3.229,-8.838c-0.15,-0.391 -0.308,-0.854 -0.488,-1.387c-0.179,-0.534 -0.354,-1.113 -0.525,-1.738c-0.17,0.625 -0.337,1.209 -0.504,1.746c-0.162,0.542 -0.329,1.013 -0.491,1.417l-3.23,8.8Zm17.196,10.029l-3.821,-0c-0.433,-0 -0.783,-0.104 -1.058,-0.321c-0.271,-0.212 -0.471,-0.479 -0.596,-0.796l-1.983,-5.421l-11.008,0l-1.98,5.421c-0.104,0.279 -0.295,0.538 -0.583,0.767c-0.283,0.237 -0.637,0.35 -1.054,0.35l-3.842,-0l10.438,-26.567l5.05,0l10.437,26.567Z" style="fill:#9ca3af;fill-rule:nonzero;"/><path d="M170.776,131.64c0.146,0.017 0.279,0.059 0.396,0.109c0.117,0.058 0.229,0.137 0.342,0.241c0.108,0.1 0.229,0.242 0.366,0.413l13.942,17.767c-0.046,-0.43 -0.079,-0.85 -0.1,-1.259c-0.017,-0.408 -0.025,-0.796 -0.025,-1.15l0,-16.15l4.354,0l0,26.567l-2.554,-0c-0.392,-0 -0.717,-0.063 -0.975,-0.183c-0.254,-0.121 -0.508,-0.342 -0.75,-0.659l-13.892,-17.696c0.034,0.396 0.063,0.78 0.08,1.167c0.02,0.388 0.029,0.738 0.029,1.058l-0,16.313l-4.354,-0l-0,-26.567l2.591,0c0.221,0 0.404,0.009 0.55,0.029" style="fill:#9ca3af;fill-rule:nonzero;"/><path d="M86.935,177.328c-0,-1.459 -0.196,-2.763 -0.588,-3.921c-0.387,-1.159 -0.946,-2.138 -1.671,-2.938c-0.725,-0.804 -1.6,-1.421 -2.637,-1.85c-1.034,-0.425 -2.2,-0.642 -3.5,-0.642l-5.163,0l0,18.705l5.163,-0c1.3,-0 2.466,-0.217 3.5,-0.642c1.037,-0.433 1.912,-1.046 2.637,-1.85c0.725,-0.8 1.284,-1.779 1.671,-2.942c0.392,-1.154 0.588,-2.458 0.588,-3.921m5.054,0c-0,1.95 -0.325,3.738 -0.975,5.367c-0.65,1.629 -1.563,3.033 -2.738,4.208c-1.175,1.175 -2.587,2.088 -4.241,2.738c-1.655,0.646 -3.484,0.971 -5.496,0.971l-10.138,-0l0,-26.567l10.138,0c2.012,0 3.841,0.329 5.496,0.983c1.654,0.655 3.066,1.571 4.241,2.738c1.175,1.171 2.088,2.571 2.738,4.2c0.65,1.629 0.975,3.417 0.975,5.362" style="fill:#9ca3af;fill-rule:nonzero;"/><path d="M99.613,176.685l3.088,-0c0.929,-0 1.741,-0.113 2.433,-0.346c0.692,-0.238 1.263,-0.559 1.708,-0.967c0.45,-0.408 0.784,-0.896 1.005,-1.458c0.216,-0.567 0.329,-1.184 0.329,-1.859c-0,-1.35 -0.446,-2.383 -1.334,-3.104c-0.891,-0.721 -2.245,-1.083 -4.066,-1.083l-3.163,-0l0,8.817Zm0,3.55l0,10.379l-4.946,-0l0,-26.567l8.109,0c1.808,0 3.362,0.188 4.654,0.558c1.296,0.371 2.35,0.896 3.179,1.575c0.829,0.671 1.433,1.475 1.817,2.413c0.387,0.937 0.583,1.967 0.583,3.096c0,0.896 -0.133,1.741 -0.396,2.533c-0.262,0.8 -0.641,1.521 -1.137,2.171c-0.496,0.65 -1.113,1.221 -1.842,1.708c-0.729,0.488 -1.558,0.884 -2.487,1.175c0.625,0.354 1.162,0.863 1.616,1.525l6.65,9.813l-4.446,-0c-0.429,-0 -0.791,-0.088 -1.091,-0.259c-0.3,-0.17 -0.554,-0.416 -0.767,-0.737l-5.583,-8.508c-0.204,-0.317 -0.438,-0.538 -0.692,-0.68c-0.246,-0.133 -0.617,-0.195 -1.108,-0.195l-2.113,-0Z" style="fill:#9ca3af;fill-rule:nonzero;"/><path d="M133.972,164.046l0,3.929l-11.779,0l-0,7.371l9.275,0l-0,3.8l-9.275,0l-0,7.517l11.779,-0l0,3.95l-16.754,-0l-0,-26.567l16.754,0Z" style="fill:#9ca3af;fill-rule:nonzero;"/><path d="M143.046,180.583l8.471,-0l-3.233,-8.838c-0.146,-0.396 -0.309,-0.854 -0.488,-1.387c-0.175,-0.534 -0.35,-1.113 -0.521,-1.738c-0.175,0.625 -0.341,1.208 -0.508,1.746c-0.162,0.542 -0.329,1.008 -0.487,1.417l-3.234,8.799Zm17.196,10.03l-3.821,-0c-0.429,-0 -0.783,-0.105 -1.054,-0.321c-0.275,-0.217 -0.475,-0.479 -0.6,-0.796l-1.983,-5.425l-11.004,0l-1.984,5.425c-0.1,0.279 -0.296,0.537 -0.579,0.767c-0.287,0.233 -0.642,0.35 -1.058,0.35l-3.842,-0l10.438,-26.567l5.054,0l10.433,26.567Z" style="fill:#9ca3af;fill-rule:nonzero;"/><path d="M175.537,180.81c0.179,0.425 0.354,0.846 0.525,1.28c0.171,-0.446 0.35,-0.875 0.533,-1.309c0.184,-0.425 0.38,-0.837 0.588,-1.229l7.862,-14.717c0.1,-0.183 0.2,-0.329 0.3,-0.437c0.109,-0.117 0.225,-0.192 0.35,-0.242c0.134,-0.05 0.275,-0.083 0.434,-0.096c0.158,-0.008 0.35,-0.012 0.571,-0.012l3.729,-0l-0,26.567l-4.354,-0l-0,-17.163c-0,-0.321 0.008,-0.667 0.029,-1.05c0.016,-0.375 0.046,-0.762 0.083,-1.154l-8.029,15.062c-0.188,0.346 -0.425,0.613 -0.717,0.805c-0.296,0.187 -0.637,0.283 -1.029,0.283l-0.679,-0c-0.396,-0 -0.738,-0.096 -1.029,-0.283c-0.296,-0.192 -0.534,-0.459 -0.717,-0.805l-8.142,-15.12c0.05,0.408 0.084,0.804 0.1,1.187c0.021,0.383 0.03,0.742 0.03,1.075l-0,17.163l-4.355,-0l0,-26.567l3.734,-0c0.216,-0 0.404,0.004 0.562,0.012c0.163,0.013 0.309,0.046 0.438,0.096c0.125,0.05 0.246,0.125 0.358,0.242c0.108,0.108 0.213,0.254 0.308,0.437l7.938,14.755c0.208,0.391 0.404,0.795 0.579,1.22" style="fill:#9ca3af;fill-rule:nonzero;"/><path d="M213.025,162.557l0,13.346l7.883,-0c1.442,-0 2.65,-0.188 3.625,-0.567c0.971,-0.375 1.75,-0.883 2.338,-1.512c0.587,-0.625 1.008,-1.363 1.271,-2.2c0.258,-0.838 0.391,-1.734 0.391,-2.679c0,-0.984 -0.145,-1.871 -0.437,-2.655c-0.288,-0.791 -0.742,-1.462 -1.354,-2.016c-0.617,-0.559 -1.409,-0.979 -2.367,-1.279c-0.967,-0.292 -2.129,-0.438 -3.496,-0.438l-7.854,0Zm0,-5.854l6.208,-0c2.638,-0 4.642,-0.525 6.009,-1.571c1.362,-1.05 2.046,-2.721 2.046,-5.004c-0,-2.375 -0.617,-4.063 -1.85,-5.071c-1.23,-1.004 -3.155,-1.508 -5.771,-1.508l-6.642,-0l0,13.154Zm-7.767,25.808l0,-45.512l14.409,-0c2.733,-0 5.066,0.287 7,0.85c1.933,0.566 3.525,1.375 4.766,2.421c1.242,1.05 2.15,2.32 2.725,3.808c0.58,1.496 0.867,3.171 0.867,5.037c0,1.071 -0.142,2.092 -0.429,3.071c-0.292,0.975 -0.738,1.888 -1.346,2.738c-0.604,0.85 -1.375,1.625 -2.308,2.316c-0.934,0.692 -2.046,1.275 -3.338,1.759c5.738,1.408 8.604,4.787 8.604,10.137c0,1.929 -0.337,3.717 -1.008,5.35c-0.675,1.638 -1.654,3.05 -2.946,4.234c-1.287,1.187 -2.875,2.116 -4.762,2.787c-1.888,0.671 -4.042,1.004 -6.467,1.004l-15.767,0Z" style="fill:#9ca3af;fill-rule:nonzero;"/><path d="M271.785,159.758c0,-2.5 -0.304,-4.742 -0.912,-6.721c-0.604,-1.984 -1.475,-3.667 -2.613,-5.05c-1.133,-1.388 -2.516,-2.446 -4.145,-3.184c-1.621,-0.733 -3.459,-1.1 -5.496,-1.1c-2.042,0 -3.884,0.367 -5.517,1.1c-1.637,0.738 -3.029,1.796 -4.171,3.184c-1.15,1.383 -2.029,3.066 -2.641,5.05c-0.621,1.979 -0.925,4.221 -0.925,6.721c-0,2.495 0.304,4.737 0.925,6.716c0.612,1.988 1.491,3.663 2.641,5.038c1.142,1.375 2.534,2.429 4.171,3.162c1.633,0.738 3.475,1.104 5.517,1.104c2.037,0 3.875,-0.366 5.496,-1.104c1.629,-0.733 3.012,-1.787 4.145,-3.162c1.138,-1.375 2.009,-3.05 2.613,-5.038c0.608,-1.979 0.912,-4.221 0.912,-6.716m7.967,-0c0,3.337 -0.508,6.425 -1.529,9.27c-1.021,2.842 -2.454,5.3 -4.3,7.38c-1.85,2.075 -4.075,3.7 -6.675,4.862c-2.596,1.163 -5.475,1.746 -8.629,1.746c-3.159,-0 -6.042,-0.583 -8.65,-1.746c-2.609,-1.162 -4.842,-2.787 -6.7,-4.862c-1.859,-2.08 -3.296,-4.538 -4.317,-7.38c-1.021,-2.845 -1.529,-5.933 -1.529,-9.27c-0,-3.338 0.508,-6.43 1.529,-9.271c1.021,-2.842 2.458,-5.304 4.317,-7.38c1.858,-2.079 4.091,-3.7 6.7,-4.866c2.608,-1.163 5.491,-1.746 8.65,-1.746c3.154,0 6.033,0.592 8.629,1.762c2.6,1.175 4.825,2.8 6.675,4.863c1.846,2.067 3.279,4.525 4.3,7.367c1.021,2.841 1.529,5.933 1.529,9.27" style="fill:#9ca3af;fill-rule:nonzero;"/><path d="M290.898,165.328l13.312,-0l-5.079,-15.142c-0.233,-0.671 -0.492,-1.462 -0.767,-2.375c-0.279,-0.912 -0.554,-1.904 -0.825,-2.975c-0.271,1.071 -0.533,2.067 -0.796,2.992c-0.258,0.921 -0.512,1.729 -0.762,2.425l-5.083,15.075Zm27.025,17.183l-6.005,0c-0.67,0 -1.225,-0.183 -1.662,-0.55c-0.429,-0.366 -0.742,-0.821 -0.933,-1.371l-3.121,-9.279l-17.296,0l-3.121,9.279c-0.154,0.484 -0.454,0.93 -0.904,1.321c-0.454,0.4 -1.013,0.6 -1.663,0.6l-6.033,0l16.4,-45.512l7.942,-0l16.396,45.512Z" style="fill:#9ca3af;fill-rule:nonzero;"/><path d="M344.23,137l0,6.954l-12.562,-0l-0,38.558l-7.767,0l-0,-38.558l-12.617,-0l0,-6.954l32.946,-0Z" style="fill:#9ca3af;fill-rule:nonzero;"/><path d="M368.368,145.276c-0.213,0.462 -0.455,0.787 -0.738,0.975c-0.275,0.191 -0.608,0.287 -0.996,0.287c-0.383,0 -0.816,-0.162 -1.3,-0.487c-0.479,-0.329 -1.046,-0.688 -1.704,-1.088c-0.65,-0.4 -1.421,-0.762 -2.292,-1.087c-0.875,-0.325 -1.912,-0.488 -3.108,-0.488c-1.075,0 -2.012,0.142 -2.812,0.425c-0.8,0.284 -1.471,0.679 -2.021,1.184c-0.55,0.5 -0.959,1.104 -1.229,1.804c-0.267,0.704 -0.4,1.479 -0.4,2.316c-0,1.071 0.27,1.963 0.82,2.675c0.55,0.713 1.275,1.321 2.18,1.825c0.904,0.505 1.933,0.955 3.091,1.355c1.154,0.4 2.334,0.82 3.534,1.275c1.204,0.45 2.383,0.975 3.541,1.575c1.154,0.595 2.184,1.354 3.088,2.266c0.904,0.909 1.633,2.029 2.179,3.35c0.55,1.325 0.825,2.929 0.825,4.817c-0,2.058 -0.321,3.983 -0.971,5.775c-0.642,1.796 -1.587,3.358 -2.825,4.687c-1.242,1.338 -2.762,2.388 -4.55,3.15c-1.792,0.767 -3.842,1.15 -6.15,1.15c-1.329,0 -2.637,-0.145 -3.925,-0.425c-1.292,-0.283 -2.529,-0.687 -3.712,-1.212c-1.184,-0.525 -2.292,-1.154 -3.321,-1.888c-1.029,-0.737 -1.946,-1.554 -2.759,-2.458l2.255,-4.058c0.212,-0.296 0.466,-0.538 0.766,-0.738c0.296,-0.2 0.629,-0.304 0.992,-0.304c0.483,0 1,0.217 1.562,0.65c0.559,0.429 1.217,0.904 1.98,1.429c0.758,0.525 1.65,1.004 2.683,1.434c1.029,0.433 2.267,0.645 3.712,0.645c2.209,0 3.925,-0.57 5.138,-1.716c1.212,-1.142 1.821,-2.788 1.821,-4.925c-0,-1.196 -0.279,-2.175 -0.825,-2.925c-0.546,-0.759 -1.275,-1.392 -2.179,-1.904c-0.909,-0.517 -1.938,-0.95 -3.092,-1.309c-1.15,-0.358 -2.329,-0.746 -3.521,-1.162c-1.196,-0.425 -2.367,-0.925 -3.525,-1.513c-1.154,-0.587 -2.183,-1.354 -3.087,-2.296c-0.909,-0.95 -1.63,-2.129 -2.18,-3.545c-0.55,-1.417 -0.82,-3.163 -0.82,-5.242c-0,-1.654 0.3,-3.271 0.904,-4.846c0.608,-1.575 1.495,-2.971 2.658,-4.187c1.163,-1.217 2.592,-2.192 4.288,-2.925c1.695,-0.738 3.625,-1.1 5.804,-1.1c2.466,-0 4.737,0.416 6.816,1.254c2.08,0.841 3.846,2.021 5.313,3.529l-1.908,3.996Z" style="fill:#9ca3af;fill-rule:nonzero;"/><rect x="196.938" y="131.504" width="2.679" height="59.15" style="fill:#9ca3af;"/></g></svg>