<?xml version="1.0" encoding="UTF-8" standalone="no"?><!DOCTYPE svg PUBLIC "-//W3C//DTD SVG 1.1//EN" "http://www.w3.org/Graphics/SVG/1.1/DTD/svg11.dtd"><svg width="100%" height="100%" viewBox="0 0 438 200" version="1.1" xmlns="http://www.w3.org/2000/svg" xmlns:xlink="http://www.w3.org/1999/xlink" xml:space="preserve" xmlns:serif="http://www.serif.com/" style="fill-rule:evenodd;clip-rule:evenodd;stroke-linejoin:round;stroke-miterlimit:2;"><rect id="Page-3" serif:id="Page 3" x="0" y="0" width="437.5" height="200" style="fill:none;"/><g id="Layer-1" serif:id="Layer 1"><path d="M248.759,22.522l9.387,-17.492l-97.291,0l65.845,107.213l0.838,1.358l10.558,-16.337l-46.233,-74.742l56.896,0Z" style="fill:#9ca3af;fill-rule:nonzero;"/><path d="M273.169,5.031l-37.329,62.384l9.441,18.012l49.367,-80.396l-21.479,0Z" style="fill:#9ca3af;fill-rule:nonzero;"/><path d="M127.466,165.58l-7.071,0l-12.788,-38.733l9.85,0l6.53,21.65l6.416,-21.65l9.904,0l-12.841,38.733Z" style="fill:#9ca3af;fill-rule:nonzero;"/><path d="M164.022,141.537l-3.484,10.333l6.746,0l-3.262,-10.333Zm7.558,24.046l-1.792,-5.767l-11.916,-0l-1.905,5.767l-9.954,-0l14.092,-38.734l7.342,0l14.091,38.734l-9.958,-0Z" style="fill:#9ca3af;fill-rule:nonzero;"/><path d="M212.708,165.58l-0,-15.341l-10.121,-0l-0,15.341l-9.521,0l-0,-38.733l9.521,0l-0,14.904l10.121,0l-0,-14.904l9.516,0l0,38.733l-9.516,0Z" style="fill:#9ca3af;fill-rule:nonzero;"/><path d="M237.671,165.58l-0,-38.733l26.329,0l-0,8.488l-16.808,-0l-0,6.475l14.358,-0l-0,8.483l-14.358,-0l-0,6.804l16.808,0l-0,8.483l-26.329,0Z" style="fill:#9ca3af;fill-rule:nonzero;"/><path d="M278.357,165.58l0,-38.733l26.329,0l0,8.488l-16.808,-0l-0,6.475l14.362,-0l0,8.483l-14.362,-0l-0,6.804l16.808,0l0,8.483l-26.329,0Z" style="fill:#9ca3af;fill-rule:nonzero;"/><path d="M337.325,137.512c-0.871,-1.304 -2.175,-2.175 -4.571,-2.175l-4.192,0l0,21.758l4.192,0c2.396,0 3.7,-0.87 4.571,-2.175c0.762,-1.087 1.033,-2.12 1.033,-8.704c0,-6.533 -0.271,-7.616 -1.033,-8.704m6.525,24.258c-2.663,2.671 -6.417,3.809 -10.442,3.809l-14.362,-0l-0,-38.734l14.362,0c4.025,0 7.779,1.146 10.442,3.809c4.517,4.516 4.029,9.466 4.029,15.562c0,6.092 0.488,11.042 -4.029,15.554" style="fill:#9ca3af;fill-rule:nonzero;"/><path d="M114.282,175.269l0,1.216l-5.204,0l-0,3.13l4.692,-0l-0,1.183l-4.692,-0l-0,3.133l5.204,0l0,1.213l-6.675,-0l0,-9.875l6.675,-0Z" style="fill:#9ca3af;fill-rule:nonzero;"/><path d="M121.236,185.144l-1.471,0l0,-9.875l1.792,0l5.55,7.684l0.067,-0l-0.067,-1.905l0,-5.779l1.471,0l-0,9.875l-1.529,0l-5.813,-8.054l-0.062,0l0.062,1.9l0,6.154Z" style="fill:#9ca3af;fill-rule:nonzero;"/><path d="M145.219,180.607c-0,1.379 -0.471,2.479 -1.421,3.296c-1.063,0.971 -2.463,1.462 -4.196,1.462c-1.658,0 -3.062,-0.5 -4.208,-1.491c-1.154,-0.992 -1.725,-2.213 -1.725,-3.667c-0,-1.45 0.571,-2.675 1.725,-3.671c1.146,-0.991 2.55,-1.487 4.208,-1.487c0.842,-0 1.633,0.129 2.379,0.387c0.742,0.254 1.359,0.621 1.834,1.092l-1.055,0.908c-0.35,-0.371 -0.804,-0.654 -1.362,-0.862c-0.558,-0.209 -1.154,-0.309 -1.796,-0.309c-1.242,0 -2.296,0.371 -3.154,1.117c-0.858,0.75 -1.279,1.696 -1.279,2.825c-0,1.133 0.421,2.071 1.279,2.825c0.858,0.746 1.912,1.121 3.154,1.121c1.142,-0 2.083,-0.279 2.842,-0.829c0.754,-0.55 1.191,-1.309 1.304,-2.279l-4.146,-0l0,-1.184l5.538,0c0.054,0.259 0.079,0.504 0.079,0.746" style="fill:#9ca3af;fill-rule:nonzero;"/><rect x="150.517" y="175.271" width="1.471" height="9.875" style="fill:#9ca3af;"/><path d="M159.261,185.144l-1.471,0l0,-9.875l1.788,0l5.554,7.684l0.067,-0l-0.067,-1.905l0,-5.779l1.471,0l-0,9.875l-1.533,0l-5.809,-8.054l-0.066,0l0.066,1.9l0,6.154Z" style="fill:#9ca3af;fill-rule:nonzero;"/><path d="M179.081,175.269l0,1.216l-5.204,0l0,3.13l4.692,-0l-0,1.183l-4.692,-0l0,3.133l5.204,0l0,1.213l-6.675,-0l0,-9.875l6.675,-0Z" style="fill:#9ca3af;fill-rule:nonzero;"/><path d="M191.235,175.269l0,1.216l-5.2,0l0,3.13l4.692,-0l0,1.183l-4.692,-0l0,3.133l5.2,0l0,1.213l-6.67,-0l-0,-9.875l6.67,-0Z" style="fill:#9ca3af;fill-rule:nonzero;"/><path d="M198.193,176.485l0,3.475l2.359,0c0.6,0 1.104,-0.171 1.52,-0.504c0.413,-0.334 0.621,-0.754 0.621,-1.25c0,-0.459 -0.196,-0.858 -0.583,-1.204c-0.388,-0.346 -0.875,-0.517 -1.458,-0.517l-2.459,0Zm0,8.658l-1.471,0l0,-9.875l3.896,0c0.988,0 1.829,0.284 2.529,0.85c0.696,0.567 1.046,1.263 1.046,2.088c0,0.679 -0.258,1.287 -0.775,1.817c-0.512,0.529 -1.166,0.866 -1.954,1.012l-0.033,0.042l3.208,4.008l0,0.058l-1.737,0l-3.08,-4l-1.629,0l0,4Z" style="fill:#9ca3af;fill-rule:nonzero;"/><rect x="209.458" y="175.271" width="1.467" height="9.875" style="fill:#9ca3af;"/><path d="M218.201,185.144l-1.467,0l0,-9.875l1.788,0l5.55,7.684l0.066,-0l-0.066,-1.905l-0,-5.779l1.47,0l0,9.875l-1.529,0l-5.812,-8.054l-0.063,0l0.063,1.9l-0,6.154Z" style="fill:#9ca3af;fill-rule:nonzero;"/><path d="M242.183,180.607c0,1.379 -0.47,2.479 -1.42,3.296c-1.063,0.971 -2.463,1.462 -4.196,1.462c-1.659,0 -3.063,-0.5 -4.209,-1.491c-1.154,-0.992 -1.725,-2.213 -1.725,-3.667c0,-1.45 0.571,-2.675 1.725,-3.671c1.146,-0.991 2.55,-1.487 4.209,-1.487c0.841,-0 1.633,0.129 2.379,0.387c0.742,0.254 1.358,0.621 1.833,1.092l-1.054,0.908c-0.35,-0.371 -0.804,-0.654 -1.362,-0.862c-0.559,-0.209 -1.155,-0.309 -1.796,-0.309c-1.242,0 -2.296,0.371 -3.154,1.117c-0.859,0.75 -1.28,1.696 -1.28,2.825c0,1.133 0.421,2.071 1.28,2.825c0.858,0.746 1.912,1.121 3.154,1.121c1.141,-0 2.083,-0.279 2.841,-0.829c0.755,-0.55 1.192,-1.309 1.305,-2.279l-4.146,-0l-0,-1.184l5.537,0c0.054,0.259 0.079,0.504 0.079,0.746" style="fill:#9ca3af;fill-rule:nonzero;"/><path d="M261.173,175.269l0,1.216l-5.204,0l0,3.13l4.692,-0l-0,1.183l-4.692,-0l0,3.133l5.204,0l0,1.213l-6.675,-0l0,-9.875l6.675,-0Z" style="fill:#9ca3af;fill-rule:nonzero;"/><path d="M268.127,185.144l-1.466,0l-0,-9.875l1.466,0l3.975,6.013l0.067,-0l3.971,-6.013l1.467,0l-0,9.875l-1.467,0l-0,-5.858l0.062,-1.658l-0.062,-0l-3.575,5.42l-0.863,0l-3.575,-5.42l-0.062,-0l0.062,1.658l0,5.858Z" style="fill:#9ca3af;fill-rule:nonzero;"/><rect x="283.413" y="175.271" width="1.471" height="9.875" style="fill:#9ca3af;"/><path d="M292.159,176.485l0,3.475l2.359,0c0.6,0 1.104,-0.171 1.52,-0.504c0.413,-0.334 0.621,-0.754 0.621,-1.25c0,-0.459 -0.196,-0.858 -0.583,-1.204c-0.388,-0.346 -0.875,-0.517 -1.458,-0.517l-2.459,0Zm0,8.658l-1.471,0l0,-9.875l3.896,0c0.988,0 1.829,0.284 2.529,0.85c0.696,0.567 1.042,1.263 1.042,2.088c0,0.679 -0.254,1.287 -0.771,1.817c-0.516,0.529 -1.166,0.866 -1.954,1.012l-0.033,0.042l3.208,4.008l0,0.058l-1.737,0l-3.08,-4l-1.629,0l0,4Z" style="fill:#9ca3af;fill-rule:nonzero;"/><path d="M307.573,176.827l-1.867,4.454l3.8,0l-1.867,-4.454l-0.066,0Zm-3.48,8.317l-1.629,-0l4.313,-9.875l1.658,-0l4.308,9.875l-1.625,-0l-1.104,-2.675l-4.8,-0l-1.121,2.675Z" style="fill:#9ca3af;fill-rule:nonzero;"/><path d="M320.451,176.485l-0,8.658l-1.471,0l0,-8.658l-3.187,0l-0,-1.217l7.85,0l-0,1.217l-3.192,0Z" style="fill:#9ca3af;fill-rule:nonzero;"/><path d="M335.352,175.269l-0,1.216l-5.2,0l-0,3.13l4.691,-0l0,1.183l-4.691,-0l-0,3.133l5.2,0l-0,1.213l-6.671,-0l-0,-9.875l6.671,-0Z" style="fill:#9ca3af;fill-rule:nonzero;"/><path d="M347.892,182.511c0,0.863 -0.367,1.559 -1.1,2.079c-0.742,0.517 -1.646,0.775 -2.712,0.775c-0.95,0 -1.784,-0.241 -2.505,-0.716c-0.72,-0.484 -1.225,-1.134 -1.5,-1.959l1.405,-0.495c0.095,0.291 0.229,0.558 0.4,0.795c0.17,0.242 0.37,0.446 0.595,0.617c0.23,0.171 0.48,0.304 0.759,0.396c0.275,0.1 0.571,0.15 0.879,0.15c0.671,-0 1.217,-0.154 1.642,-0.45c0.425,-0.296 0.641,-0.696 0.641,-1.192c0,-0.416 -0.179,-0.771 -0.529,-1.062c-0.329,-0.284 -0.946,-0.563 -1.854,-0.829c-0.908,-0.284 -1.479,-0.475 -1.704,-0.58c-1.213,-0.533 -1.817,-1.316 -1.817,-2.354c0,-0.729 0.333,-1.346 1.004,-1.862c0.679,-0.517 1.513,-0.775 2.5,-0.775c0.875,-0 1.634,0.196 2.267,0.583c0.642,0.371 1.067,0.85 1.279,1.417l-1.371,0.5c-0.129,-0.371 -0.383,-0.679 -0.758,-0.921c-0.379,-0.246 -0.838,-0.363 -1.383,-0.363c-0.571,0 -1.059,0.134 -1.446,0.413c-0.396,0.254 -0.596,0.592 -0.596,1.008c-0,0.338 0.154,0.634 0.462,0.879c0.342,0.246 1.08,0.546 2.221,0.884c1.159,0.341 1.984,0.754 2.479,1.246c0.496,0.495 0.742,1.095 0.742,1.816" style="fill:#9ca3af;fill-rule:nonzero;"/></g></svg>